<svg xmlns="http://www.w3.org/2000/svg" width="50" height="81" viewBox="0 0 50 81" fill="none"><path d="M0 40.5841C0 18.606 10.974 0.632155 24.8777 0.578125C38.7813 0.638158 49.7314 18.612 49.7494 40.5841C49.7374 62.5442 38.7813 80.5181 24.8777 80.5781C10.974 80.5121 0.0060033 62.5382 0 40.5841Z" fill="black"></path><path d="M26.7463 64.6215C26.3861 64.6575 25.6117 64.8736 25.6897 65.8221C25.7678 66.8187 26.4402 66.9747 26.9805 66.9327C27.4847 66.8907 28.007 66.5185 27.941 65.7441C27.881 64.9937 27.4847 64.5554 26.7463 64.6215ZM26.7463 64.6215C26.3861 64.6575 25.6117 64.8736 25.6897 65.8221C25.7678 66.8187 26.4402 66.9747 26.9805 66.9327C27.4847 66.8907 28.007 66.5185 27.941 65.7441C27.881 64.9937 27.4847 64.5554 26.7463 64.6215ZM33.8482 64.3033C33.6021 63.5949 33.1158 63.2707 32.4194 63.5168C32.0713 63.6309 31.3809 64.0451 31.687 64.9396C32.0052 65.8821 32.6956 65.8701 33.2059 65.696C33.6861 65.5279 34.1004 65.0537 33.8482 64.3033ZM33.8482 64.3033C33.6021 63.5949 33.1158 63.2707 32.4194 63.5168C32.0713 63.6309 31.3809 64.0451 31.687 64.9396C32.0052 65.8821 32.6956 65.8701 33.2059 65.696C33.6861 65.5279 34.1004 65.0537 33.8482 64.3033ZM20.629 66.9627C20.1187 66.8667 19.4643 67.0708 19.3383 67.7792C19.2362 68.4095 19.6564 68.9138 20.3048 69.0279C21.0372 69.1599 21.4814 68.6437 21.5595 68.1934C21.6435 67.7252 21.4094 67.1068 20.629 66.9687M21.1633 64.3693C20.5269 64.2492 20.0827 64.5254 19.9926 65.0057C19.9326 65.3959 20.2147 65.8821 20.8271 65.9902C21.3854 66.0923 21.8116 65.8101 21.8957 65.3478C21.9797 64.8436 21.6135 64.4534 21.1633 64.3693ZM21.1633 64.3693C20.5269 64.2492 20.0827 64.5254 19.9926 65.0057C19.9326 65.3959 20.2147 65.8821 20.8271 65.9902C21.3854 66.0923 21.8116 65.8101 21.8957 65.3478C21.9797 64.8436 21.6135 64.4534 21.1633 64.3693ZM20.629 66.9687C20.1187 66.8727 19.4643 67.0768 19.3383 67.7852C19.2362 68.4155 19.6564 68.9198 20.3048 69.0339C21.0372 69.1659 21.4814 68.6497 21.5595 68.1994C21.6435 67.7312 21.4094 67.1128 20.629 66.9747M25.9959 43.6699V60.8814C27.6708 60.7913 29.2857 60.4672 30.8346 59.9929V43.6879L25.9959 43.6699ZM25.9959 20.2871V36.8202H30.8346V21.3497V21.1696C29.2917 20.7013 27.6708 20.3831 25.9899 20.2811M38.4107 25.4139V36.8142H44.8583C44.0178 32.3177 41.6945 28.3435 38.4107 25.4139ZM38.4107 43.6699V55.7426C41.8626 52.6689 44.2339 48.4426 44.9603 43.6699H38.4107ZM17.4232 11.8344L15.4121 15.9767L18.3237 14.8241L17.4232 11.8344ZM17.4232 11.8344L15.4121 15.9767L18.3237 14.8241L17.4232 11.8344ZM38.9991 15.7786C35.3671 9.43911 30.3663 5.54897 24.8793 5.54297C24.8673 5.54297 24.8673 5.54297 24.8493 5.54297C19.3683 5.55498 14.3615 9.43911 10.7295 15.7726C8.44827 19.7468 6.73132 24.6995 5.75879 30.2225C9.43881 23.4448 16.6068 18.8523 24.8673 18.8523C26.9384 18.8523 28.9315 19.1464 30.8286 19.6988V19.6807L30.9006 19.7108C36.5317 21.3377 41.2203 25.1738 43.9638 30.2345C42.9913 24.6995 41.2803 19.7408 38.9991 15.7726M19.2542 17.9098L18.7259 16.1388L14.5356 17.8077L13.1909 20.5812C12.4345 21.0675 11.7081 21.5958 11.0177 22.1661L16.4807 10.8259L18.2156 9.71526L20.5869 17.6036C20.1487 17.6876 19.6985 17.7897 19.2602 17.9158M25.2515 17.2254C22.592 17.2254 20.4188 15.0702 20.4188 12.3987C20.4188 9.72727 22.586 7.57208 25.2515 7.57208C26.6503 7.57208 27.917 8.16641 28.7995 9.12694L27.7609 10.0815C27.1365 9.4091 26.236 8.98886 25.2455 8.98886C23.3665 8.98886 21.8296 10.5137 21.8296 12.3987C21.8296 14.2838 23.3665 15.8146 25.2455 15.8146C26.236 15.8146 27.1365 15.3944 27.7609 14.716L28.7995 15.6645C27.911 16.6311 26.6503 17.2254 25.2455 17.2254M36.6278 20.6293L35.0969 15.4244L33.6441 19.0204C33.404 18.9183 33.1579 18.8103 32.9237 18.7082L31.8852 13.3172L30.4864 17.9098C30.0481 17.7897 29.5979 17.6876 29.1536 17.5916L31.555 9.70926L32.7076 10.4837L33.7042 15.2143L34.8928 12.2487L35.7333 12.921L38.3867 21.8779C37.8224 21.4337 37.2341 21.0255 36.6338 20.6293M15.4301 15.9707L18.3417 14.8181L17.4412 11.8284L15.4301 15.9707ZM17.4412 11.8284L15.4301 15.9707L18.3417 14.8181L17.4412 11.8284ZM17.4412 11.8284L15.4301 15.9707L18.3417 14.8181L17.4412 11.8284ZM20.635 66.9567C20.1247 66.8607 19.4703 67.0648 19.3443 67.7732C19.2422 68.4035 19.6624 68.9078 20.3108 69.0219C21.0432 69.1539 21.4874 68.6377 21.5655 68.1874C21.6495 67.7192 21.4154 67.1008 20.635 66.9627M21.1693 64.3633C20.5329 64.2432 20.0887 64.5194 19.9986 64.9997C19.9386 65.3899 20.2207 65.8761 20.8331 65.9842C21.3914 66.0863 21.8176 65.8041 21.9017 65.3418C21.9857 64.8376 21.6195 64.4474 21.1693 64.3633ZM21.1693 64.3633C20.5329 64.2432 20.0887 64.5194 19.9986 64.9997C19.9386 65.3899 20.2207 65.8761 20.8331 65.9842C21.3914 66.0863 21.8176 65.8041 21.9017 65.3418C21.9857 64.8376 21.6195 64.4474 21.1693 64.3633ZM20.635 66.9627C20.1247 66.8667 19.4703 67.0708 19.3443 67.7792C19.2422 68.4095 19.6624 68.9138 20.3108 69.0279C21.0432 69.1599 21.4874 68.6437 21.5655 68.1934C21.6495 67.7252 21.4154 67.1068 20.635 66.9687M20.635 66.9687C20.1247 66.8727 19.4703 67.0768 19.3443 67.7852C19.2422 68.4155 19.6624 68.9198 20.3108 69.0339C21.0432 69.1659 21.4874 68.6497 21.5655 68.1994C21.6495 67.7312 21.4154 67.1128 20.635 66.9747M21.1693 64.3753C20.5329 64.2552 20.0887 64.5314 19.9986 65.0117C19.9386 65.4019 20.2207 65.8881 20.8331 65.9962C21.3914 66.0983 21.8176 65.8161 21.9017 65.3539C21.9857 64.8496 21.6195 64.4594 21.1693 64.3753ZM26.7523 64.6335C26.3921 64.6695 25.6177 64.8856 25.6958 65.8341C25.7738 66.8307 26.4462 66.9867 26.9865 66.9447C27.4907 66.9027 28.013 66.5305 27.947 65.7561C27.887 65.0057 27.4907 64.5674 26.7523 64.6335ZM33.8542 64.3153C33.6081 63.6069 33.1218 63.2827 32.4255 63.5288C32.0773 63.6429 31.3869 64.0571 31.693 64.9516C32.0112 65.8942 32.7016 65.8821 33.2119 65.708C33.6921 65.54 34.1064 65.0657 33.8542 64.3153ZM33.8542 64.3153C33.6081 63.6069 33.1218 63.2827 32.4255 63.5288C32.0773 63.6429 31.3869 64.0571 31.693 64.9516C32.0112 65.8942 32.7016 65.8821 33.2119 65.708C33.6921 65.54 34.1064 65.0657 33.8542 64.3153ZM26.7523 64.6335C26.3921 64.6695 25.6177 64.8856 25.6958 65.8341C25.7738 66.8307 26.4462 66.9867 26.9865 66.9447C27.4907 66.9027 28.013 66.5305 27.947 65.7561C27.887 65.0057 27.4907 64.5674 26.7523 64.6335ZM21.1693 64.3753C20.5329 64.2552 20.0887 64.5314 19.9986 65.0117C19.9386 65.4019 20.2207 65.8881 20.8331 65.9962C21.3914 66.0983 21.8176 65.8161 21.9017 65.3539C21.9857 64.8496 21.6195 64.4594 21.1693 64.3753ZM20.635 66.9747C20.1247 66.8787 19.4703 67.0828 19.3443 67.7912C19.2422 68.4215 19.6624 68.9258 20.3108 69.0399C21.0432 69.172 21.4874 68.6557 21.5655 68.2054C21.6495 67.7372 21.4154 67.1188 20.635 66.9807M20.635 66.9807C20.1247 66.8847 19.4703 67.0888 19.3443 67.7972C19.2422 68.4275 19.6624 68.9318 20.3108 69.0459C21.0432 69.178 21.4874 68.6617 21.5655 68.2114C21.6495 67.7432 21.4154 67.1248 20.635 66.9868M21.1693 64.3873C20.5329 64.2673 20.0887 64.5434 19.9986 65.0237C19.9386 65.4139 20.2207 65.9002 20.8331 66.0082C21.3914 66.1103 21.8176 65.8281 21.9017 65.3659C21.9857 64.8616 21.6195 64.4714 21.1693 64.3873ZM26.7523 64.6455C26.3921 64.6815 25.6177 64.8976 25.6958 65.8461C25.7738 66.8427 26.4462 66.9988 26.9865 66.9567C27.4907 66.9147 28.013 66.5425 27.947 65.7681C27.887 65.0177 27.4907 64.5794 26.7523 64.6455ZM33.8542 64.3273C33.6081 63.6189 33.1218 63.2947 32.4255 63.5409C32.0773 63.6549 31.3869 64.0691 31.693 64.9636C32.0112 65.9062 32.7016 65.8942 33.2119 65.7201C33.6921 65.552 34.1064 65.0777 33.8542 64.3273ZM33.8542 64.3273C33.6081 63.6189 33.1218 63.2947 32.4255 63.5409C32.0773 63.6549 31.3869 64.0691 31.693 64.9636C32.0112 65.9062 32.7016 65.8942 33.2119 65.7201C33.6921 65.552 34.1064 65.0777 33.8542 64.3273ZM26.7523 64.6455C26.3921 64.6815 25.6177 64.8976 25.6958 65.8461C25.7738 66.8427 26.4462 66.9988 26.9865 66.9567C27.4907 66.9147 28.013 66.5425 27.947 65.7681C27.887 65.0177 27.4907 64.5794 26.7523 64.6455ZM21.1693 64.3873C20.5329 64.2673 20.0887 64.5434 19.9986 65.0237C19.9386 65.4139 20.2207 65.9002 20.8331 66.0082C21.3914 66.1103 21.8176 65.8281 21.9017 65.3659C21.9857 64.8616 21.6195 64.4714 21.1693 64.3873ZM20.635 66.9868C20.1247 66.8907 19.4703 67.0948 19.3443 67.8032C19.2422 68.4335 19.6624 68.9378 20.3108 69.0519C21.0432 69.184 21.4874 68.6677 21.5655 68.2174C21.6495 67.7492 21.4154 67.1308 20.635 66.9928M24.8853 62.3282C16.6368 62.3282 9.46883 57.7357 5.7888 50.9759C6.76734 56.481 8.47228 61.4277 10.7535 65.4079C14.3855 71.7354 19.3923 75.6255 24.8853 75.6255H24.9994C30.4444 75.5835 35.4091 71.7053 39.0231 65.4079C41.3043 61.4337 43.0093 56.487 43.9818 50.9759C40.3078 57.7417 33.1338 62.3282 24.8913 62.3282M15.5562 68.6797L14.1934 68.2114L15.6222 64.0151C15.31 64.1352 14.8358 64.1352 14.1394 63.895L13.8753 63.805L14.0133 63.4268V63.4148L14.2775 62.6344L14.4816 62.7004C15.5142 63.0606 16.3306 62.3642 16.4267 62.0821L17.6633 62.5083L15.5562 68.6797ZM23.2344 65.4559C23.1323 66.0202 22.7962 66.4645 22.1718 66.6266C22.8022 67.0648 23.1203 67.5511 22.9703 68.4035C22.8262 69.232 22.0157 70.4266 20.1187 70.0784C18.2757 69.7543 17.8374 68.5416 17.9935 67.6471C18.0535 67.3229 18.2036 66.4465 19.3743 66.1703C18.858 65.8281 18.6299 65.3538 18.7319 64.7475C18.93 63.6249 20.0226 63.1266 21.2653 63.3487C22.7481 63.6189 23.3965 64.5554 23.2404 65.4679M27.1666 70.3486C26.0499 70.4446 25.1675 69.9764 24.8553 69.1119L25.8638 68.7337V68.7457C26.074 69.184 26.5122 69.4301 27.1005 69.304C27.6648 69.184 28.2291 68.7637 28.1331 67.377L28.1091 67.365C27.8149 67.8272 27.2686 67.9893 26.7763 68.0253C25.3896 68.1454 24.5011 67.2629 24.411 66.1583C24.267 64.5374 25.2635 63.6969 26.6803 63.5829C29.1897 63.3788 29.4298 65.8281 29.5018 66.7526C29.712 69.298 28.4693 70.2225 27.1606 70.3426M34.2084 68.9558C33.1458 69.328 32.1853 69.0879 31.669 68.3315L32.5575 67.7131V67.7252C32.8697 68.0974 33.356 68.2294 33.8782 67.9713C34.4065 67.7071 34.8508 67.1608 34.4065 65.8401L34.3885 65.8281C34.2204 66.3624 33.7222 66.6446 33.2659 66.8006C31.9512 67.2569 30.8766 66.6145 30.5164 65.576C29.9941 64.0391 30.7445 62.9825 32.0893 62.5263C34.4666 61.7098 35.301 64.0271 35.6072 64.9036C36.4357 67.3289 35.4511 68.5356 34.2084 68.9558ZM32.4255 63.5469C32.0773 63.6609 31.3869 64.0752 31.693 64.9696C32.0112 65.9122 32.7016 65.9002 33.2119 65.7261C33.6921 65.558 34.1064 65.0837 33.8542 64.3333C33.6081 63.6249 33.1218 63.3007 32.4255 63.5469ZM26.7523 64.6515C26.3921 64.6875 25.6177 64.9036 25.6958 65.8521C25.7738 66.8487 26.4462 67.0048 26.9865 66.9627C27.4907 66.9207 28.013 66.5485 27.947 65.7741C27.887 65.0237 27.4907 64.5854 26.7523 64.6515ZM21.1693 64.3933C20.5329 64.2733 20.0887 64.5494 19.9986 65.0297C19.9386 65.4199 20.2207 65.9062 20.8331 66.0142C21.3914 66.1163 21.8176 65.8341 21.9017 65.3719C21.9857 64.8676 21.6195 64.4774 21.1693 64.3933ZM20.635 66.9928C20.1247 66.8967 19.4703 67.1008 19.3443 67.8092C19.2422 68.4395 19.6624 68.9438 20.3108 69.0579C21.0432 69.19 21.4874 68.6737 21.5655 68.2234C21.6495 67.7552 21.4154 67.1368 20.635 66.9988M20.635 66.9988C20.1247 66.9027 19.4703 67.1068 19.3443 67.8152C19.2422 68.4455 19.6624 68.9498 20.3108 69.0639C21.0432 69.196 21.4874 68.6797 21.5655 68.2294C21.6495 67.7612 21.4154 67.1428 20.635 67.0048M21.1693 64.4053C20.5329 64.2853 20.0887 64.5614 19.9986 65.0417C19.9386 65.4319 20.2207 65.9182 20.8331 66.0262C21.3914 66.1283 21.8176 65.8461 21.9017 65.3839C21.9857 64.8796 21.6195 64.4894 21.1693 64.4053ZM26.7523 64.6635C26.3921 64.6995 25.6177 64.9156 25.6958 65.8641C25.7738 66.8607 26.4462 67.0168 26.9865 66.9747C27.4907 66.9327 28.013 66.5605 27.947 65.7861C27.887 65.0357 27.4907 64.5974 26.7523 64.6635ZM33.8542 64.3453C33.6081 63.6369 33.1218 63.3127 32.4255 63.5589C32.0773 63.6729 31.3869 64.0872 31.693 64.9816C32.0112 65.9242 32.7016 65.9122 33.2119 65.7381C33.6921 65.57 34.1064 65.0957 33.8542 64.3453ZM33.8542 64.3453C33.6081 63.6369 33.1218 63.3127 32.4255 63.5589C32.0773 63.6729 31.3869 64.0872 31.693 64.9816C32.0112 65.9242 32.7016 65.9122 33.2119 65.7381C33.6921 65.57 34.1064 65.0957 33.8542 64.3453ZM26.7523 64.6635C26.3921 64.6995 25.6177 64.9156 25.6958 65.8641C25.7738 66.8607 26.4462 67.0168 26.9865 66.9747C27.4907 66.9327 28.013 66.5605 27.947 65.7861C27.887 65.0357 27.4907 64.5974 26.7523 64.6635ZM21.1693 64.4053C20.5329 64.2853 20.0887 64.5614 19.9986 65.0417C19.9386 65.4319 20.2207 65.9182 20.8331 66.0262C21.3914 66.1283 21.8176 65.8461 21.9017 65.3839C21.9857 64.8796 21.6195 64.4894 21.1693 64.4053ZM20.635 67.0048C20.1247 66.9087 19.4703 67.1128 19.3443 67.8212C19.2422 68.4516 19.6624 68.9558 20.3108 69.0699C21.0432 69.202 21.4874 68.6857 21.5655 68.2354C21.6495 67.7672 21.4154 67.1488 20.635 67.0108M20.635 67.0108C20.1247 66.9147 19.4703 67.1188 19.3443 67.8272C19.2422 68.4576 19.6624 68.9618 20.3108 69.0759C21.0432 69.208 21.4874 68.6917 21.5655 68.2414C21.6495 67.7732 21.4154 67.1548 20.635 67.0168M21.1693 64.4173C20.5329 64.2973 20.0887 64.5734 19.9986 65.0537C19.9386 65.4439 20.2207 65.9302 20.8331 66.0382C21.3914 66.1403 21.8176 65.8581 21.9017 65.3959C21.9857 64.8916 21.6195 64.5014 21.1693 64.4173ZM26.7523 64.6755C26.3921 64.7115 25.6177 64.9276 25.6958 65.8761C25.7738 66.8727 26.4462 67.0288 26.9865 66.9868C27.4907 66.9447 28.013 66.5725 27.947 65.7981C27.887 65.0477 27.4907 64.6094 26.7523 64.6755ZM26.7523 64.6755C26.3921 64.7115 25.6177 64.9276 25.6958 65.8761C25.7738 66.8727 26.4462 67.0288 26.9865 66.9868C27.4907 66.9447 28.013 66.5725 27.947 65.7981C27.887 65.0477 27.4907 64.6094 26.7523 64.6755ZM21.1693 64.4173C20.5329 64.2973 20.0887 64.5734 19.9986 65.0537C19.9386 65.4439 20.2207 65.9302 20.8331 66.0382C21.3914 66.1403 21.8176 65.8581 21.9017 65.3959C21.9857 64.8916 21.6195 64.5014 21.1693 64.4173ZM20.635 67.0168C20.1247 66.9207 19.4703 67.1248 19.3443 67.8332C19.2422 68.4636 19.6624 68.9678 20.3108 69.0819C21.0432 69.214 21.4874 68.6977 21.5655 68.2474C21.6495 67.7792 21.4154 67.1608 20.635 67.0228" fill="white"></path><path d="M41.8371 12.7821C37.4547 5.68621 31.4394 1.37584 24.8778 1.38184C18.3042 1.37584 12.3009 5.68621 7.91249 12.7821C3.53609 19.878 0.79858 29.7114 0.810586 40.5834C0.804583 51.4494 3.53609 61.2828 7.91249 68.3727C12.3009 75.4566 18.3102 79.7729 24.8778 79.7669C31.4454 79.7729 37.4547 75.4566 41.8371 68.3727C46.2256 61.2828 48.9511 51.4494 48.9451 40.5834C48.9451 29.7114 46.2256 19.878 41.8371 12.7821ZM24.8778 77.5157C12.5711 77.4497 2.95377 60.8505 2.93576 40.5834C2.95377 20.3163 12.5711 3.71112 24.8778 3.63908C37.1846 3.71112 46.8019 20.3163 46.8139 40.5834C46.8019 60.8505 37.1906 77.4497 24.8778 77.5157ZM26.0004 42.5945V37.8879H31.9197V21.5169C33.9008 22.2433 35.7198 23.2759 37.3407 24.5366V37.8879H45.0309C45.151 38.7764 45.229 39.6649 45.229 40.5834C45.229 41.2558 45.187 41.9341 45.1209 42.5945H37.3407V56.6122C35.7138 57.8789 33.8948 58.9115 31.9137 59.6439V42.6065L25.9944 42.5945H26.0004ZM22.2063 20.4243V60.7365C20.8976 60.5624 19.6249 60.2682 18.4003 59.866V21.2948C19.6249 20.8866 20.8916 20.5924 22.2063 20.4243ZM14.6062 23.0297V58.125C13.2374 57.3206 11.9587 56.3661 10.8121 55.2675V25.8873C11.9587 24.7947 13.2374 23.8462 14.6062 23.0297ZM4.53264 40.5894C4.53264 37.0474 5.42713 33.7276 7.018 30.822V50.3388C5.43313 47.4392 4.53264 44.1253 4.53264 40.5894Z" fill="#E0071B"></path></svg>