<?xml version="1.0" encoding="utf-8"?>
<!-- Generator: Adobe Illustrator 28.1.0, SVG Export Plug-In . SVG Version: 6.00 Build 0)  -->
<svg version="1.1" xmlns="http://www.w3.org/2000/svg" xmlns:xlink="http://www.w3.org/1999/xlink" x="0px" y="0px"
	 viewBox="0 0 435.2 399.8" style="enable-background:new 0 0 435.2 399.8;" xml:space="preserve">
<style type="text/css">
	.st0{display:none;}
	.st1{display:inline;}
	.st2{fill:none;stroke:#EA234F;stroke-width:0.25;stroke-miterlimit:10;}
	.st3{display:inline;fill:none;stroke:#EA234F;stroke-width:0.25;stroke-miterlimit:10;}
	.st4{fill-rule:evenodd;clip-rule:evenodd;}
</style>
<g id="Freespace" class="st0">
	<g id="F1_TEAM_00000106122868409039466000000002557855428842570410_" class="st1">
		<polygon id="M_00000183228258716604322330000014251467838316316329_" class="st2" points="308.5,324.1 302.2,339.4 295.9,324.1 
			289.8,324.1 289.8,349.3 295.1,349.3 295.1,335.3 300.8,349.3 303.6,349.3 309.3,335.3 309.3,349.3 314.6,349.3 314.6,324.1 		"/>
		<path id="A_00000116933129603444123810000006266905867016290194_" class="st2" d="M263.3,324.1l-10.1,25.2h5.8l2-5.1h9.9l2,5.1
			h5.8l-10.2-25.2H263.3z M262.7,339.3l3.2-8.1l3.1,8.1H262.7z"/>
		<polygon id="E_00000155141847583357152980000017908377861526293654_" class="st2" points="225.1,349.3 242.4,349.3 242.4,344.3 
			230.3,344.3 230.3,338.9 242.2,338.9 242.2,333.9 230.3,333.9 230.3,329 242.4,329 242.4,324.1 225.1,324.1 		"/>
		<polygon id="T_00000117658223238530547910000000407403006869671331_" class="st2" points="193.2,329 200.4,329 200.4,349.3 
			205.7,349.3 205.7,329 212.9,329 212.9,324.1 193.2,324.1 		"/>
		<path id="R_00000065762364980280315900000014042267327193646229_" class="st2" d="M170.2,326.5c0-0.9-0.7-1.5-1.5-1.5h-2v4.8h0.6
			V328h0.9l1.3,1.9h0.8L169,328C169.3,328,170.2,327.6,170.2,326.5z M167.3,327.4v-1.8h1.3c0.5,0,0.9,0.4,0.9,0.9
			c0,0.5-0.4,0.9-0.9,0.9H167.3z"/>
		<path id="O_00000143585493358853398200000004232656498644854155_" class="st2" d="M168.3,323.2c-2.3,0-4.2,1.9-4.2,4.2
			c0,2.3,1.9,4.2,4.2,4.2c2.3,0,4.2-1.9,4.2-4.2C172.5,325.1,170.7,323.2,168.3,323.2z M168.3,331.1c-2,0-3.7-1.7-3.7-3.7
			c0-2,1.6-3.6,3.7-3.6c2,0,3.6,1.6,3.6,3.6C172,329.5,170.3,331.1,168.3,331.1z"/>
		<polygon id="_x31__00000132784503882730739630000014528679176949296512_" class="st2" points="147.5,331.2 151,334.7 153.4,332.1 
			153.4,349.3 158.7,349.3 158.7,324.1 154.4,324.1 		"/>
		<polygon id="F_00000061467558707613967290000013616913105634477982_" class="st2" points="120.6,349.3 125.9,349.3 125.9,338.9 
			137.7,338.9 137.7,333.9 125.9,333.9 125.9,329 138,329 138,324.1 120.6,324.1 		"/>
	</g>
	<g id="F1_TEAM_00000114790150746682264970000011145187091332563374_" class="st1">
		<polygon id="M_00000022553454792995589020000000581318075697241520_" class="st2" points="308.5,349.3 302.2,364.7 295.9,349.3 
			289.8,349.3 289.8,374.5 295.1,374.5 295.1,360.6 300.8,374.5 303.6,374.5 309.3,360.6 309.3,374.5 314.6,374.5 314.6,349.3 		"/>
		<path id="A_00000146497807569411054740000003092275046882354615_" class="st2" d="M263.3,349.3l-10.1,25.2h5.8l2-5.1h9.9l2,5.1
			h5.8l-10.2-25.2H263.3z M262.7,364.5l3.2-8.1l3.1,8.1H262.7z"/>
		<polygon id="E_00000049932513525491602080000001311776274636372154_" class="st2" points="225.1,374.5 242.4,374.5 242.4,369.6 
			230.3,369.6 230.3,364.2 242.2,364.2 242.2,359.2 230.3,359.2 230.3,354.3 242.4,354.3 242.4,349.3 225.1,349.3 		"/>
		<polygon id="T_00000007425552056280310540000004108754625581196176_" class="st2" points="193.2,354.3 200.4,354.3 200.4,374.5 
			205.7,374.5 205.7,354.3 212.9,354.3 212.9,349.3 193.2,349.3 		"/>
		<path id="R_00000001641696926018085680000017783332457739471503_" class="st2" d="M170.2,351.8c0-0.9-0.7-1.5-1.5-1.5h-2v4.8h0.6
			v-1.9h0.9l1.3,1.9h0.8l-1.3-1.9C169.3,353.2,170.2,352.9,170.2,351.8z M167.3,352.7v-1.8h1.3c0.5,0,0.9,0.4,0.9,0.9
			c0,0.5-0.4,0.9-0.9,0.9H167.3z"/>
		<path id="O_00000146480165003588320850000013845469929498517139_" class="st2" d="M168.3,348.5c-2.3,0-4.2,1.9-4.2,4.2
			c0,2.3,1.9,4.2,4.2,4.2c2.3,0,4.2-1.9,4.2-4.2C172.5,350.4,170.7,348.5,168.3,348.5z M168.3,356.4c-2,0-3.7-1.7-3.7-3.7
			c0-2,1.6-3.6,3.7-3.6c2,0,3.6,1.6,3.6,3.6C172,354.7,170.3,356.4,168.3,356.4z"/>
		<polygon id="_x31__00000030456489216080662170000003984561244403134597_" class="st2" points="147.5,356.4 151,359.9 153.4,357.4 
			153.4,374.5 158.7,374.5 158.7,349.3 154.4,349.3 		"/>
		<polygon id="F_00000139257442732372008740000012408062118067501750_" class="st2" points="120.6,374.5 125.9,374.5 125.9,364.2 
			137.7,364.2 137.7,359.2 125.9,359.2 125.9,354.3 138,354.3 138,349.3 120.6,349.3 		"/>
	</g>
	<g id="F1_TEAM_00000026862945393321160230000016820352795624050869_" class="st1">
		<polygon id="M_00000019679808302940638470000005609386697860958359_" class="st2" points="308.5,374.6 302.2,389.9 295.9,374.6 
			289.8,374.6 289.8,399.8 295.1,399.8 295.1,385.8 300.8,399.8 303.6,399.8 309.3,385.8 309.3,399.8 314.6,399.8 314.6,374.6 		"/>
		<path id="A_00000005228306067501272580000008515944146321905084_" class="st2" d="M263.3,374.6l-10.1,25.2h5.8l2-5.1h9.9l2,5.1
			h5.8l-10.2-25.2H263.3z M262.8,389.8l3.2-8.1l3.1,8.1H262.8z"/>
		<polygon id="E_00000023251391220504748690000006430607312877312663_" class="st2" points="225.1,399.8 242.5,399.8 242.5,394.8 
			230.4,394.8 230.4,389.4 242.2,389.4 242.2,384.4 230.4,384.4 230.4,379.5 242.5,379.5 242.5,374.6 225.1,374.6 		"/>
		<polygon id="T_00000135678490108722874050000016234862357165494411_" class="st2" points="193.2,379.5 200.4,379.5 200.4,399.8 
			205.7,399.8 205.7,379.5 212.9,379.5 212.9,374.6 193.2,374.6 		"/>
		<path id="R_00000049911947348065858240000010037456504084901781_" class="st2" d="M170.2,377c0-0.9-0.7-1.5-1.5-1.5h-2v4.8h0.6
			v-1.9h0.9l1.3,1.9h0.8l-1.3-1.9C169.3,378.5,170.2,378.1,170.2,377z M167.4,377.9v-1.8h1.3c0.5,0,0.9,0.4,0.9,0.9
			c0,0.5-0.4,0.9-0.9,0.9H167.4z"/>
		<path id="O_00000012433985314291191970000018187704065579748486_" class="st2" d="M168.3,373.8c-2.3,0-4.2,1.9-4.2,4.2
			c0,2.3,1.9,4.2,4.2,4.2c2.3,0,4.2-1.9,4.2-4.2C172.6,375.6,170.7,373.8,168.3,373.8z M168.3,381.6c-2,0-3.7-1.7-3.7-3.7
			c0-2,1.6-3.6,3.7-3.6c2,0,3.6,1.6,3.6,3.6C172,380,170.3,381.6,168.3,381.6z"/>
		<polygon id="_x31__00000085240475106436965970000011598202917305998229_" class="st2" points="147.5,381.7 151,385.2 153.4,382.6 
			153.4,399.8 158.7,399.8 158.7,374.6 154.4,374.6 		"/>
		<polygon id="F_00000096766957493228957920000013444142032262775720_" class="st2" points="120.6,399.8 125.9,399.8 125.9,389.4 
			137.8,389.4 137.8,384.4 125.9,384.4 125.9,379.5 138,379.5 138,374.6 120.6,374.6 		"/>
	</g>
	<g id="F1_TEAM_00000030455492820420800980000015656580669866159776_" class="st1">
		<polygon id="M_00000133525703304401737080000002091473446262453141_" class="st2" points="359.4,109.4 374.8,115.7 359.4,122 
			359.4,128.1 384.6,128.1 384.6,122.8 370.7,122.8 384.6,117.1 384.6,114.3 370.7,108.6 384.6,108.6 384.6,103.3 359.4,103.3 		"/>
		<path id="A_00000000188770212991530000000017871796756678874273_" class="st2" d="M359.4,154.6l25.2,10.1V159l-5.1-2v-9.9l5.1-2
			v-5.8l-25.2,10.2V154.6z M374.6,155.2l-8.1-3.2l8.1-3.1V155.2z"/>
		<polygon id="E_00000116219935794236134700000004169691513890288538_" class="st2" points="384.6,192.8 384.6,175.5 379.7,175.5 
			379.7,187.6 374.2,187.6 374.2,175.7 369.3,175.7 369.3,187.6 364.4,187.6 364.4,175.5 359.4,175.5 359.4,192.8 		"/>
		<polygon id="T_00000088121878556885558390000008440758289666443964_" class="st2" points="364.4,224.7 364.4,217.5 384.6,217.5 
			384.6,212.3 364.4,212.3 364.4,205 359.4,205 359.4,224.7 		"/>
		<path id="R_00000140727063902993624600000014810160218283175349_" class="st2" d="M361.9,247.7c-0.9,0-1.5,0.7-1.5,1.5v2h4.8v-0.6
			h-1.9v-0.9l1.9-1.3v-0.8l-1.9,1.3C363.3,248.7,362.9,247.7,361.9,247.7z M362.7,250.6h-1.8v-1.3c0-0.5,0.4-0.9,0.9-0.9
			c0.5,0,0.9,0.4,0.9,0.9V250.6z"/>
		<path id="O_00000146470351668198169700000005240300708416178837_" class="st2" d="M358.6,249.6c0,2.3,1.9,4.2,4.2,4.2
			c2.3,0,4.2-1.9,4.2-4.2c0-2.3-1.9-4.2-4.2-4.2C360.5,245.4,358.6,247.2,358.6,249.6z M366.5,249.6c0,2-1.7,3.7-3.7,3.7
			c-2,0-3.6-1.6-3.6-3.7c0-2,1.6-3.6,3.6-3.6C364.8,246,366.5,247.6,366.5,249.6z"/>
		<polygon id="_x31__00000023259636201122784330000007018967180378929086_" class="st2" points="366.5,270.4 370,267 367.4,264.5 
			384.6,264.5 384.6,259.3 359.4,259.3 359.4,263.5 		"/>
		<polygon id="F_00000022529052350503798980000015327888451093757318_" class="st2" points="384.6,297.3 384.6,292 374.2,292 
			374.2,280.2 369.3,280.2 369.3,292 364.4,292 364.4,279.9 359.4,279.9 359.4,297.3 		"/>
	</g>
	<g id="F1_TEAM_00000015344904548716525720000012319025845746932383_" class="st1">
		<polygon id="M_00000065756893032412094290000011600276219207413648_" class="st2" points="384.7,109.4 400,115.7 384.7,122 
			384.7,128.1 409.9,128.1 409.9,122.8 395.9,122.8 409.9,117.1 409.9,114.3 395.9,108.6 409.9,108.6 409.9,103.3 384.7,103.3 		"/>
		<path id="A_00000036957282139481484070000013764865440394008474_" class="st2" d="M384.7,154.6l25.2,10.1V159l-5.1-2v-9.9l5.1-2
			v-5.8l-25.2,10.2V154.6z M399.9,155.2l-8.1-3.2l8.1-3.1V155.2z"/>
		<polygon id="E_00000156566691423066144130000016599007071857363641_" class="st2" points="409.9,192.8 409.9,175.5 404.9,175.5 
			404.9,187.6 399.5,187.6 399.5,175.7 394.5,175.7 394.5,187.6 389.6,187.6 389.6,175.5 384.7,175.5 384.7,192.8 		"/>
		<polygon id="T_00000157990380550073670770000003323180750737851824_" class="st2" points="389.6,224.7 389.6,217.5 409.9,217.5 
			409.9,212.3 389.6,212.3 389.6,205 384.7,205 384.7,224.7 		"/>
		<path id="R_00000163753081744584344180000011173748570402033314_" class="st2" d="M387.1,247.7c-0.9,0-1.5,0.7-1.5,1.5v2h4.8v-0.6
			h-1.9v-0.9l1.9-1.3v-0.8l-1.9,1.3C388.6,248.7,388.2,247.7,387.1,247.7z M388,250.6h-1.8v-1.3c0-0.5,0.4-0.9,0.9-0.9
			c0.5,0,0.9,0.4,0.9,0.9V250.6z"/>
		<path id="O_00000134951145079056217970000007897866705042672027_" class="st2" d="M383.8,249.6c0,2.3,1.9,4.2,4.2,4.2
			c2.3,0,4.2-1.9,4.2-4.2c0-2.3-1.9-4.2-4.2-4.2C385.7,245.4,383.8,247.2,383.8,249.6z M391.7,249.6c0,2-1.7,3.7-3.7,3.7
			c-2,0-3.6-1.6-3.6-3.7c0-2,1.6-3.6,3.6-3.6C390.1,246,391.7,247.6,391.7,249.6z"/>
		<polygon id="_x31__00000065074093525675728840000000247040082484651942_" class="st2" points="391.8,270.4 395.3,267 392.7,264.5 
			409.9,264.5 409.9,259.3 384.7,259.3 384.7,263.5 		"/>
		<polygon id="F_00000183217383193456729310000014676143119741029794_" class="st2" points="409.9,297.3 409.9,292 399.5,292 
			399.5,280.2 394.5,280.2 394.5,292 389.6,292 389.6,279.9 384.7,279.9 384.7,297.3 		"/>
	</g>
	<g id="F1_TEAM_00000085234876597734688010000008608183693139059349_" class="st1">
		<polygon id="M_00000098925170970116517840000002343466592400195733_" class="st2" points="409.9,109.4 425.3,115.7 409.9,122 
			409.9,128.1 435.1,128.1 435.1,122.8 421.2,122.8 435.1,117.1 435.1,114.3 421.2,108.6 435.1,108.6 435.1,103.3 409.9,103.3 		"/>
		<path id="A_00000049222518387931009230000015115730971922393755_" class="st2" d="M409.9,154.6l25.2,10.1V159l-5.1-2v-9.9l5.1-2
			v-5.8l-25.2,10.2V154.6z M425.1,155.2L417,152l8.1-3.1V155.2z"/>
		<polygon id="E_00000054980192065772582760000003195475668397463449_" class="st2" points="435.1,192.8 435.1,175.5 430.2,175.5 
			430.2,187.6 424.8,187.6 424.8,175.7 419.8,175.7 419.8,187.6 414.9,187.6 414.9,175.5 409.9,175.5 409.9,192.8 		"/>
		<polygon id="T_00000051378495645160999140000000481868575431922618_" class="st2" points="414.9,224.7 414.9,217.5 435.1,217.5 
			435.1,212.2 414.9,212.2 414.9,205 409.9,205 409.9,224.7 		"/>
		<path id="R_00000145740947997231072020000001628372797750532760_" class="st2" d="M412.4,247.7c-0.9,0-1.5,0.7-1.5,1.5v2h4.8v-0.6
			h-1.9v-0.9l1.9-1.3v-0.8l-1.9,1.3C413.8,248.6,413.4,247.7,412.4,247.7z M413.3,250.6h-1.8v-1.3c0-0.5,0.4-0.9,0.9-0.9
			c0.5,0,0.9,0.4,0.9,0.9V250.6z"/>
		<path id="O_00000003088482615340099120000004446776194057650327_" class="st2" d="M409.1,249.6c0,2.3,1.9,4.2,4.2,4.2
			c2.3,0,4.2-1.9,4.2-4.2c0-2.3-1.9-4.2-4.2-4.2C411,245.4,409.1,247.2,409.1,249.6z M417,249.6c0,2-1.7,3.7-3.7,3.7
			c-2,0-3.6-1.6-3.6-3.7c0-2,1.6-3.6,3.6-3.6C415.3,245.9,417,247.6,417,249.6z"/>
		<polygon id="_x31__00000034080482067431439300000016755846481608257445_" class="st2" points="417,270.4 420.5,266.9 418,264.5 
			435.1,264.5 435.1,259.2 409.9,259.2 409.9,263.5 		"/>
		<polygon id="F_00000092451463088208616000000008296906609297025172_" class="st2" points="435.1,297.3 435.1,292 424.8,292 
			424.8,280.2 419.8,280.2 419.8,292 414.9,292 414.9,279.9 409.9,279.9 409.9,297.3 		"/>
	</g>
	
		<rect id="Canvas_00000164493123409817948000000008894116541051005838_" x="75.9" y="76" class="st3" width="283.5" height="247.8"/>
	<rect id="Canvas" class="st3" width="435.2" height="399.8"/>
</g>
<g id="Logo">
	<g id="Stake_F1_Team_KICK_Sauber_Vertical">
		<g id="KICK_Sauber_00000016061959959250283080000015714546392087207043_">
			<g id="Sauber_00000152266360329660096500000007592601504331740345_">
				<path id="R_00000182517842366436410070000006349317791932061102_" d="M346.3,292.2c3.3,0,5.7,0.7,7.3,2.1
					c1.6,1.4,2.3,3.6,2.3,6.6c0,3-0.7,5.5-2,7.5c-1.3,2-3,3.4-5,4.2l2.5,10.7h-6.3l-2.1-9.9h-4.3l-2.3,9.9h-6.3l7.2-31.1H346.3z
					 M347.9,306c1-1.3,1.4-2.8,1.4-4.3c0-1.6-0.3-2.7-0.8-3.2c-0.5-0.6-1.4-0.9-2.7-0.9h-3.5l-2.4,10.4h4.1
					C345.7,308,347,307.3,347.9,306z"/>
				<path id="E_00000007402221225960127950000009626701234963292039_" d="M308.6,323.2l7.1-31.1H334l-1.3,5.5h-11.9l-1.7,7.3h9.4
					l-1.3,5.5h-9.4l-1.7,7.3h11.9l-1.2,5.5H308.6z"/>
				<path id="B" d="M301.8,292.2c5.4,0,8.1,2.2,8.1,6.7c0,2-0.4,3.6-1.3,4.9c-0.9,1.3-2.1,2.4-3.8,3.5c1.2,0.7,2,1.5,2.4,2.3
					c0.4,0.8,0.6,1.9,0.6,3.1c0,3-1.1,5.6-3.2,7.6c-2.1,2-5.1,3-9.1,3h-11.7l7.2-31.1H301.8z M298.3,310.2h-5.2l-1.8,7.6h5.4
					c1.4,0,2.5-0.5,3.3-1.4c0.8-0.9,1.2-2.2,1.2-3.7C301.3,311.1,300.3,310.2,298.3,310.2z M300.8,297.5h-4.7l-1.7,7.4h4.7
					c1.2,0,2.3-0.5,3.2-1.3s1.3-2.1,1.3-3.5C303.5,298.4,302.6,297.5,300.8,297.5z"/>
				<path id="U" d="M266.4,312.7c-0.3,1.2-0.4,2.2-0.4,3.1s0.3,1.6,0.9,1.9c0.6,0.4,1.7,0.5,3.3,0.5c1.6,0,2.8-0.4,3.5-1.3
					c0.8-0.8,1.4-2.3,1.9-4.4l4.8-20.5h6.3l-4.8,20.5c-0.9,3.9-2.3,6.7-4.3,8.5c-2,1.8-4.6,2.6-7.9,2.6c-6.6,0-10-2.4-10-7
					c0-1.6,0.2-3.3,0.6-5.1l4.5-19.5h6.3L266.4,312.7z"/>
				<path id="A_00000065753493443151451080000012983360404424276359_" d="M232.8,323.2l14-31.1h10.9l-1,31.1h-6.3l0.2-5.4h-9.1
					l-2.4,5.4H232.8z M250.5,297.6l-6.6,14.7h6.9l0.6-14.7H250.5z"/>
				<path id="S" d="M228.1,297c-1.3,0-2.4,0.4-3.2,1.1c-0.8,0.7-1.2,1.6-1.2,2.7c0,1,0.2,1.8,0.7,2.3c0.5,0.5,1.8,1.2,4,2.2
					c2.2,1,3.7,2,4.5,3.1c0.8,1.1,1.2,2.7,1.2,4.7c0,3.4-1.1,6.1-3.2,8c-2.1,1.9-5,2.8-8.6,2.8c-1.4,0-2.9-0.2-4.5-0.5
					c-1.6-0.3-2.8-0.6-3.7-0.9l-1.3-0.5l1-4.5c3.4,0.6,6.2,0.9,8.1,0.9c2,0,3.4-0.3,4.3-1c0.9-0.7,1.4-1.9,1.4-3.5
					c0-0.9-0.3-1.6-0.8-2c-0.5-0.5-1.8-1.2-3.9-2.1s-3.6-2-4.4-3.1c-0.9-1.1-1.3-2.7-1.3-4.7c0-3,1-5.4,2.9-7.3
					c1.9-1.9,4.5-2.9,7.7-2.9c1.5,0,3,0.1,4.6,0.4c1.6,0.3,2.8,0.6,3.7,0.8l1.3,0.5l-1.1,4.5C233,297.3,230.2,297,228.1,297z"/>
			</g>
			<rect id="Divider_Line" x="194.8" y="292" width="2.3" height="31.3"/>
			<path id="KICK" class="st4" d="M79.3,292h10.4v6.9h3.5v-3.5h3.5V292h10.4v10.4h-3.5v3.5h-3.5v3.5h3.5v3.5h3.5v10.4H96.7v-3.5
				h-3.5v-3.5h-3.5v6.9H79.3V292z M148.8,292h10.4v6.9h3.5v-3.5h3.5V292h10.4v10.4h-3.5v3.5h-3.5v3.5h3.5v3.5h3.5v10.4h-10.4v-3.5
				h-3.5v-3.5h-3.5v6.9h-10.4V292z M110.6,292H121v31.3h-10.4V292z M134.9,292H128v3.5h-3.5v24.3h3.5v3.5h6.9h10.4v-10.4h-10.4
				v-10.4h10.4V292H134.9z"/>
		</g>
		<g id="F1_TEAM">
			<polygon id="M" points="308.5,238.1 302.2,253.4 295.9,238.1 289.8,238.1 289.8,263.3 295.1,263.3 295.1,249.4 300.8,263.3 
				303.6,263.3 309.3,249.3 309.3,263.3 314.6,263.3 314.6,238.1 			"/>
			<path id="A" d="M263.3,238.1l-10.1,25.2h5.8l2-5.1h9.9l2,5.1h5.8l-10.2-25.2H263.3z M262.7,253.3l3.2-8.1l3.1,8.1H262.7z"/>
			<polygon id="E" points="225.1,263.3 242.4,263.3 242.4,258.4 230.3,258.4 230.3,252.9 242.2,252.9 242.2,248 230.3,248 
				230.3,243.1 242.4,243.1 242.4,238.1 225.1,238.1 			"/>
			<polygon id="T" points="193.2,243.1 200.4,243.1 200.4,263.3 205.7,263.3 205.7,243.1 212.9,243.1 212.9,238.1 193.2,238.1 			
				"/>
			<path id="R" d="M170.2,240.6c0-0.9-0.7-1.5-1.5-1.5h-2v4.8h0.6V242h0.9l1.3,1.9h0.8L169,242C169.3,242,170.2,241.6,170.2,240.6z
				 M167.3,241.4v-1.8h1.3c0.5,0,0.9,0.4,0.9,0.9c0,0.5-0.4,0.9-0.9,0.9H167.3z"/>
			<path id="O" d="M168.3,237.3c-2.3,0-4.2,1.9-4.2,4.2c0,2.3,1.9,4.2,4.2,4.2c2.3,0,4.2-1.9,4.2-4.2
				C172.5,239.1,170.7,237.3,168.3,237.3z M168.3,245.1c-2,0-3.7-1.7-3.7-3.7c0-2,1.6-3.6,3.7-3.6c2,0,3.6,1.6,3.6,3.6
				C172,243.5,170.3,245.1,168.3,245.1z"/>
			<polygon id="_x31_" points="147.5,245.2 151,248.7 153.4,246.1 153.4,263.3 158.7,263.3 158.7,238.1 154.4,238.1 			"/>
			<polygon id="F" points="120.6,263.3 125.9,263.3 125.9,252.9 137.7,252.9 137.7,248 125.9,248 125.9,243.1 138,243.1 138,238.1 
				120.6,238.1 			"/>
		</g>
		<g id="Stake_00000111180755644211279080000000758981676930152893_">
			<path class="st4" d="M129.7,76c17.4,0.1,35,7.9,34.9,24.8c-0.1,14.7-8.8,20.4-17.6,20.4c-8.9,0-9.4-4.6-9.4-4.6s10.4-7.7,10.5-15
				c0-3.8-2.7-14.3-18.8-14.4c-22.3-0.1-34.5,10.3-34.6,29.3c-0.1,21.8,64.7,29.7,64.6,57.8c-0.1,30.1-31.6,43.4-59.4,43.3
				c-14.5-0.1-24.1-8.7-24-22.3c0.1-16,7.8-32.3,26.9-32.2c7.4,0,8.5,6.4,8.5,7.9c0,0-19.2,5.2-19.2,24.4c0,3.5,3.6,10,12.6,10
				s35.6-6.1,35.7-29.8c0.1-21.8-64.2-25.4-64-59.5C76.4,77.7,115.1,75.9,129.7,76z M280.1,98.5c2.3-1.1,16.5-3.7,15.9,7.6
				c-0.6,11.4-9.4,31.1-10.7,39.7c11.7-5.8,28.2-25.6,28.2-25.6s11.6,1.7,7.9,8.7c-3.7,7-27.3,24.3-27.3,24.3s4.9,50.7,35.6,50.9
				c16.9,0.1,24.1-7.2,27.3-9.8c0.8-0.7,1.4-0.8,1.7-0.3c0.6,1.6,1.4,6.8-2.5,11.1c-3.4,3.7-11.4,8.1-27,8
				c-27.9-0.1-43.3-22.7-47.1-56c-3.2,9.7-3,25.5-3.6,33.3c-0.9,1.5-16.8,7.6-17.9-3.1c-0.1-0.7-0.1-1.6,0-2.6
				c-3,4.1-7,8.4-10.8,8.4c-6.8,0-9.7-5.8-11-8.8c-0.9,1-8.5,8.7-18.2,8.6c-4.3,0-10.7-1.9-13.3-8.8c-4.9,3.6-13.7,8.6-23.8,8.6
				c-10.8-0.1-13.3-6.5-13.3-12.1c0-8.6,6.7-34.4,6.7-34.4s-12.6,5.1-17,5c-6,0-8.8-11.3-8.8-11.5c0-0.2,0.1-0.4,0.4-0.5
				c3.5-1.3,29.2-9.9,29.2-9.9s4.9-18.9,5.7-21.3c0.7-2.4,4.2-7.6,8.4-9c2.8-1,7.1-2.2,9.5-2.2c1,0,1.8,0.3,1.8,0.9
				c0,0.6-6.6,28.1-6.6,28.1s13.3-3,18.3-3c3.8,0,5.8,2.3,3.7,5.3c-2.1,3-4.6,6.3-5.9,7.9c-1.3,1.6-2.3,1.8-5.6,2.5
				c-4.4,0.8-14.5,3.3-14.5,3.3s-8.2,29.1-8.2,34c0,2.8,0.8,6,4.3,6.1c3.3,0,9.9-3.8,14.6-6.9c1-22.8,18.7-37.7,32.5-37.6
				c4.5,0,2.8,4.3,7.8,4.3c0.4,0,2.8,0,3.2,0c2,0,4.2,0.3,4.2,5.3c0,7.1-4.2,18.9-4.2,26.2c0,5.3,0.7,9,2.7,9c3.4,0,7.3-4.9,10-9.1
				C267.2,148.5,280.1,103.5,280.1,98.5z M342.1,138.2c9.4-0.7,15.3,4.4,16.3,7.3c1,2.8,0.9,9.3-1.8,13.9
				c-8.3,14.6-28.6,11.8-28.6,11.8s-2.5,11.6,8.1,11.7c9,0,13-4.3,16.9-8c1.5-0.1,6.3,5.1,4,8.4c-1.7,2.6-11.2,10.5-23.3,10.4
				c-19.1-0.1-23.8-16.6-21.2-28.2C315.8,151,330.5,139,342.1,138.2z M240.7,147.4c-11.4-0.1-29.3,34.6-15.8,34.7
				c14.7,0.1,15.8-27.7,15.8-34L240.7,147.4z M347,145c-7.8,0.2-16.6,14.9-17.4,21.5c11.7,0.5,17.9-10.7,18.6-15.2
				C348.7,148,348.9,144.9,347,145z"/>
		</g>
	</g>
</g>
</svg>
