<svg xmlns="http://www.w3.org/2000/svg" width="80" height="81" viewBox="0 0 80 81" fill="none"><g clip-path="url(#clip0_6444_46465)"><path d="M40.1714 24.8154C29.7476 24.8154 13.6394 24.8728 0 25.2008V25.2746C13.6318 25.6026 30.4562 25.66 40.8496 25.66C44.69 25.66 64.1814 25.6518 80 25.2746V25.2008C69.1037 24.9384 54.9538 24.8154 40.1638 24.8154" fill="#121212"></path><path d="M34.4724 52.7832H34.0914L31.7979 58.3341H32.6741C32.7656 58.0061 32.8646 57.629 33.177 56.7844H35.0515C35.2801 57.3912 35.4553 57.9323 35.5925 58.3341H36.6897L34.4724 52.7832ZM34.1143 54.3903C34.6705 55.7677 34.6781 55.7759 34.8077 56.1367H33.4285C33.5733 55.7759 33.5733 55.7677 34.1143 54.3903Z" fill="#121212"></path><path d="M69.4695 52.7832H69.0885L66.7949 58.3341H67.6712C67.7626 58.0061 67.8617 57.629 68.1741 56.7844H70.0486C70.2772 57.3912 70.4524 57.9323 70.5896 58.3341H71.6868L69.4695 52.7832ZM69.1113 54.3903C69.6676 55.7677 69.6752 55.7759 69.8047 56.1367H68.4256C68.5703 55.7759 68.5703 55.7677 69.1113 54.3903Z" fill="#121212"></path><path d="M21.2977 58.3252C21.1682 56.6033 21.0691 55.5702 21.0006 54.8815C20.1319 56.5623 19.7585 57.374 19.408 58.2432H19.1185C18.2422 56.3163 18.1508 56.136 17.9527 55.726C17.8688 55.5538 17.7698 55.357 17.5564 54.9143C17.5183 55.2586 17.3583 56.7755 17.2593 58.3252H16.4668C16.7182 56.3737 17.1145 53.0776 17.1373 52.8891H17.6098C17.6783 53.0448 17.7469 53.1924 17.8155 53.3318C18.3946 54.5781 18.8518 55.562 19.408 56.5787V56.5951L19.4233 56.5787C19.6747 56.0868 19.9033 55.6276 20.1167 55.1766C20.4596 54.4879 20.8101 53.7746 21.2749 52.8809H21.694C21.7092 53.053 21.9988 55.7424 22.2959 58.317H21.3054L21.2977 58.3252Z" fill="#121212"></path><path d="M76.8837 58.3252C76.7541 56.6033 76.6551 55.5702 76.5865 54.8815C75.7179 56.5623 75.3445 57.374 74.994 58.2432H74.7044C73.8281 56.3163 73.7367 56.136 73.5386 55.726C73.4548 55.5538 73.3557 55.357 73.1424 54.9143C73.1043 55.2586 72.9442 56.7755 72.8452 58.3252H72.0527C72.3042 56.3737 72.7004 53.0776 72.7233 52.8891H73.1957C73.2643 53.0448 73.3329 53.1924 73.4014 53.3318C73.9805 54.5781 74.4377 55.562 74.994 56.5787V56.5951L75.0092 56.5787C75.2607 56.0868 75.4893 55.6276 75.7026 55.1766C76.0455 54.4879 76.396 53.7746 76.8608 52.8809H77.2799C77.2951 53.053 77.5847 55.7424 77.8819 58.317H76.8913L76.8837 58.3252Z" fill="#121212"></path><path d="M8.41222 58.514C7.36069 58.514 6.73587 57.9155 6.59109 57.7597C6.16438 57.3252 5.79102 56.62 5.79102 55.6115C5.79102 54.603 6.16438 53.8979 6.59109 53.4633C6.74349 53.3075 7.36069 52.709 8.41222 52.709C9.05228 52.709 10.2791 52.996 10.8201 54.3734C10.9648 54.7424 11.041 55.1606 11.041 55.6115C11.041 56.62 10.6677 57.3252 10.241 57.7597C10.0886 57.9155 9.47137 58.514 8.41984 58.514M8.41984 57.8663C9.20467 57.8663 9.99713 57.0874 9.99713 55.6115C9.99713 54.1357 9.20467 53.3567 8.41984 53.3567C7.635 53.3567 6.84254 54.1357 6.84254 55.6115C6.84254 57.0874 7.635 57.8663 8.41984 57.8663Z" fill="#121212"></path><path d="M41.7872 58.514C40.7357 58.514 40.1109 57.9155 39.9661 57.7597C39.5394 57.3252 39.166 56.62 39.166 55.6115C39.166 54.603 39.5394 53.8979 39.9661 53.4633C40.1185 53.3075 40.7357 52.709 41.7872 52.709C42.4273 52.709 43.6541 52.996 44.1951 54.3734C44.3398 54.7424 44.416 55.1606 44.416 55.6115C44.416 56.62 44.0427 57.3252 43.616 57.7597C43.4636 57.9155 42.8464 58.514 41.7948 58.514M41.7948 57.8663C42.5797 57.8663 43.3721 57.0874 43.3721 55.6115C43.3721 54.1357 42.5797 53.3567 41.7948 53.3567C41.01 53.3567 40.2175 54.1357 40.2175 55.6115C40.2175 57.0874 41.01 57.8663 41.7948 57.8663Z" fill="#121212"></path><path d="M11.933 52.8814C12.2073 52.865 13.3579 52.8486 13.3655 52.8486C14.2342 52.8486 14.5695 53.029 14.859 53.3488C15.1333 53.644 15.2781 54.0293 15.2629 54.4311C15.2552 54.8165 15.1028 55.1854 14.8514 55.456C14.5847 55.743 14.257 55.8742 14.1351 55.9233L16.0325 58.3257H14.8742L13.1598 56.0545H12.8474V58.3257H11.9102V52.8814H11.933ZM13.2512 53.4472C13.1369 53.4472 13.0074 53.4554 12.8779 53.48H12.8702V55.3986C13.0074 55.4232 13.1369 55.4396 13.2589 55.4396C14.0132 55.4396 14.3637 54.9148 14.3637 54.4311C14.3637 54.3655 14.3561 54.0211 14.1047 53.7587C13.9142 53.5538 13.6246 53.4472 13.2512 53.4472Z" fill="#121212"></path><path d="M28.5742 58.3257V52.8896H29.5115V57.6042H31.5993V58.3257H28.5742Z" fill="#121212"></path><path d="M54.6876 53.1028H54.3066V52.8896H55.3277V53.1028H54.9391V54.3081H54.6876V53.1028Z" fill="#121212"></path><path d="M56.6686 53.7254C56.6609 53.545 56.6533 53.3236 56.6533 53.1268C56.6076 53.299 56.5543 53.4876 56.4933 53.668L56.2952 54.2829H56.0971L55.9142 53.6762C55.8609 53.4958 55.8151 53.299 55.777 53.1268C55.777 53.3154 55.7618 53.5368 55.7542 53.7336L55.7237 54.2993H55.4951L55.5866 52.8809H55.9142L56.0895 53.4466C56.1352 53.6106 56.1809 53.7828 56.2114 53.9386C56.2495 53.7828 56.2952 53.6106 56.3485 53.4466L56.539 52.8809H56.8667L56.9429 54.2993H56.699L56.6762 53.7254H56.6686Z" fill="#121212"></path><path d="M49.2005 58.3257C48.9872 58.0388 47.4785 56.2513 46.046 54.5295V58.3257H45.3145V52.8896H45.8326L48.9415 56.5137V52.8896H49.6653V58.3257H49.2005Z" fill="#121212"></path><path d="M60.2498 58.3257V53.6276C59.4573 53.6358 58.9696 53.7014 58.6572 53.7342V52.8896H62.7186V53.7342C62.4824 53.7014 62.0252 53.6358 61.1946 53.6276V58.3257H60.2574H60.2498Z" fill="#121212"></path><path d="M51.7312 57.604V55.8494H53.5371V55.1852H51.7312V53.5782C52.1503 53.5782 52.7598 53.5782 53.7885 53.6438V52.873H50.7939V58.3091H53.8723V57.5138C53.1942 57.5548 52.4093 57.5958 51.7312 57.5958" fill="#121212"></path><path d="M64.3113 57.604V55.8494H66.1171V55.1852H64.3113V53.5782C64.7303 53.5782 65.3399 53.5782 66.3686 53.6438V52.873H63.374V58.3091H66.4524V57.5138C65.7743 57.5548 64.9894 57.5958 64.3113 57.5958" fill="#121212"></path><path d="M26.6236 52.8896C26.6541 54.9805 26.6389 55.8086 26.6389 55.8086C26.6389 56.4891 26.6008 57.7108 25.3816 57.7108C24.9473 57.7108 24.0863 57.637 24.0863 56.0874C24.0863 54.6853 24.1167 52.9552 24.1167 52.8978H23.1338C23.1338 52.9634 23.1338 54.5541 23.1338 56.0874C23.1338 58.3175 24.8025 58.4077 25.214 58.4077C26.4103 58.4077 27.3475 57.8174 27.3704 56.0382V52.8896H26.6236Z" fill="#121212"></path><path d="M5.19675 53.6598V52.8809H2.12598V58.317H3.06321V55.9802H4.96815V55.2668H3.06321V53.5778C4.00806 53.5778 4.55668 53.6106 5.19675 53.6516" fill="#121212"></path><path d="M79.7254 31.3661C79.7254 31.9564 79.2758 32.432 78.7272 32.432C78.1786 32.432 77.7366 31.9482 77.7366 31.3661C77.7366 30.7839 78.1862 30.3002 78.7272 30.3002C79.2682 30.3002 79.7254 30.7839 79.7254 31.3661ZM79.5882 31.3661C79.5882 30.8577 79.1996 30.4396 78.7272 30.4396C78.2548 30.4396 77.8738 30.8577 77.8738 31.3661C77.8738 31.8744 78.2548 32.2926 78.7272 32.2926C79.1996 32.2926 79.5882 31.8744 79.5882 31.3661ZM78.9101 31.4563L79.2072 31.9482H78.9786L78.7043 31.4727H78.5519V31.9482H78.3614V30.7675H78.7729C78.9558 30.7675 79.1158 30.9233 79.1158 31.1201C79.1158 31.2841 79.0396 31.4071 78.9101 31.4563ZM78.5519 31.3005H78.7577C78.8491 31.3005 78.9253 31.2267 78.9253 31.1283C78.9253 31.0299 78.8567 30.9643 78.7577 30.9643H78.5519V31.3005ZM42.4723 33.7685H43.9658V43.4108H42.4723V33.7685ZM37.0013 33.5553C36.0107 33.5553 35.0964 33.9325 34.3877 34.5638V33.7685H32.8942V43.4108H34.3877V37.9747C34.3877 36.4168 35.5612 35.1623 37.0013 35.1623C38.4414 35.1623 39.6149 36.425 39.6149 37.9747V43.4108H41.1084V37.9747C41.1084 35.5313 39.272 33.5553 37.0013 33.5553ZM29.9073 33.7685H31.4008V43.05C31.4008 45.8296 29.1453 48.0843 26.7222 48.0843C24.4896 48.0843 22.8514 46.6167 22.2723 44.5997H23.88C24.3753 45.7148 25.343 46.4773 26.7298 46.4773C28.3224 46.4773 29.9149 44.944 29.9149 43.05V42.2711C29.0843 43.1074 27.9642 43.6158 26.7298 43.6158C24.1467 43.6158 22.0513 41.361 22.0513 38.5814C22.0513 35.8019 24.1467 33.5471 26.7298 33.5471C27.9566 33.5471 29.0767 34.0554 29.9149 34.8918V33.7603L29.9073 33.7685ZM29.9073 38.5896C29.9073 36.6956 28.4824 35.1623 26.7222 35.1623C24.9621 35.1623 23.5372 36.6956 23.5372 38.5896C23.5372 40.4836 24.9621 42.0169 26.7222 42.0169C28.4824 42.0169 29.9073 40.4836 29.9073 38.5896ZM6.78889 35.1623C8.06139 35.1623 9.16626 35.9741 9.67679 37.1384H11.2693C10.6902 35.0639 8.90719 33.5553 6.78889 33.5553C4.20579 33.5553 2.11035 35.8101 2.11035 38.5896C2.11035 41.3692 4.20579 43.624 6.78889 43.624C8.89957 43.624 10.6902 42.1153 11.2693 40.0409H9.67679C9.16626 41.2052 8.06901 42.0169 6.78889 42.0169C5.02872 42.0169 3.60383 40.4836 3.60383 38.5896C3.60383 36.6956 5.02872 35.1623 6.78889 35.1623ZM21.3274 38.5896C21.3274 41.3692 19.232 43.624 16.6489 43.624C14.0658 43.624 11.9703 41.3692 11.9703 38.5896C11.9703 35.8101 14.0658 33.5553 16.6489 33.5553C19.232 33.5553 21.3274 35.8101 21.3274 38.5896ZM19.8339 38.5896C19.8339 36.6956 18.409 35.1623 16.6489 35.1623C14.8887 35.1623 13.4638 36.6956 13.4638 38.5896C13.4638 40.4836 14.8887 42.0169 16.6489 42.0169C18.409 42.0169 19.8339 40.4836 19.8339 38.5896ZM68.6919 33.5553C67.7014 33.5553 66.787 33.9325 66.0784 34.5638V33.7685H64.5849V43.4108H66.0784V37.9747C66.0784 36.4168 67.2518 35.1623 68.6919 35.1623C70.1321 35.1623 71.3055 36.425 71.3055 37.9747V43.4108H72.799V37.9747C72.799 35.5313 70.9626 33.5553 68.6919 33.5553ZM61.5979 33.7767H63.0914V43.419H61.5979V42.2793C60.7674 43.1156 59.6473 43.624 58.4129 43.624C55.8298 43.624 53.7343 41.3692 53.7343 38.5896C53.7343 35.8101 55.8298 33.5553 58.4129 33.5553C59.6396 33.5553 60.7597 34.0718 61.5979 34.9V33.7685V33.7767ZM61.5979 38.5896C61.5979 36.6956 60.173 35.1623 58.4129 35.1623C56.6527 35.1623 55.2278 36.6956 55.2278 38.5896C55.2278 40.4836 56.6527 42.0169 58.4129 42.0169C60.173 42.0169 61.5979 40.4836 61.5979 38.5896ZM77.7976 35.3755V33.7685H75.5574V31.1365H74.0639V40.1967C74.0639 41.9677 75.3973 43.4108 77.0508 43.4108H77.7976V41.8037H77.0508C76.2279 41.8037 75.5574 41.0822 75.5574 40.1967V35.3755H77.7976ZM43.219 30.292C42.6704 30.292 42.2285 30.7675 42.2285 31.3579C42.2285 31.9482 42.6704 32.4238 43.219 32.4238C43.7677 32.4238 44.2096 31.9482 44.2096 31.3579C44.2096 30.7675 43.7677 30.292 43.219 30.292ZM52.9419 33.7685H45.4745V35.3755H51.0064L45.4745 41.8037V43.4108H52.9419V41.8037H47.4099L52.9419 35.3755V33.7685Z" fill="#121212"></path><path d="M71.847 67.4756C68.4943 67.4756 65.7588 70.4191 65.7588 74.0268C65.7588 77.6345 68.4943 80.578 71.847 80.578C75.1997 80.578 77.8971 77.6345 77.8971 74.0268C77.8971 70.4191 75.1921 67.4756 71.847 67.4756ZM71.847 77.5935C70.003 77.5935 68.5324 75.9782 68.5324 74.0268C68.5324 72.0754 70.003 70.4929 71.847 70.4929C73.691 70.4929 75.1311 72.0754 75.1311 74.0268C75.1311 75.9782 73.6605 77.5935 71.847 77.5935Z" fill="#121212"></path><path d="M49.5523 67.3281C48.2188 67.3281 46.8473 67.6233 45.7576 68.0988C44.8661 67.5495 44.0127 67.3281 42.7783 67.3281C41.2391 67.3281 39.6694 67.5495 37.955 68.1726L37.6426 68.2792V80.3157H40.6829V70.452C41.3001 70.2307 41.7801 70.1569 42.3973 70.1569C43.8984 70.1569 44.348 70.6734 44.348 72.3625V80.3157H47.4264V72.1493C47.4264 71.4113 47.3959 70.9358 47.2892 70.493C47.9064 70.2716 48.3865 70.1569 48.9275 70.1569C50.3676 70.1569 51.0153 70.8538 51.0153 72.3625V80.3157H54.0632V72.1083C54.0632 70.493 53.8194 69.5337 53.1412 68.722C52.3868 67.8365 51.122 67.3281 49.5523 67.3281Z" fill="#121212"></path><path d="M61.7591 77.7328C59.7323 77.7328 58.5665 76.3799 58.5665 74.0103C58.5665 71.6407 59.7399 70.1977 61.7896 70.1977C62.2163 70.1977 62.5745 70.2469 62.9174 70.3535C62.9174 70.3535 63.5498 70.542 64.0984 71.0094L65.3862 68.6316C64.6851 68.0003 63.8546 67.7297 63.5803 67.6477C62.7878 67.3935 61.6296 67.3525 61.6296 67.3525C57.9721 67.3525 55.5186 70.0829 55.5186 74.1415C55.5186 78.2001 57.8502 80.5697 61.462 80.5697C61.462 80.5697 63.8774 80.6845 65.5081 79.0611L63.9917 76.962C63.1688 77.5278 62.5973 77.7164 61.7744 77.7164" fill="#121212"></path><path d="M22.0744 67.4428C17.7312 67.4428 15.7119 69.5008 15.7119 73.8874V80.3238H18.8208V73.8464C18.8208 71.6408 19.9866 70.2797 21.8001 70.2797C22.5545 70.2797 23.1336 70.4273 23.545 70.5339L24.2613 67.6231C23.0574 67.4346 22.0744 67.4346 22.0744 67.4346" fill="#121212"></path><path d="M35.8743 73.5186V80.324H31.6987C28.826 80.324 27.5612 80.1026 26.0524 79.0367C24.7495 78.0774 24.0332 76.2735 24.0332 73.9203C24.0332 70.6816 26.0143 67.4102 30.3957 67.4102C33.9541 67.4102 35.8667 69.542 35.8667 73.5186M32.8188 73.8876C32.8188 71.4196 31.9273 70.2061 30.1519 70.2061C28.3765 70.2061 27.1725 71.641 27.1725 73.8138C27.1725 76.4293 28.3308 77.569 30.9367 77.569H32.8188V73.8876Z" fill="#121212"></path><path d="M14.0208 73.5108V80.3161H9.88327C7.01061 80.3161 5.74573 80.0948 4.23701 79.0289C2.93403 78.0696 2.21777 76.2657 2.21777 73.9125C2.21777 70.6738 4.19891 67.4023 8.58028 67.4023C12.1387 67.4023 14.0208 69.5341 14.0208 73.5108ZM10.8738 73.8797C10.8738 71.379 10.0509 70.1983 8.2374 70.1983C6.42389 70.1983 5.25806 71.6331 5.25806 73.8059C5.25806 76.4215 6.42389 77.5612 9.02223 77.5612H10.8738V73.8797Z" fill="#121212"></path><path d="M25.5345 6.99769H26.4031L25.9688 5.7842L25.5345 6.99769ZM24.6277 8.18658L25.8926 4.94788H26.2203L27.4852 8.18658H26.8222L26.5327 7.37486H25.3973L25.1002 8.18658H24.6201H24.6277ZM27.668 8.03899L27.6147 7.45685C27.9042 7.71922 28.209 7.85041 28.5291 7.85041C28.7119 7.85041 28.8491 7.80941 28.9405 7.73562C29.1158 7.58804 29.1158 7.32566 28.9862 7.16167C28.8796 7.02229 28.6891 6.9321 28.2319 6.70252C27.828 6.49754 27.6223 6.18597 27.6223 5.7924C27.6223 5.51363 27.7137 5.29225 27.889 5.12826C28.2776 4.7675 28.9177 4.90688 28.9862 4.91508C29.1082 4.93968 29.2301 4.98068 29.3444 5.02987L29.3977 5.58742C29.2606 5.48083 29.131 5.40704 29.0091 5.35784C28.5976 5.19386 28.1557 5.30045 28.1557 5.68581C28.1557 5.87439 28.27 5.99738 28.4986 6.12857C29.0243 6.41554 29.2758 6.53033 29.4663 6.78451C29.6949 7.09608 29.7101 7.71102 29.3368 8.0226C29.1463 8.18658 28.8719 8.26857 28.5291 8.26857C28.0795 8.26857 27.7747 8.12099 27.6604 8.04719L27.668 8.03899ZM30.5331 8.18658V5.34144C30.2892 5.34144 30.0225 5.36604 29.6339 5.41524L29.6644 4.93968H31.9808L32.0113 5.41524C31.5084 5.34964 31.2417 5.34144 31.1045 5.34144V8.18658H30.5331ZM33.5429 7.86681C34.0077 7.86681 34.4344 7.46505 34.4344 6.57133C34.4344 6.49754 34.4496 5.776 34.0153 5.43164C33.8781 5.32504 33.7257 5.27585 33.5429 5.27585C32.918 5.27585 32.6514 5.89899 32.6514 6.57133C32.6514 7.45685 33.0781 7.86681 33.5429 7.86681ZM33.5429 8.26037C32.6437 8.26037 32.0265 7.55524 32.0265 6.57133C32.0265 5.58742 32.6514 4.88229 33.5429 4.88229C34.4344 4.88229 35.0592 5.57102 35.0592 6.57133C35.0592 7.57164 34.442 8.26037 33.5429 8.26037ZM35.524 8.18658V4.94788H35.8364L37.6347 7.14528V4.94788H38.0614V8.18658H37.7414L35.9431 5.98098V8.18658H35.5164H35.524ZM39.6692 8.18658L40.0044 4.94788H40.3092L41.3836 7.21087L42.4199 4.94788H42.7247L43.06 8.18658H42.4504L42.2751 6.18597L41.4293 8.05539H41.1474L40.294 6.21056L40.1187 8.18658H39.6615H39.6692ZM44.2258 6.99769H45.0944L44.6601 5.7842L44.2258 6.99769ZM43.319 8.18658L44.5839 4.94788H44.9116L46.1765 8.18658H45.5135L45.224 7.37486H44.0886L43.7915 8.18658H43.3114H43.319ZM47.0222 6.42374C47.1061 6.44014 47.1823 6.44834 47.2661 6.44834C47.7537 6.44834 47.8757 6.14497 47.8757 5.88259C47.8757 5.48903 47.6166 5.31685 47.2356 5.31685C47.167 5.31685 47.0984 5.31685 47.0222 5.33324V6.42374ZM46.4508 8.18658V4.97248C46.6184 4.94788 46.8165 4.93148 47.1289 4.93148C47.3956 4.93148 47.6318 4.96428 47.8299 5.02987C48.1195 5.12826 48.4624 5.34964 48.4624 5.8416C48.4624 6.04658 48.4014 6.22696 48.2871 6.38275C48.1728 6.53853 48.0052 6.65332 47.7995 6.71892L48.8586 8.17838H48.1652L47.2204 6.79271H47.0299V8.17838H46.4584L46.4508 8.18658ZM49.5673 8.18658V5.34144C49.3234 5.34144 49.0567 5.36604 48.6681 5.41524L48.6986 4.93968H51.015L51.0455 5.41524C50.5502 5.34964 50.2759 5.34144 50.1387 5.34144V8.18658H49.5673ZM51.4417 4.94788H52.0132V8.18658H51.4417V4.94788ZM52.6075 8.18658V4.94788H52.92L54.7182 7.14528V4.94788H55.1449V8.18658H54.8249L53.0266 5.98098V8.18658H52.5999H52.6075Z" fill="#121212"></path><path d="M76.6171 1.16027C76.419 0.791305 76.038 0.578125 75.5655 0.578125H45.9475C45.4446 0.578125 44.6902 0.578125 43.9054 1.42265C43.6463 1.70142 43.5092 1.972 43.3796 2.21797C43.1358 2.68533 42.9605 3.0297 42.1528 3.0297H37.84C37.0323 3.0297 36.8571 2.69353 36.6133 2.21797C36.4837 1.972 36.3466 1.70142 36.0875 1.42265C35.3027 0.578125 34.5483 0.578125 34.0454 0.578125H4.43495C3.96253 0.578125 3.58154 0.791305 3.38342 1.16027C3.19293 1.52924 3.21579 2.00479 3.452 2.42295L3.98538 3.38227C4.27494 3.91522 4.6483 3.99721 4.93024 4.0546C5.18169 4.112 5.33408 4.14479 5.52458 4.50556L5.997 5.39108C6.36275 6.12081 6.79708 6.211 7.11711 6.2766C7.36094 6.32579 7.59716 6.35039 7.90957 6.96533C8.21436 7.56388 8.67917 8.4658 9.79165 8.82656C9.89833 8.85936 20.8251 12.2866 20.8403 12.2948C21.9909 12.6966 22.2957 13.1558 22.6538 13.7215C22.8672 14.0577 23.431 14.9596 24.8407 15.3696L35.3484 18.4279C36.4685 18.7558 37.1847 18.1655 37.5124 17.8539L39.4173 15.9107C39.6764 15.6401 39.844 15.5417 40.0041 15.5417C40.1641 15.5417 40.3317 15.6483 40.5908 15.9107L42.4957 17.8539C42.8234 18.1655 43.5396 18.7558 44.6597 18.4279L55.1674 15.3696C56.5694 14.9596 57.1409 14.0659 57.3543 13.7215C57.7124 13.1558 58.0096 12.6966 59.1678 12.2948C59.183 12.2948 70.1098 8.85936 70.2165 8.82656C71.3366 8.4658 71.7938 7.56388 72.0985 6.96533C72.3957 6.37499 72.6243 6.33399 72.8605 6.2848C73.1729 6.2192 73.6377 6.15361 74.0111 5.39928L74.4835 4.51376C74.6816 4.1448 74.8264 4.112 75.0779 4.0628C75.3522 4.00541 75.7332 3.92342 76.0227 3.39046L76.5561 2.43115C76.7923 2.01299 76.8152 1.53744 76.6247 1.16847L76.6171 1.16027ZM56.3866 3.77583V9.35951H23.6139V3.78403H56.3942L56.3866 3.77583ZM44.6293 17.5588C43.8216 17.5588 43.5396 16.8126 43.3339 16.2305C43.0977 15.5663 41.8023 11.1715 41.4442 9.96626H43.0596C43.9359 11.5569 45.5284 14.4102 46.2218 15.5827C46.3437 15.7877 46.6942 16.4355 47.3343 16.8372C44.8426 17.5588 44.9036 17.567 44.6293 17.567V17.5588ZM48.4544 16.4355C47.5476 16.4355 47.0752 15.6811 46.7857 15.1974C46.1913 14.1971 44.8502 11.7865 43.8368 9.96626H45.6351C46.7704 11.2617 49.163 13.9921 50.1003 15.0088C50.245 15.1646 50.5498 15.5089 50.9842 15.7713C48.8049 16.4027 48.7897 16.4355 48.4544 16.4355ZM52.1271 15.386C51.4185 15.386 50.9308 14.8858 50.5727 14.5004C49.7421 13.6067 47.7762 11.3683 46.5494 9.96626H48.5153C49.765 10.9502 52.6453 13.2296 53.773 14.0577C53.9787 14.2135 54.3902 14.484 54.8702 14.6398C52.3405 15.3778 52.3938 15.3778 52.1271 15.3778V15.386ZM56.7447 13.2869C56.417 13.8035 56.1808 14.0577 55.6322 14.0577C55.1293 14.0577 54.5807 13.7871 54.154 13.4673C53.2167 12.7786 51.0603 11.0814 49.6431 9.96626H51.9823C54.8474 11.5077 56.0513 12.1883 56.8742 12.4506C57.019 12.4998 57.1562 12.5326 57.2857 12.549C57.0723 12.7786 56.92 13.0164 56.7523 13.2787L56.7447 13.2869ZM57.6134 11.8603C56.9581 11.8603 56.1046 11.3929 53.4682 9.97446H56.0208L59.6021 10.9584C59.8459 11.024 60.0745 11.0814 60.2803 11.1305C58.2763 11.7619 57.9715 11.8603 57.6134 11.8603ZM64.6159 9.76947C62.4976 10.4336 62.1547 10.5812 61.5604 10.5812C61.1642 10.5812 60.6384 10.4992 59.7774 10.2614L56.9581 9.4825V8.4002L64.6235 9.76947H64.6159ZM66.8028 9.08074C66.1246 9.26112 65.4998 9.20373 64.5092 9.01514L56.9581 7.66227V6.80135L69.3097 8.29361L66.8104 9.08074H66.8028ZM71.4585 6.58817C71.3594 6.77675 71.268 6.95713 71.1613 7.12112C70.7346 7.75246 70.4679 7.71966 69.1421 7.55568L56.9504 6.07982V5.26809L71.0089 6.15361C71.1156 6.15361 71.3975 6.17821 71.6871 6.2028C71.6109 6.30939 71.5347 6.44058 71.4585 6.58817ZM73.8511 4.1202C73.8511 4.1202 73.592 4.61215 73.4549 4.86633C73.0434 5.57966 72.8453 5.57146 71.649 5.48127L56.9504 4.54656V3.89062H73.9806C73.9349 3.95621 73.8892 4.0382 73.8435 4.1202H73.8511ZM75.9313 2.02119L75.5427 2.70993C75.276 3.16909 75.1693 3.16909 74.2549 3.16909H43.6539C43.9816 2.76732 44.0654 2.34916 44.4159 1.972C44.995 1.34885 45.4903 1.35705 45.9475 1.35705H75.5655C75.7713 1.35705 75.9237 1.42265 75.9846 1.54564C76.0456 1.66862 76.0303 1.84901 75.9313 2.02939V2.02119ZM36.8876 17.3866C37.0171 17.1816 37.1314 16.9192 37.2914 16.4847C37.5276 15.7959 38.8763 11.2535 39.2573 9.96626H40.7508C41.1318 11.2535 42.4805 15.7959 42.7167 16.4847C42.8691 16.9274 42.991 17.1898 43.1205 17.3866C43.0748 17.3538 43.0291 17.3128 42.9834 17.2636L41.0861 15.3286C40.7889 15.0252 40.4536 14.7464 40.0041 14.7464C39.5545 14.7464 39.2192 15.0252 38.922 15.3286L37.0247 17.2636C36.979 17.3046 36.9333 17.3456 36.8876 17.3866ZM32.6662 16.8372C33.3063 16.4437 33.6568 15.7959 33.7787 15.5827C34.4721 14.4102 36.057 11.5569 36.9409 9.96626H38.5563C38.1982 11.1715 36.8952 15.5581 36.6666 16.2305C36.4609 16.8126 36.1789 17.5588 35.3712 17.5588C35.0969 17.5588 35.1579 17.5588 32.6662 16.829V16.8372ZM29.0163 15.7713C29.4583 15.5089 29.7631 15.1646 29.9002 15.0088C30.8451 13.9921 33.2377 11.2617 34.3654 9.96626H36.1637C35.1579 11.7865 33.8092 14.1971 33.2148 15.1974C32.9253 15.6811 32.4529 16.4355 31.5461 16.4355C31.2032 16.4355 31.1956 16.4109 29.0163 15.7713ZM25.1303 14.6398C25.6103 14.4758 26.0141 14.2135 26.2275 14.0577C27.3552 13.2296 30.2431 10.9502 31.4851 9.96626H33.451C32.2243 11.3683 30.2584 13.6067 29.4278 14.5004C29.0773 14.8776 28.582 15.386 27.8734 15.386C27.6067 15.386 27.66 15.386 25.1303 14.648V14.6398ZM22.7224 12.549C22.8519 12.5326 22.9891 12.4998 23.1339 12.4506C23.9568 12.1964 25.1607 11.5077 28.0258 9.96626H30.365C28.9554 11.0814 26.7914 12.7704 25.8541 13.4673C25.4198 13.7871 24.8788 14.0577 24.3759 14.0577C23.8273 14.0577 23.5911 13.8035 23.2634 13.2869C23.0958 13.0246 22.9434 12.7868 22.73 12.5572L22.7224 12.549ZM19.7202 11.1223C19.926 11.0732 20.1545 11.0158 20.3984 10.9502L23.9797 9.96626H26.5323C23.8959 11.3929 23.0424 11.8521 22.3871 11.8521C22.029 11.8521 21.7242 11.7455 19.7202 11.1223ZM23.0501 8.392V9.4743L20.2307 10.245C19.3773 10.4828 18.8516 10.5648 18.4477 10.5648C17.8458 10.5648 17.5105 10.4172 15.3922 9.75308L23.0577 8.3838L23.0501 8.392ZM10.6984 8.29361L23.0501 6.80135V7.66227L15.4989 9.01514C14.5083 9.19553 13.8759 9.26112 13.2053 9.08074L10.706 8.29361H10.6984ZM8.31342 6.19461C8.60297 6.17821 8.8849 6.15361 8.99158 6.14541L23.0501 5.25989V6.07162L10.8584 7.54748C9.53258 7.71146 9.26589 7.74426 8.83918 7.11292C8.7325 6.94894 8.64107 6.76855 8.54201 6.57997C8.46581 6.43238 8.38961 6.3012 8.31342 6.19461ZM6.01224 3.88242H23.0424V4.53836L8.3439 5.47307C7.15521 5.56326 6.94948 5.57146 6.53801 4.85813C6.40847 4.60395 6.1494 4.1202 6.14178 4.112C6.09606 4.03001 6.05034 3.94801 6.00462 3.88242H6.01224ZM4.00824 1.53744C4.0692 1.41445 4.2216 1.34885 4.42733 1.34885H34.0454C34.5026 1.34885 34.9979 1.34885 35.577 1.9638C35.9275 2.34096 36.0113 2.75912 36.3389 3.16089H5.73793C4.82356 3.16089 4.7245 3.16089 4.45019 2.70173L4.06158 2.01299C3.96253 1.83261 3.93967 1.65223 4.00824 1.52924V1.53744Z" fill="#121212"></path></g><defs><clipPath id="clip0_6444_46465"><rect width="80" height="80" fill="white" transform="translate(0 0.578125)"></rect></clipPath></defs></svg>