<svg xmlns="http://www.w3.org/2000/svg" width="69" height="81" viewBox="0 0 69 81" fill="none"><path d="M34.1253 0.924805C44.6633 0.924805 54.855 3.10167 64.453 7.35647C66.432 15.4703 67.7183 23.9304 67.7183 29.4715C67.7183 29.5704 67.7183 29.6694 67.7183 29.7683C67.7183 35.2105 66.9268 40.5537 65.3931 45.6496C63.8594 50.6465 61.5835 55.3466 58.6645 59.6508C55.7456 63.9056 52.1834 67.8141 48.0276 71.2773C43.6244 74.9384 38.4296 78.2037 34.1253 80.0837C29.821 78.2037 24.6262 74.9384 20.223 71.2773C16.0672 67.8141 12.505 63.9056 9.58603 59.6508C6.61757 55.3466 4.39122 50.597 2.85752 45.6496C1.32382 40.6032 0.532227 35.26 0.532227 29.7683C0.532227 29.6694 0.532227 29.5704 0.532227 29.4715C0.581701 23.9304 1.81856 15.4703 3.79753 7.35647C13.3955 3.10167 23.5873 0.924805 34.1253 0.924805Z" fill="white"></path><path d="M34.125 32.1426C36.4503 32.1426 38.6766 32.7363 40.5567 33.8248H60.1485C60.198 32.4395 60.1485 30.9058 60.1485 29.471C60.0495 23.4846 58.2685 13.3424 56.5863 6.31703C49.6599 4.09069 42.1893 2.75488 34.1745 2.75488L34.125 32.1426Z" fill="#CA1F3A"></path><path d="M34.1248 2.75488C26.2584 2.75488 19.0352 3.94227 11.713 6.26756C9.93187 13.5403 8.39817 23.1878 8.20027 27.7889C7.85395 34.5669 8.3487 39.4648 9.73398 44.8081C10.4761 47.826 11.5151 50.646 12.8014 53.5156C14.1867 52.7734 15.6214 51.8829 17.1057 50.7945C18.6394 49.6566 19.9752 48.1723 21.0636 46.787C21.0141 46.2923 20.9647 45.7976 20.9647 45.2533C20.9647 44.4617 21.0141 43.6702 21.1625 42.928C18.4415 43.027 16.9078 43.0765 15.7204 43.0765C14.2856 43.0765 12.9498 42.087 12.3066 40.5038C11.9603 40.5038 11.614 40.5038 11.614 40.5038C11.1193 40.5038 10.2287 40.0585 10.2287 38.4259C10.2287 36.7932 11.1193 36.348 11.614 36.348C11.614 36.348 11.9603 36.348 12.3066 36.348C12.9498 34.8143 14.2856 33.7753 15.7204 33.7753H27.7426C29.6227 32.7363 31.849 32.0932 34.1743 32.0932L34.1248 2.75488Z" fill="#E11F26"></path><path d="M22.2011 68.7042C18.4905 65.0431 15.4231 60.9368 13.0483 56.583C10.5746 52.1798 8.84303 47.2324 7.80407 42.3344C6.7651 37.288 6.41878 32.1922 6.7651 26.75C7.11142 21.7036 8.44723 13.9856 10.1294 6.86133C8.54618 7.40555 6.963 8.04871 5.4293 8.69188C3.6977 15.7172 2.46084 24.6226 2.41136 29.4711C2.36189 34.9133 3.15348 40.1576 4.68718 45.105C6.27036 50.2998 8.34828 54.5051 11.1683 58.6115C13.9884 62.7178 17.4021 66.4779 21.459 69.8421C25.219 72.959 29.4738 75.6801 34.1739 78.0054C29.6717 75.2843 25.6643 72.1674 22.2011 68.7042Z" fill="#1F3A6E"></path><path d="M46.048 68.7042C49.7586 65.0431 52.826 60.9368 55.2007 56.583C57.6744 52.1798 59.406 47.2324 60.445 42.3344C61.484 37.288 61.8303 32.1922 61.484 26.75C61.1376 21.7036 59.8018 13.9856 58.1197 6.86133C59.7029 7.40555 61.2861 8.04871 62.8692 8.69188C64.6008 15.7172 65.8377 24.6226 65.8377 29.4711C65.8872 34.9133 65.0956 40.1576 63.5619 45.105C62.0777 49.904 59.9008 54.4556 57.0808 58.6115C54.2607 62.7178 50.847 66.4779 46.7901 69.8421C43.03 72.959 38.7753 75.6801 34.0752 78.0054C38.5774 75.2843 42.5848 72.1674 46.048 68.7042Z" fill="#1F3A6E"></path><path d="M34.1254 32.7861C27.199 32.7861 21.6084 38.3767 21.6084 45.3031C21.6084 52.2295 27.199 57.8201 34.1254 57.8201C41.0518 57.8201 46.6424 52.2295 46.6424 45.3031C46.6424 38.4262 41.0518 32.7861 34.1254 32.7861Z" fill="#A2863D"></path><path d="M34.1241 58.5125C29.8693 58.5125 26.0598 56.4841 23.685 53.3672C20.766 55.0493 17.6491 56.3851 14.6807 57.2757C17.006 61.382 19.9249 65.1916 23.3881 68.7042C26.5545 71.8706 30.1167 74.7896 34.1241 77.3622V58.5125Z" fill="#E11F26"></path><path d="M15.7215 42.4826C14.3857 42.4826 13.1983 41.3942 12.7531 39.9099C12.2089 39.9099 11.6152 39.9099 11.6152 39.9099C11.3183 39.9099 10.873 39.5636 10.873 38.4752C10.873 37.3868 11.3183 37.0404 11.6152 37.0404C11.6152 37.0404 12.2089 37.0404 12.7531 37.0404C13.1983 35.5562 14.3857 34.4678 15.7215 34.4678H26.6554C23.9837 36.2983 22.0542 39.0689 21.3121 42.3342C18.8879 42.4331 17.0079 42.4826 15.7215 42.4826Z" fill="#A2863D"></path><path d="M64.7501 7.10874C55.4489 2.95289 45.2077 0.578125 34.1255 0.578125C23.0432 0.578125 12.8515 2.95289 3.55036 7.10874C1.42297 15.7667 0.235582 24.2269 0.235582 29.4217C0.186108 35.0617 0.977697 40.5039 2.56088 45.6987C4.09458 50.6956 6.3704 55.4451 9.33886 59.7989C12.2578 64.0537 15.8695 68.0116 20.0253 71.4748C23.9338 74.7401 29.277 78.3023 34.1255 80.3802C38.974 78.3023 44.3172 74.6907 48.2257 71.4748C52.3815 68.0116 55.9931 64.1032 58.9121 59.7989C61.8806 55.4451 64.1564 50.6956 65.6901 45.6987C67.2733 40.5039 68.0649 35.0617 68.0154 29.4217C68.0154 24.2269 66.8775 15.8162 64.7501 7.10874ZM57.1311 58.6115C54.311 62.7179 50.8973 66.4779 46.8404 69.8422C43.0804 72.9591 38.7761 75.6801 34.1255 78.0054C29.4749 75.6801 25.1706 72.9591 21.4106 69.8422C17.4032 66.5274 13.94 62.7179 11.1199 58.6115C10.922 58.2652 10.6747 57.9683 10.4768 57.622C14.5831 56.9294 19.0853 55.1978 23.2411 52.823C22.2022 51.3388 21.4601 49.6072 21.1137 47.7272C20.0748 49.0135 18.8379 50.2998 17.4032 51.3883C15.0779 53.1199 12.3073 54.802 9.28938 55.742C7.31041 52.3777 5.72723 48.8156 4.58932 45.105C3.05562 40.1576 2.3135 34.9133 2.3135 29.4711C2.36298 24.6226 3.55036 15.7173 5.33144 8.69191C14.4347 4.78344 24.0822 2.755 34.076 2.755C44.0698 2.755 53.7173 4.73397 62.8206 8.69191C64.5522 15.7173 65.7891 24.6226 65.8385 29.4711C65.8385 31.1533 65.7891 32.8354 65.6406 34.468H41.5466C44.5151 36.546 46.593 39.7618 47.1372 43.5218L51.7384 42.4334C52.7773 42.186 53.1731 41.4934 53.2721 40.8997L64.7996 40.1081C64.4533 41.7902 64.0575 43.4724 63.5627 45.105C62.128 49.8546 59.9511 54.4062 57.1311 58.6115Z" fill="#A2863D"></path><path d="M34.9668 48.7665V55.495C38.1332 55.2476 40.8542 53.5655 42.5858 51.0918L36.7479 47.7275C36.2531 48.2718 35.6594 48.6181 34.9668 48.7665Z" fill="white"></path><path d="M33.2844 35.1113C30.1675 35.3587 27.397 37.0408 25.7148 39.5145L31.5528 42.8788C31.9981 42.3841 32.6412 42.0377 33.3339 41.8398V35.1113H33.2844Z" fill="white"></path><path d="M34.1245 43.4717C33.135 43.4717 32.2939 44.2633 32.2939 45.3022C32.2939 46.2917 33.0855 47.1328 34.1245 47.1328C35.114 47.1328 35.955 46.3412 35.955 45.3022C35.955 44.3127 35.114 43.4717 34.1245 43.4717Z" fill="white"></path><path d="M34.9668 35.1113V41.8398C35.6594 41.9883 36.2531 42.3841 36.7479 42.8788L42.5858 39.5145C40.8542 37.0408 38.0837 35.3587 34.9668 35.1113Z" fill="white"></path><path d="M33.2851 48.7659C32.7408 48.6174 32.2461 48.3701 31.8008 48.0237C31.7019 47.9248 31.6029 47.8753 31.504 47.7764L25.666 51.1406C25.8144 51.3385 25.9629 51.5364 26.1113 51.6848C27.8429 53.8122 30.3661 55.2965 33.2851 55.4944V48.7659Z" fill="white"></path><path d="M37.5391 46.3419L43.377 49.7062C44.5149 47.3314 44.8613 43.9672 43.377 40.9492L37.5391 44.3135C37.737 44.9072 37.737 45.6493 37.5391 46.3419Z" fill="white"></path><path d="M26.6553 39.3167L31.4048 42.0378C31.7511 41.741 32.1964 41.4936 32.6417 41.3452V35.8535C30.2669 36.1998 28.1395 37.4367 26.6553 39.3167Z" fill="#A2863D"></path><path d="M35.6094 35.8535V41.3452C36.0546 41.4936 36.4504 41.741 36.7968 42.0378L41.5463 39.3167C40.1115 37.4367 37.9841 36.1998 35.6094 35.8535Z" fill="#A2863D"></path><path d="M43.673 44.3129C43.574 43.4718 43.3761 42.6308 43.0793 41.8887L38.2803 44.6098C38.3297 44.8571 38.3297 45.055 38.3297 45.3024C38.3297 45.4013 38.3297 45.5003 38.3297 45.5992C39.6656 45.2529 41.1003 44.8571 42.5351 44.5603C42.9309 44.5108 43.2772 44.4119 43.673 44.3129Z" fill="#A2863D"></path><path d="M34.125 77.3623C38.0829 74.7897 41.6946 71.8707 44.8609 68.7043C48.5715 64.9938 51.5894 60.8874 53.9642 56.5336C56.3884 52.081 58.1201 47.183 59.1095 42.2356C59.2085 41.8398 59.258 41.4935 59.3074 41.0977L53.8158 41.4935C53.5189 42.285 52.8758 42.8293 51.9358 43.0766C51.8863 43.0766 49.8578 43.5714 47.2357 44.2145C47.2852 44.6103 47.2852 44.9567 47.2852 45.3525C47.2852 52.6252 41.3977 58.5126 34.125 58.5126V77.3623Z" fill="#CA1F3A"></path><path d="M35.3123 45.3026C35.3123 44.6594 34.7681 44.1152 34.1249 44.1152C33.4817 44.1152 32.9375 44.6594 32.9375 45.3026C32.9375 45.9458 33.4817 46.49 34.1249 46.49C34.7681 46.49 35.3123 45.9458 35.3123 45.3026Z" fill="#A2863D"></path><path d="M35.6094 54.7523C37.9841 54.406 40.1115 53.1691 41.5958 51.2891L36.7968 48.5186C36.4504 48.8154 36.0546 49.0628 35.6094 49.2112C35.6094 49.2607 35.6094 54.7523 35.6094 54.7523Z" fill="#CA1F3A"></path><path d="M26.6553 51.3389L31.4048 48.5684C31.7511 48.8652 32.1469 49.1126 32.5922 49.261V54.7526C30.2669 54.4063 28.1395 53.2189 26.6553 51.3389Z" fill="#E21E26"></path><path d="M43.7225 45.303C43.7225 45.1546 43.7225 45.0556 43.7225 44.9072C43.3762 45.0062 43.0298 45.0557 42.6835 45.1051C41.2488 45.402 39.814 45.7483 38.5771 46.0946L43.0793 48.7167C43.4751 47.6778 43.7225 46.5399 43.7225 45.303Z" fill="#CA1F3A"></path><path d="M24.873 40.9492C23.5372 43.8187 23.5867 47.0346 24.873 49.7062L30.711 46.3419C30.5131 45.6988 30.5131 44.9566 30.711 44.3135L24.873 40.9492Z" fill="white"></path><path d="M25.2191 48.7656L29.9687 45.995C29.8697 45.5498 29.8697 45.055 29.9687 44.6098L25.1697 41.8887C24.3286 44.115 24.3286 46.5393 25.2191 48.7656Z" fill="#A2863D"></path><path d="M38.8744 23.8798C38.8744 24.1272 38.7754 25.0178 38.7754 25.2651H42.5849C42.387 24.2262 42.2881 22.8409 42.2386 21.8019L42.1892 19.6251C42.1892 19.4272 42.2386 19.2293 42.3376 19.1303C42.4365 19.0314 42.5849 18.9324 42.7334 18.9324C42.9313 18.9324 43.2281 18.9324 43.2281 19.5261L43.3271 21.8514C43.3765 22.8904 43.3765 24.3746 43.2281 25.2651H46.9387C46.8892 24.9683 46.7903 24.1767 46.7408 23.9788C47.1861 24.9683 48.1755 25.463 49.5114 25.463C50.3029 25.463 50.8966 25.1662 51.3419 24.9188C51.3419 24.9683 51.5398 25.2651 51.5398 25.2651H58.3673C58.0704 24.2262 57.8725 22.7914 57.7736 21.7524L56.8336 14.0839L53.3209 13.5397C53.6177 14.4797 53.8156 15.964 53.9146 17.0029L54.4588 21.9009C54.5577 22.7914 54.6567 23.7314 54.6567 24.7209V24.8199L54.5083 24.4735C54.2609 23.8798 54.1125 23.0388 54.0135 21.9009L53.8651 20.3177C53.6672 17.844 52.3314 16.7061 49.3629 16.7061C48.8682 16.7061 47.5819 16.8545 46.8397 17.0524L47.0376 19.8724L47.8292 19.3777C48.4724 18.9819 49.0166 18.8335 49.5608 18.8335C50.0556 18.8335 50.3524 19.0314 50.5008 19.3282C49.9071 19.4272 49.3135 19.5756 48.6208 19.8724C47.5819 20.3177 46.8892 21.0103 46.5924 21.8514V21.8019L46.4934 19.2293C46.4439 17.5471 45.405 16.5082 43.7723 16.5082C43.0302 16.5082 42.387 16.7061 41.7934 17.1513C41.7439 17.0524 41.7439 16.9534 41.6944 16.8545L41.546 16.5576L38.5281 16.4092C38.6765 16.9534 38.8744 18.4871 38.8744 19.0808C38.7259 18.2398 38.2807 17.3987 37.4891 16.805C36.8459 16.3597 36.1038 16.1618 35.2133 16.1618C34.0754 16.1618 32.9375 16.6566 32.1459 17.4482C31.3543 18.2398 30.9585 19.3282 30.909 20.5651C30.6122 20.2682 30.2658 19.9714 29.7711 19.7735L28.3858 19.1303L28.3363 19.0808C27.99 18.9324 27.99 18.8829 27.99 18.784C27.99 18.6356 28.3363 18.4871 28.7816 18.4871C29.3753 18.4871 30.1669 18.784 30.8595 19.2293L30.909 16.7061C30.4143 16.4587 29.7216 16.3103 28.7321 16.3103C28.2374 16.3103 27.1984 16.3597 26.3574 16.8545C26.11 17.0029 25.9121 17.1513 25.7142 17.2998L25.7637 16.5576C24.9721 16.4587 24.0815 16.4587 23.0426 17.3987C23.0426 17.3492 22.9436 17.0029 22.8942 16.805L19.6289 17.0029C19.8762 17.8935 19.9257 19.2293 19.8268 20.4166L19.7773 21.6535V21.8019C19.7278 22.4451 19.6783 23.1377 19.6289 23.7314C19.332 22.8904 19.0352 21.703 18.8373 20.763L17.2046 13.4902L12.554 14.1334C12.6035 14.2323 12.653 14.4797 12.7024 14.6776C12.7519 14.9745 12.7519 15.6176 12.3067 16.904C11.5645 19.0808 10.4761 22.2472 9.48661 24.4735C9.33819 24.7704 9.09082 25.2651 9.09082 25.2651H12.7024C12.7519 24.7209 12.9993 23.7809 13.1972 23.0883C13.6919 23.0883 14.9783 23.0388 15.6214 23.0388C15.7204 23.583 15.8688 24.3251 15.9183 24.7209L15.9678 25.2651H23.2405C23.0921 24.1272 23.1415 22.544 23.191 21.6535C23.2405 20.6145 23.4384 19.9714 23.8836 19.5756C24.23 19.2293 24.5763 19.1798 24.8731 19.1303C24.8237 20.4661 25.7142 21.1093 26.5058 21.5051L27.9405 22.2472C28.4353 22.4946 28.4353 22.643 28.4353 22.7419C28.4353 23.0388 27.99 23.1377 27.6437 23.0883C26.9016 23.0883 25.8626 22.544 24.7247 21.3567L24.6752 24.5725C25.5658 25.0672 26.7037 25.2651 27.6932 25.2651C29.3258 25.2651 31.1069 24.5725 31.5522 23.0388C32.3438 24.5725 33.9764 25.3146 35.5596 25.3146C36.8954 25.3146 37.9838 24.8693 38.8744 23.8798ZM14.0383 20.6145C14.2362 20.0703 14.3846 19.6251 14.6814 18.7345C14.8793 19.6251 14.9783 20.1198 15.0772 20.5651C14.6814 20.6145 14.4835 20.6145 14.0383 20.6145ZM34.2733 19.8229C34.2733 18.685 34.6691 18.2892 35.0648 18.2398C35.1638 18.2398 35.5101 18.1903 35.6091 18.7345C35.6585 18.9324 35.708 19.0808 35.708 19.1798C35.708 19.4766 35.5596 19.5261 35.3617 19.6251C35.3617 19.6251 34.8175 19.8229 34.2733 20.0208C34.2733 19.9714 34.2733 19.8724 34.2733 19.8229ZM38.0828 22.0493C37.3901 22.643 36.8954 23.0388 36.0543 22.9893C35.4112 22.9893 35.0154 22.544 34.768 22.0493C35.4606 21.8019 38.1323 20.763 38.9238 20.5156C38.9238 21.0598 38.9238 21.8019 38.9238 21.8019C38.9238 22.2472 38.9238 22.6925 38.9238 23.0883L38.0828 22.0493ZM50.4019 23.0883C49.7587 23.0883 49.6103 22.6925 49.6103 22.3956C49.6103 22.0493 49.7093 21.604 50.7482 21.3072C50.7977 21.6535 50.7977 21.9998 50.7977 21.9998V22.2967C50.7977 22.4946 50.8472 22.7419 50.8472 22.9398C50.7482 23.0388 50.5998 23.0883 50.4019 23.0883Z" fill="#A0843C"></path><path d="M30.3165 17.0042C30.0197 16.9053 29.4755 16.7568 28.6839 16.7568C28.0407 16.7568 27.2491 16.8558 26.606 17.2516C25.8639 17.6474 25.3691 18.34 25.3196 19.0327C25.2702 20.0716 25.8144 20.5664 26.6554 21.0116C27.1997 21.3085 27.7439 21.5558 28.0902 21.7537C28.5355 22.0011 28.9313 22.298 28.8818 22.7927C28.8323 23.3369 28.3376 23.6832 27.4965 23.6832C26.8039 23.6832 25.8144 23.2874 25.1217 22.6443L25.0723 24.2769C25.666 24.5738 26.6554 24.7717 27.4965 24.7717C29.0302 24.7717 30.9102 24.079 30.9597 22.298C30.9597 21.0116 30.0692 20.5169 29.525 20.2695C28.9807 20.0221 28.387 19.7253 28.1397 19.5769C27.8923 19.4779 27.3481 19.28 27.3976 18.6863C27.447 18.1421 28.0902 17.8947 28.7334 17.8947C29.3271 17.8947 29.8713 18.0432 30.2671 18.2905L30.3165 17.0042Z" fill="white"></path><path d="M16.7093 14.085L13.1966 14.5797C13.2956 15.0744 13.1471 15.965 12.7513 17.0534C12.0092 19.1808 10.8218 22.644 9.88184 24.6725H12.1082C12.2071 24.0293 12.405 23.3367 12.7019 22.4956L15.9672 22.3966C16.1156 23.0398 16.3135 24.0788 16.363 24.623H19.282C18.9356 23.7819 18.4409 22.0009 18.144 20.764L16.7093 14.085ZM13.1966 21.2093L14.7798 16.6082L15.7198 21.1103L13.1966 21.2093Z" fill="white"></path><path d="M25.1697 17.0029L25.0708 18.5366C24.5761 18.4872 23.8834 18.5861 23.3887 19.1303C22.8939 19.6251 22.5971 20.3672 22.5476 21.604C22.4981 22.643 22.4487 23.7314 22.5476 24.6714H20.0244C20.1728 23.7314 20.2223 22.643 20.3213 21.604L20.3707 20.3672C20.4202 19.3282 20.4202 18.3882 20.2718 17.4482L22.4487 17.2998C22.5476 17.6461 22.5971 18.1408 22.5971 18.6851C23.5371 17.2998 24.4276 17.0029 25.1697 17.0029Z" fill="white"></path><path d="M56.3881 14.5787L54.1123 14.2324C54.3102 15.1724 54.4092 15.9146 54.5576 16.9535L55.1018 21.8515C55.2007 22.8904 55.2997 23.781 55.2997 24.721H57.7239C57.526 23.781 57.3776 22.8904 57.2787 21.8515L56.3881 14.5787Z" fill="white"></path><path d="M46.2955 24.6714C46.1471 23.7314 46.0976 22.8409 46.0482 21.8019L45.9492 19.2293C45.8997 17.844 45.1081 17.0524 43.7723 17.0524C43.0302 17.0524 42.1892 17.2998 41.447 18.2398C41.447 18.0419 41.2986 17.3987 41.1997 17.1019L39.2207 17.0029C39.3691 17.9429 39.4681 18.9324 39.4681 19.9219L39.5175 21.8019C39.567 22.8409 39.5175 23.7314 39.4681 24.6714H41.9418C41.7934 23.7314 41.7439 22.8409 41.6944 21.8019L41.6449 19.6251C41.5955 18.8335 42.1892 18.3387 42.7829 18.3387C43.4755 18.3387 43.8218 18.784 43.8218 19.4766L43.9208 21.8019C43.9702 22.8409 43.9702 23.7314 43.8713 24.6714H46.2955Z" fill="white"></path><path d="M54.014 24.6721C53.7171 23.93 53.5687 22.9405 53.4698 21.951L53.3213 20.3679C53.1729 18.5373 52.4308 17.251 49.3634 17.251C48.8192 17.251 48.0771 17.3499 47.4339 17.4983L47.5328 18.9331C48.176 18.5373 48.7697 18.2899 49.5613 18.2899C50.3529 18.2899 51.095 18.6363 51.1445 19.8236C50.3529 19.9226 49.6108 20.071 48.7697 20.4173C47.8297 20.8131 46.8897 21.6047 46.9886 22.8416C47.0876 24.2763 48.176 24.87 49.5118 24.87C50.5013 24.87 51.2434 24.3258 51.5897 23.93C51.6392 24.1774 51.7382 24.4742 51.8866 24.6721H54.014ZM50.4024 23.6826C49.7097 23.7321 49.0666 23.3363 49.0666 22.4458C49.0666 21.6542 49.6108 20.9121 51.2434 20.6647L51.3424 22.0005C51.3918 22.4458 51.3918 22.7921 51.4413 23.2374C51.2434 23.4353 50.8476 23.6332 50.4024 23.6826Z" fill="white"></path><path d="M37.1419 17.2512C36.5977 16.8555 35.905 16.707 35.2124 16.707C33.5797 16.707 31.4523 17.8449 31.5018 20.8629C31.5513 23.8808 33.8766 24.7713 35.5092 24.7713C36.944 24.7713 37.7851 24.2766 38.5272 23.5345L38.0324 22.8913C37.6366 23.1882 37.0429 23.6334 36.1029 23.6334C35.064 23.6334 34.4208 22.8418 34.0745 21.8029L38.5767 20.1208C38.3293 18.5871 37.8345 17.746 37.1419 17.2512ZM35.5587 20.1208L33.7776 20.8134C33.7282 20.5166 33.7282 20.1702 33.7282 19.8239C33.7282 17.9934 34.7177 17.6965 35.064 17.647C35.6082 17.5976 36.0535 17.8944 36.2514 18.5376C36.3998 19.2797 36.3503 19.8734 35.5587 20.1208Z" fill="white"></path><path d="M42.4859 77.708C43.2775 77.708 43.8712 78.3512 43.8712 79.1428C43.8712 79.9344 43.2775 80.5775 42.4859 80.5775C41.6943 80.5775 41.1006 79.9344 41.1006 79.1428C41.1006 78.3017 41.7438 77.708 42.4859 77.708ZM42.4859 77.9059C41.8427 77.9059 41.348 78.4501 41.348 79.0933C41.348 79.7859 41.8427 80.2807 42.4859 80.2807C43.129 80.2807 43.6238 79.7365 43.6238 79.0933C43.6238 78.4501 43.129 77.9059 42.4859 77.9059ZM42.2385 79.9344H41.9911V78.3512C42.1395 78.3512 42.2385 78.3017 42.4364 78.3017C42.6838 78.3017 42.8322 78.3512 42.9311 78.4007C43.0301 78.4501 43.0796 78.5985 43.0796 78.747C43.0796 78.9449 42.9311 79.0933 42.7827 79.1428C42.9311 79.1922 43.0301 79.2912 43.0301 79.5386C43.0796 79.7859 43.129 79.8849 43.129 79.9344H42.8817C42.8322 79.8849 42.7827 79.7365 42.7827 79.5386C42.7332 79.3407 42.6343 79.2417 42.4364 79.2417H42.2385V79.9344ZM42.2385 79.0438H42.4364C42.6343 79.0438 42.8322 78.9449 42.8322 78.7964C42.8322 78.648 42.7332 78.4996 42.4364 78.4996C42.3374 78.4996 42.288 78.4996 42.2385 78.4996V79.0438Z" fill="black"></path></svg>