<svg xmlns="http://www.w3.org/2000/svg" width="80" height="81" viewBox="0 0 80 81" fill="none"><path d="M52.4046 1.82324L52.801 2.0875C57.1821 4.98736 60.7009 5.51587 66.0694 5.51587C67.961 5.51587 69.9916 5.16121 71.9318 4.48666L72.4394 4.31281L74.9846 7.87331L74.7203 8.22101C65.2697 20.7732 72.6411 34.3337 77.8567 39.744L78.3365 40.2447L77.8427 40.7384C77.1612 41.4199 75.9721 42.6508 75.0959 43.5757L74.7968 43.8886L74.8177 44.3198V44.4727C74.8247 44.584 74.8316 44.6953 74.8525 44.8969V44.9734C75.3045 53.3462 73.1348 60.2238 68.413 65.4185C63.3991 70.9331 55.4853 74.2502 46.132 74.7648L45.7704 74.7857L45.5062 75.0291C43.1279 77.1987 40.7078 78.9999 40.68 79.0138L40.2558 79.3267L39.8316 79.0138C39.7343 78.9373 37.3421 77.164 34.9916 75.0221L34.7273 74.7787L34.3657 74.7579C25.0124 74.2433 17.0987 70.9261 12.0848 65.4115C7.36292 60.2168 5.19324 53.3392 5.6383 44.9665V44.89C5.66612 44.7022 5.67307 44.6049 5.67307 44.4867V44.4519V44.3198L5.69393 43.8886L5.39491 43.5757C4.56737 42.7064 3.3504 41.4338 2.64804 40.7384L2.1543 40.2447L2.63413 39.744C7.84971 34.3337 15.2141 20.7801 5.77043 8.22101L5.50617 7.87331L8.05137 4.31281L8.55902 4.48666C10.5062 5.16121 12.5298 5.51587 14.4213 5.51587C19.7829 5.51587 23.3087 4.98736 27.6898 2.0875L28.0931 1.82324L28.4895 2.09445C32.349 4.77873 36.0903 6.02352 40.2419 6.02352C44.4005 6.02352 48.1348 4.77873 51.9943 2.09445L52.3907 1.82324" fill="#005596"></path><path d="M11.4863 32.8245C14.4487 26.0373 15.5475 17.3168 10.5684 8.79807C11.8131 9.0206 13.1205 9.15273 14.4418 9.15273C19.5391 9.15273 23.5517 8.6868 28.0579 6.1416C31.6115 8.29042 35.5892 9.65342 40.2485 9.66038C44.9286 9.66038 48.9063 8.29042 52.4599 6.1416C56.9661 8.6868 60.9786 9.15273 66.076 9.15273C67.3973 9.15273 68.7047 9.01365 69.9633 8.77721C64.9703 17.3168 66.076 26.0373 69.0315 32.8245H11.4863Z" fill="#005596"></path><path d="M69.0245 32.8245C66.0621 26.0373 64.9633 17.3168 69.9564 8.77721C68.6977 9.0206 67.3973 9.15273 66.069 9.15273C60.9717 9.15273 56.9592 8.6868 52.4529 6.1416C48.8994 8.29042 44.9216 9.65342 40.2415 9.66038C40.1998 9.66038 40.1511 9.66038 40.1094 9.66038V32.8245H69.0245Z" fill="#005596"></path><path d="M62.6904 65.6269C68.358 61.4823 71.7099 54.862 71.2162 45.2097C71.1605 44.6603 71.1188 44.6255 71.0771 44.0762H62.6904V65.6269Z" fill="#005596"></path><path d="M53.7178 69.7855C57.0905 68.8745 60.1295 67.5045 62.6955 65.6269V44.0762H53.7178V69.7855Z" fill="#005596"></path><path d="M17.8223 65.6269C20.3883 67.5045 23.4203 68.8675 26.8 69.7855V44.0762H17.8223V65.6269Z" fill="#005596"></path><path d="M9.296 45.2097C8.80226 54.862 12.1541 61.4823 17.8217 65.6269V44.0762H9.43509C9.39336 44.6255 9.35164 44.6603 9.296 45.2097Z" fill="#005596"></path><path d="M40.2788 48.8456C41.92 48.8456 43.4499 49.3185 44.7434 50.1321V44.082H35.7656V50.1599C37.073 49.3324 38.6168 48.8456 40.2788 48.8456Z" fill="#005596"></path><path d="M40.2788 65.7577C38.6168 65.7577 37.073 65.2709 35.7656 64.4434V71.1402C35.9256 71.1471 36.0786 71.161 36.2385 71.168C39.2218 71.1819 41.92 71.2027 44.2635 71.168C44.4235 71.161 44.5765 71.1471 44.7364 71.1402V64.4712C43.436 65.2778 41.9131 65.7577 40.2719 65.7577H40.2788Z" fill="#005596"></path><path d="M44.7402 44.0762V50.1262C47.1324 51.6214 48.7319 54.2709 48.7319 57.3029C48.7319 60.3349 47.1324 62.9774 44.7402 64.4725V71.1415C47.9113 70.9816 50.9294 70.5365 53.718 69.7855V44.0762H44.7402Z" fill="#005596"></path><path d="M31.8198 57.3029C31.8198 54.2917 33.3984 51.6561 35.7697 50.1541V44.0762H26.792V69.7855C29.5806 70.5365 32.5987 70.9816 35.7697 71.1415V64.4517C33.3984 62.9496 31.8198 60.314 31.8198 57.3098V57.3029Z" fill="#005596"></path><path d="M13.502 16.4059C14.107 19.3405 14.1209 22.2264 13.7384 24.9664H22.4588V32.8175H31.0193V24.9664H40.1431V16.4059H31.0193V7.69237C29.9971 7.24035 29.0096 6.71879 28.0499 6.1416C26.1376 7.21949 24.3086 7.92881 22.4588 8.38082V16.4059H13.502Z" fill="#005596"></path><path d="M58.5815 32.8253V8.50681C57.5523 8.28428 56.5301 7.98525 55.5078 7.58887V32.8323H58.5815V32.8253Z" fill="#005596"></path><path d="M46.272 32.8253V8.85449C45.2845 9.1257 44.2553 9.33432 43.1982 9.47341V32.8253H46.272Z" fill="#005596"></path><path d="M64.7358 32.8252V9.13955C63.6718 9.11869 62.6496 9.07001 61.6621 8.97266V32.8183H64.7358V32.8252Z" fill="#005596"></path><path d="M52.4282 32.8251V6.16309C51.4407 6.76114 50.4115 7.29661 49.3545 7.75558V32.8182H52.4282V32.8251Z" fill="#005596"></path><path d="M79.7615 40.2443L78.5863 39.0274C73.5793 33.8326 66.4931 20.8285 75.5334 8.81874L76.2428 7.87298L72.8283 3.08856L71.6044 3.51276C69.7615 4.14558 67.8492 4.48633 66.0689 4.48633C60.909 4.48633 57.5223 3.98564 53.3638 1.22486L52.3902 0.578125L51.4305 1.24572C47.7449 3.80483 44.1983 4.99398 40.2553 4.99398C36.3123 4.99398 32.7657 3.80483 29.08 1.24572L28.1204 0.578125L27.1468 1.22486C22.9813 3.97868 19.6016 4.48633 14.4417 4.48633C12.6614 4.48633 10.749 4.15253 8.90619 3.51276L7.68226 3.08856L4.2678 7.87298L4.97712 8.81874C14.0105 20.8285 6.93122 33.8257 1.92427 39.0274L0.749023 40.2443L1.94513 41.4404C2.59186 42.0802 3.73234 43.2694 4.67114 44.2638C4.67114 44.3194 4.67114 44.3681 4.67114 44.4168C4.67114 44.5211 4.67114 44.6046 4.64332 44.7715V44.8827C4.17044 53.5475 6.43053 60.6755 11.3471 66.0788C16.5557 71.809 24.699 75.2304 34.3234 75.7589C36.7087 77.9286 39.1287 79.7297 39.24 79.8132L40.2692 80.5781L41.2984 79.8132C41.4027 79.7297 43.8158 77.9356 46.1941 75.7589C55.8186 75.2304 63.9618 71.809 69.1704 66.0788C74.087 60.6755 76.3401 53.5475 75.8811 44.8827V44.7715C75.8533 44.6046 75.8464 44.5211 75.8464 44.4168C75.8464 44.3681 75.8464 44.3194 75.8464 44.2638C76.7921 43.2694 77.9326 42.0872 78.5793 41.4404L79.7754 40.2443H79.7615ZM74.0592 43.631C74.1496 44.5002 74.0939 44.4655 74.1565 44.9731C75.1857 64.2777 61.7365 73.3945 45.4848 74.0691C43.0022 76.3918 40.2622 78.4293 40.2622 78.4293C40.2622 78.4293 37.5154 76.3918 35.0258 74.0691C18.7741 73.3945 5.32482 64.2777 6.34708 44.9731C6.40967 44.4655 6.35403 44.5002 6.44444 43.631C5.51259 42.6435 3.96877 41.0371 3.15514 40.2235C8.98268 34.1734 15.7907 20.3347 6.34708 7.78953L8.3429 5.14697C10.2275 5.80066 12.3276 6.21095 14.4417 6.21095C19.8589 6.21095 23.5515 5.67548 28.0995 2.66436C31.6948 5.16088 35.5891 6.7186 40.2553 6.7186C44.9215 6.7186 48.8158 5.15392 52.4111 2.66436C56.959 5.67548 60.6517 6.21095 66.0689 6.21095C68.176 6.21095 70.2761 5.80066 72.1677 5.14697L74.1635 7.78953C64.7198 20.3347 71.5209 34.1804 77.3554 40.2235C76.5418 41.0371 74.998 42.6435 74.0661 43.631H74.0592Z" fill="#005596"></path><path d="M9.17589 44.0558C9.15503 44.3478 9.12721 44.4939 9.10635 44.6469C9.08548 44.779 9.06462 44.925 9.03681 45.1962C8.66128 52.6232 10.5111 58.6316 14.5514 63.0544C19.1828 68.1309 26.6794 71.0238 36.2482 71.4202H36.6098C38.2023 71.4341 39.7114 71.441 41.13 71.441C42.2426 71.441 43.2927 71.441 44.2872 71.4202C53.8421 71.0238 61.3456 68.1309 65.97 63.0544C70.0034 58.6246 71.8602 52.6163 71.4777 45.1823C71.4499 44.932 71.429 44.786 71.4081 44.6469C71.3803 44.4869 71.3595 44.3478 71.3386 44.0558L71.3177 43.8193H9.19675L9.17589 44.0558ZM9.55141 45.238C9.57922 45.0015 9.60009 44.8624 9.62095 44.7303C9.64181 44.6121 9.65572 44.5008 9.67658 44.3339H70.8449C70.8657 44.5008 70.8796 44.6121 70.9005 44.7303C70.9214 44.8555 70.9422 44.9946 70.97 45.2241C71.3386 52.505 69.5305 58.3882 65.5945 62.7067C61.0604 67.6789 53.6891 70.5161 44.2802 70.9056C42.034 70.9334 39.461 70.9264 36.6237 70.9056H36.2691C26.8532 70.5161 19.4819 67.6789 14.9478 62.7067C11.0118 58.3882 9.19675 52.505 9.57227 45.238H9.55141Z" fill="#005596"></path><path d="M11.2486 32.7204L11.0887 33.082H69.4197L69.2597 32.7204C66.7284 26.9067 64.83 18.0611 70.1777 8.90953L70.4628 8.41579L69.9065 8.5201C68.613 8.77045 67.3265 8.89562 66.0678 8.89562C60.8592 8.89562 56.9857 8.40884 52.5838 5.91927L52.4517 5.84277L52.3195 5.91927C48.453 8.25585 44.5031 9.39632 40.2472 9.40328C35.9983 9.40328 32.0553 8.2628 28.1888 5.91927L28.0567 5.84277L27.9245 5.91927C23.5226 8.40884 19.6422 8.89562 14.4405 8.89562C13.2236 8.89562 11.9371 8.7774 10.6158 8.54096L10.0664 8.44361L10.3515 8.92344C15.6923 18.0611 13.7869 26.9067 11.2556 32.7134L11.2486 32.7204ZM40.4072 9.91788C44.6561 9.89006 48.606 8.74959 52.4656 6.44083C56.9162 8.92344 60.8314 9.41023 66.0747 9.41023C67.1874 9.41023 68.3209 9.31287 69.4614 9.12511C64.4475 18.1029 66.1791 26.7468 68.6408 32.5604H40.4141V9.91788H40.4072ZM11.0678 9.13902C12.2291 9.31982 13.3696 9.41023 14.4475 9.41023C19.6909 9.41023 23.606 8.92344 28.0567 6.44083C31.8536 8.71482 35.734 9.84834 39.8926 9.91788V32.5674H11.8814C14.3432 26.7468 16.0747 18.1098 11.0678 9.13902Z" fill="#005596"></path><path d="M32.8911 36.1832V34.4795H27.1191V42.4767H28.8577V39.1805H31.2151V37.4837H28.8577V36.1832H32.8911Z" fill="#005596"></path><path d="M39.6558 36.0781C40.2887 36.0781 40.7268 36.3424 41.0119 36.8848L41.0467 36.9543L42.6531 36.2103L42.6183 36.1338C42.055 34.9655 41.0397 34.3535 39.6767 34.3535C37.5766 34.3535 36.1162 36.0503 36.1162 38.4773C36.1162 40.9808 37.4931 42.6011 39.6211 42.6011C41.0119 42.6011 42.0133 41.9891 42.5974 40.7861L42.6322 40.7165L41.1718 39.8542L41.1301 39.9238C40.7129 40.6192 40.3165 40.8765 39.6698 40.8765C38.6127 40.8765 37.8965 39.9098 37.8965 38.4773C37.8965 36.9961 38.571 36.0781 39.6558 36.0781Z" fill="#005596"></path><path d="M53.0651 36.6284C53.0651 35.2793 52.1054 34.4727 50.499 34.4727H46.8203V42.4699H50.4643C52.2584 42.4699 53.3363 41.4893 53.3363 39.8551C53.3363 39.0971 52.9677 38.4713 52.328 38.1305C52.8008 37.7898 53.072 37.2473 53.072 36.6215L53.0651 36.6284ZM48.5241 36.086H50.4295C51.2083 36.086 51.3057 36.4407 51.3057 36.7536C51.3057 37.1917 51.0414 37.4073 50.506 37.4073H48.5241V36.093V36.086ZM50.5199 40.8148H48.5241V38.9581H50.5199C51.2223 38.9581 51.5561 39.2501 51.5561 39.8829C51.5561 40.5158 51.2014 40.8148 50.5199 40.8148Z" fill="#005596"></path><path d="M40.2191 65.8983C44.9827 65.8983 48.8561 62.0248 48.8561 57.2543C48.8561 52.4907 44.9827 48.6104 40.2191 48.6104C35.4556 48.6104 31.5752 52.4907 31.5752 57.2543C31.5752 62.0179 35.4486 65.8983 40.2191 65.8983ZM40.2191 65.3767C38.5432 65.3767 36.9855 64.869 35.6851 63.9928C37.4027 63.9163 39.6767 63.4782 41.0954 62.6368C42.4653 61.8231 43.9187 60.8009 44.1899 59.4379C45.1844 58.9372 47.0898 59.1736 47.3332 61.1764C45.9493 63.6799 43.2859 65.3767 40.2191 65.3767ZM36.2136 59.118C36.61 59.3823 37.0898 59.5561 37.66 59.6326C38.7866 59.7786 40.3582 58.659 40.4556 57.3864C42.0064 56.2877 43.2025 57.2821 43.5641 58.1444C44.2734 59.8482 42.7783 61.0721 40.845 62.2265C39.3499 63.1166 36.749 63.5408 35.0522 63.5269C34.1552 62.7898 33.418 61.8579 32.9104 60.8078C32.973 60.8078 33.0425 60.8078 33.1051 60.8078C34.4403 60.8078 35.5738 60.1959 36.2066 59.1111L36.2136 59.118ZM34.9201 55.0151C34.8993 53.4226 35.3513 52.0318 35.7059 50.5088C36.8116 49.7647 38.1121 49.2919 39.5098 49.1736C38.571 50.1959 38.7657 51.691 39.7324 52.4629C39.5029 52.6298 39.3012 52.8454 39.1274 53.1305C38.4111 54.264 38.3068 56.1695 39.9688 57.3864C39.8645 58.3391 38.5988 59.271 37.7226 59.1597C35.8381 58.9163 34.9479 57.1709 34.9201 55.022V55.0151ZM44.2247 58.8955C44.2108 58.5964 44.1413 58.2835 44.0022 57.9497C43.571 56.9205 42.0828 55.6618 40.2122 56.9553C38.8353 55.9191 38.9187 54.3405 39.5307 53.3739C40.4764 51.8788 42.6183 52.4768 44.5794 53.5686C46.1719 54.4588 47.8339 56.3155 48.2998 57.9984C48.2233 58.8746 48.0008 59.7021 47.667 60.474C47.1176 58.7564 45.3235 58.506 44.2247 58.8955ZM44.8158 53.1514C43.3972 52.3586 41.5335 51.6354 40.1913 52.1917C39.176 51.5589 39.0022 49.9734 40.2817 49.1319C44.5724 49.1667 48.0634 52.5255 48.3207 56.7606C47.5557 55.2932 46.1579 53.8955 44.8158 53.1514ZM35.094 50.9469C34.941 51.545 34.7949 52.0665 34.6767 52.595C34.2595 54.5074 34.2664 57.3934 35.8172 58.812C35.2817 59.7647 34.3012 60.3211 33.0981 60.3211C32.9521 60.3211 32.813 60.3141 32.6739 60.2932C32.2915 59.3544 32.0828 58.3252 32.0828 57.2473C32.0828 54.7021 33.2511 52.4351 35.0801 50.9469H35.094Z" fill="#005596"></path><path d="M52.4046 1.82324L52.801 2.0875C57.1821 4.98736 60.7009 5.51587 66.0694 5.51587C67.961 5.51587 69.9916 5.16121 71.9318 4.48666L72.4394 4.31281L74.9846 7.87331L74.7203 8.22101C65.2697 20.7732 72.6411 34.3337 77.8567 39.744L78.3365 40.2447L77.8427 40.7384C77.1612 41.4199 75.9721 42.6508 75.0959 43.5757L74.7968 43.8886L74.8177 44.3198V44.4727C74.8247 44.584 74.8316 44.6953 74.8525 44.8969V44.9734C75.3045 53.3462 73.1348 60.2238 68.413 65.4185C63.3991 70.9331 55.4853 74.2502 46.132 74.7648L45.7704 74.7857L45.5062 75.0291C43.1279 77.1987 40.7078 78.9999 40.68 79.0138L40.2558 79.3267L39.8316 79.0138C39.7343 78.9373 37.3421 77.164 34.9916 75.0221L34.7273 74.7787L34.3657 74.7579C25.0124 74.2433 17.0987 70.9261 12.0848 65.4115C7.36292 60.2168 5.19324 53.3392 5.6383 44.9665V44.89C5.66612 44.7022 5.67307 44.6049 5.67307 44.4867V44.4519V44.3198L5.69393 43.8886L5.39491 43.5757C4.56737 42.7064 3.3504 41.4338 2.64804 40.7384L2.1543 40.2447L2.63413 39.744C7.84971 34.3337 15.2141 20.7801 5.77043 8.22101L5.50617 7.87331L8.05137 4.31281L8.55902 4.48666C10.5062 5.16121 12.5298 5.51587 14.4213 5.51587C19.7829 5.51587 23.3087 4.98736 27.6898 2.0875L28.0931 1.82324L28.4895 2.09445C32.349 4.77873 36.0903 6.02352 40.2419 6.02352C44.4005 6.02352 48.1348 4.77873 51.9943 2.09445L52.3907 1.82324" fill="#E8B909"></path><path d="M11.4863 32.8245C14.4487 26.0373 15.5475 17.3168 10.5684 8.79807C11.8131 9.0206 13.1205 9.15273 14.4418 9.15273C19.5391 9.15273 23.5517 8.6868 28.0579 6.1416C31.6115 8.29042 35.5892 9.65342 40.2485 9.66038C44.9286 9.66038 48.9063 8.29042 52.4599 6.1416C56.9661 8.6868 60.9786 9.15273 66.076 9.15273C67.3973 9.15273 68.7047 9.01365 69.9633 8.77721C64.9703 17.3168 66.076 26.0373 69.0315 32.8245H11.4863Z" fill="white"></path><path d="M69.0245 32.8245C66.0621 26.0373 64.9633 17.3168 69.9564 8.77721C68.6977 9.0206 67.3973 9.15273 66.069 9.15273C60.9717 9.15273 56.9592 8.6868 52.4529 6.1416C48.8994 8.29042 44.9216 9.65342 40.2415 9.66038C40.1998 9.66038 40.1511 9.66038 40.1094 9.66038V32.8245H69.0245Z" fill="#FFDD00"></path><path d="M62.6904 65.6269C68.358 61.4823 71.7099 54.862 71.2162 45.2097C71.1605 44.6603 71.1188 44.6255 71.0771 44.0762H62.6904V65.6269Z" fill="#0054A4"></path><path d="M53.7178 69.7855C57.0905 68.8745 60.1295 67.5045 62.6955 65.6269V44.0762H53.7178V69.7855Z" fill="#A30046"></path><path d="M17.8223 65.6269C20.3883 67.5045 23.4203 68.8675 26.8 69.7855V44.0762H17.8223V65.6269Z" fill="#A30046"></path><path d="M9.296 45.2097C8.80226 54.862 12.1541 61.4823 17.8217 65.6269V44.0762H9.43509C9.39336 44.6255 9.35164 44.6603 9.296 45.2097Z" fill="#0054A4"></path><path d="M40.2788 48.8456C41.92 48.8456 43.4499 49.3185 44.7434 50.1321V44.082H35.7656V50.1599C37.073 49.3324 38.6168 48.8456 40.2788 48.8456Z" fill="#A30046"></path><path d="M40.2788 65.7577C38.6168 65.7577 37.073 65.2709 35.7656 64.4434V71.1402C35.9256 71.1471 36.0786 71.161 36.2385 71.168C39.2218 71.1819 41.92 71.2027 44.2635 71.168C44.4235 71.161 44.5765 71.1471 44.7364 71.1402V64.4712C43.436 65.2778 41.9131 65.7577 40.2719 65.7577H40.2788Z" fill="#A30046"></path><path d="M44.7402 44.0762V50.1262C47.1324 51.6214 48.7319 54.2709 48.7319 57.3029C48.7319 60.3349 47.1324 62.9774 44.7402 64.4725V71.1415C47.9113 70.9816 50.9294 70.5365 53.718 69.7855V44.0762H44.7402Z" fill="#0054A4"></path><path d="M31.8198 57.3029C31.8198 54.2917 33.3984 51.6561 35.7697 50.1541V44.0762H26.792V69.7855C29.5806 70.5365 32.5987 70.9816 35.7697 71.1415V64.4517C33.3984 62.9496 31.8198 60.314 31.8198 57.3098V57.3029Z" fill="#0054A4"></path><path d="M13.502 16.4059C14.107 19.3405 14.1209 22.2264 13.7384 24.9664H22.4588V32.8175H31.0193V24.9664H40.1431V16.4059H31.0193V7.69237C29.9971 7.24035 29.0096 6.71879 28.0499 6.1416C26.1376 7.21949 24.3086 7.92881 22.4588 8.38082V16.4059H13.502Z" fill="#E31837"></path><path d="M58.5815 32.8253V8.50681C57.5523 8.28428 56.5301 7.98525 55.5078 7.58887V32.8323H58.5815V32.8253Z" fill="#E31837"></path><path d="M46.272 32.8253V8.85449C45.2845 9.1257 44.2553 9.33432 43.1982 9.47341V32.8253H46.272Z" fill="#E31837"></path><path d="M64.7358 32.8252V9.13955C63.6718 9.11869 62.6496 9.07001 61.6621 8.97266V32.8183H64.7358V32.8252Z" fill="#E31837"></path><path d="M52.4282 32.8251V6.16309C51.4407 6.76114 50.4115 7.29661 49.3545 7.75558V32.8182H52.4282V32.8251Z" fill="#E31837"></path><path d="M79.7615 40.2443L78.5863 39.0274C73.5793 33.8326 66.4931 20.8285 75.5334 8.81874L76.2428 7.87298L72.8283 3.08856L71.6044 3.51276C69.7615 4.14558 67.8492 4.48633 66.0689 4.48633C60.909 4.48633 57.5223 3.98564 53.3638 1.22486L52.3902 0.578125L51.4305 1.24572C47.7449 3.80483 44.1983 4.99398 40.2553 4.99398C36.3123 4.99398 32.7657 3.80483 29.08 1.24572L28.1204 0.578125L27.1468 1.22486C22.9813 3.97868 19.6016 4.48633 14.4417 4.48633C12.6614 4.48633 10.749 4.15253 8.90619 3.51276L7.68226 3.08856L4.2678 7.87298L4.97712 8.81874C14.0105 20.8285 6.93122 33.8257 1.92427 39.0274L0.749023 40.2443L1.94513 41.4404C2.59186 42.0802 3.73234 43.2694 4.67114 44.2638C4.67114 44.3194 4.67114 44.3681 4.67114 44.4168C4.67114 44.5211 4.67114 44.6046 4.64332 44.7715V44.8827C4.17044 53.5475 6.43053 60.6755 11.3471 66.0788C16.5557 71.809 24.699 75.2304 34.3234 75.7589C36.7087 77.9286 39.1287 79.7297 39.24 79.8132L40.2692 80.5781L41.2984 79.8132C41.4027 79.7297 43.8158 77.9356 46.1941 75.7589C55.8186 75.2304 63.9618 71.809 69.1704 66.0788C74.087 60.6755 76.3401 53.5475 75.8811 44.8827V44.7715C75.8533 44.6046 75.8464 44.5211 75.8464 44.4168C75.8464 44.3681 75.8464 44.3194 75.8464 44.2638C76.7921 43.2694 77.9326 42.0872 78.5793 41.4404L79.7754 40.2443H79.7615ZM74.0592 43.631C74.1496 44.5002 74.0939 44.4655 74.1565 44.9731C75.1857 64.2777 61.7365 73.3945 45.4848 74.0691C43.0022 76.3918 40.2622 78.4293 40.2622 78.4293C40.2622 78.4293 37.5154 76.3918 35.0258 74.0691C18.7741 73.3945 5.32482 64.2777 6.34708 44.9731C6.40967 44.4655 6.35403 44.5002 6.44444 43.631C5.51259 42.6435 3.96877 41.0371 3.15514 40.2235C8.98268 34.1734 15.7907 20.3347 6.34708 7.78953L8.3429 5.14697C10.2275 5.80066 12.3276 6.21095 14.4417 6.21095C19.8589 6.21095 23.5515 5.67548 28.0995 2.66436C31.6948 5.16088 35.5891 6.7186 40.2553 6.7186C44.9215 6.7186 48.8158 5.15392 52.4111 2.66436C56.959 5.67548 60.6517 6.21095 66.0689 6.21095C68.176 6.21095 70.2761 5.80066 72.1677 5.14697L74.1635 7.78953C64.7198 20.3347 71.5209 34.1804 77.3554 40.2235C76.5418 41.0371 74.998 42.6435 74.0661 43.631H74.0592Z" fill="#231F20"></path><path d="M9.17589 44.0558C9.15503 44.3478 9.12721 44.4939 9.10635 44.6469C9.08548 44.779 9.06462 44.925 9.03681 45.1962C8.66128 52.6232 10.5111 58.6316 14.5514 63.0544C19.1828 68.1309 26.6794 71.0238 36.2482 71.4202H36.6098C38.2023 71.4341 39.7114 71.441 41.13 71.441C42.2426 71.441 43.2927 71.441 44.2872 71.4202C53.8421 71.0238 61.3456 68.1309 65.97 63.0544C70.0034 58.6246 71.8602 52.6163 71.4777 45.1823C71.4499 44.932 71.429 44.786 71.4081 44.6469C71.3803 44.4869 71.3595 44.3478 71.3386 44.0558L71.3177 43.8193H9.19675L9.17589 44.0558ZM9.55141 45.238C9.57922 45.0015 9.60009 44.8624 9.62095 44.7303C9.64181 44.6121 9.65572 44.5008 9.67658 44.3339H70.8449C70.8657 44.5008 70.8796 44.6121 70.9005 44.7303C70.9214 44.8555 70.9422 44.9946 70.97 45.2241C71.3386 52.505 69.5305 58.3882 65.5945 62.7067C61.0604 67.6789 53.6891 70.5161 44.2802 70.9056C42.034 70.9334 39.461 70.9264 36.6237 70.9056H36.2691C26.8532 70.5161 19.4819 67.6789 14.9478 62.7067C11.0118 58.3882 9.19675 52.505 9.57227 45.238H9.55141Z" fill="#231F20"></path><path d="M11.2486 32.7204L11.0887 33.082H69.4197L69.2597 32.7204C66.7284 26.9067 64.83 18.0611 70.1777 8.90953L70.4628 8.41579L69.9065 8.5201C68.613 8.77045 67.3265 8.89562 66.0678 8.89562C60.8592 8.89562 56.9857 8.40884 52.5838 5.91927L52.4517 5.84277L52.3195 5.91927C48.453 8.25585 44.5031 9.39632 40.2472 9.40328C35.9983 9.40328 32.0553 8.2628 28.1888 5.91927L28.0567 5.84277L27.9245 5.91927C23.5226 8.40884 19.6422 8.89562 14.4405 8.89562C13.2236 8.89562 11.9371 8.7774 10.6158 8.54096L10.0664 8.44361L10.3515 8.92344C15.6923 18.0611 13.7869 26.9067 11.2556 32.7134L11.2486 32.7204ZM40.4072 9.91788C44.6561 9.89006 48.606 8.74959 52.4656 6.44083C56.9162 8.92344 60.8314 9.41023 66.0747 9.41023C67.1874 9.41023 68.3209 9.31287 69.4614 9.12511C64.4475 18.1029 66.1791 26.7468 68.6408 32.5604H40.4141V9.91788H40.4072ZM11.0678 9.13902C12.2291 9.31982 13.3696 9.41023 14.4475 9.41023C19.6909 9.41023 23.606 8.92344 28.0567 6.44083C31.8536 8.71482 35.734 9.84834 39.8926 9.91788V32.5674H11.8814C14.3432 26.7468 16.0747 18.1098 11.0678 9.13902Z" fill="#231F20"></path><path d="M32.8911 36.1832V34.4795H27.1191V42.4767H28.8577V39.1805H31.2151V37.4837H28.8577V36.1832H32.8911Z" fill="#231F20"></path><path d="M39.6558 36.0781C40.2887 36.0781 40.7268 36.3424 41.0119 36.8848L41.0467 36.9543L42.6531 36.2103L42.6183 36.1338C42.055 34.9655 41.0397 34.3535 39.6767 34.3535C37.5766 34.3535 36.1162 36.0503 36.1162 38.4773C36.1162 40.9808 37.4931 42.6011 39.6211 42.6011C41.0119 42.6011 42.0133 41.9891 42.5974 40.7861L42.6322 40.7165L41.1718 39.8542L41.1301 39.9238C40.7129 40.6192 40.3165 40.8765 39.6698 40.8765C38.6127 40.8765 37.8965 39.9098 37.8965 38.4773C37.8965 36.9961 38.571 36.0781 39.6558 36.0781Z" fill="#231F20"></path><path d="M53.0651 36.6284C53.0651 35.2793 52.1054 34.4727 50.499 34.4727H46.8203V42.4699H50.4643C52.2584 42.4699 53.3363 41.4893 53.3363 39.8551C53.3363 39.0971 52.9677 38.4713 52.328 38.1305C52.8008 37.7898 53.072 37.2473 53.072 36.6215L53.0651 36.6284ZM48.5241 36.086H50.4295C51.2083 36.086 51.3057 36.4407 51.3057 36.7536C51.3057 37.1917 51.0414 37.4073 50.506 37.4073H48.5241V36.093V36.086ZM50.5199 40.8148H48.5241V38.9581H50.5199C51.2223 38.9581 51.5561 39.2501 51.5561 39.8829C51.5561 40.5158 51.2014 40.8148 50.5199 40.8148Z" fill="#231F20"></path><path d="M40.2191 65.8983C44.9827 65.8983 48.8561 62.0248 48.8561 57.2543C48.8561 52.4907 44.9827 48.6104 40.2191 48.6104C35.4556 48.6104 31.5752 52.4907 31.5752 57.2543C31.5752 62.0179 35.4486 65.8983 40.2191 65.8983ZM40.2191 65.3767C38.5432 65.3767 36.9855 64.869 35.6851 63.9928C37.4027 63.9163 39.6767 63.4782 41.0954 62.6368C42.4653 61.8231 43.9187 60.8009 44.1899 59.4379C45.1844 58.9372 47.0898 59.1736 47.3332 61.1764C45.9493 63.6799 43.2859 65.3767 40.2191 65.3767ZM36.2136 59.118C36.61 59.3823 37.0898 59.5561 37.66 59.6326C38.7866 59.7786 40.3582 58.659 40.4556 57.3864C42.0064 56.2877 43.2025 57.2821 43.5641 58.1444C44.2734 59.8482 42.7783 61.0721 40.845 62.2265C39.3499 63.1166 36.749 63.5408 35.0522 63.5269C34.1552 62.7898 33.418 61.8579 32.9104 60.8078C32.973 60.8078 33.0425 60.8078 33.1051 60.8078C34.4403 60.8078 35.5738 60.1959 36.2066 59.1111L36.2136 59.118ZM34.9201 55.0151C34.8993 53.4226 35.3513 52.0318 35.7059 50.5088C36.8116 49.7647 38.1121 49.2919 39.5098 49.1736C38.571 50.1959 38.7657 51.691 39.7324 52.4629C39.5029 52.6298 39.3012 52.8454 39.1274 53.1305C38.4111 54.264 38.3068 56.1695 39.9688 57.3864C39.8645 58.3391 38.5988 59.271 37.7226 59.1597C35.8381 58.9163 34.9479 57.1709 34.9201 55.022V55.0151ZM44.2247 58.8955C44.2108 58.5964 44.1413 58.2835 44.0022 57.9497C43.571 56.9205 42.0828 55.6618 40.2122 56.9553C38.8353 55.9191 38.9187 54.3405 39.5307 53.3739C40.4764 51.8788 42.6183 52.4768 44.5794 53.5686C46.1719 54.4588 47.8339 56.3155 48.2998 57.9984C48.2233 58.8746 48.0008 59.7021 47.667 60.474C47.1176 58.7564 45.3235 58.506 44.2247 58.8955ZM44.8158 53.1514C43.3972 52.3586 41.5335 51.6354 40.1913 52.1917C39.176 51.5589 39.0022 49.9734 40.2817 49.1319C44.5724 49.1667 48.0634 52.5255 48.3207 56.7606C47.5557 55.2932 46.1579 53.8955 44.8158 53.1514ZM35.094 50.9469C34.941 51.545 34.7949 52.0665 34.6767 52.595C34.2595 54.5074 34.2664 57.3934 35.8172 58.812C35.2817 59.7647 34.3012 60.3211 33.0981 60.3211C32.9521 60.3211 32.813 60.3141 32.6739 60.2932C32.2915 59.3544 32.0828 58.3252 32.0828 57.2473C32.0828 54.7021 33.2511 52.4351 35.0801 50.9469H35.094Z" fill="#231F20"></path></svg>