<svg xmlns="http://www.w3.org/2000/svg" width="80" height="81" viewBox="0 0 80 81" fill="none"><path d="M40 0.578125C17.9491 0.578125 0 18.5215 0 40.5781C0 62.6347 17.9434 80.5781 40 80.5781C62.0566 80.5781 80 62.629 80 40.5781C80 18.5272 62.0566 0.578125 40 0.578125Z" fill="#00295C"></path><path d="M75.8351 40.5778C75.8351 20.7854 59.7918 4.74219 39.9938 4.74219C20.2071 4.74219 4.1582 20.7854 4.1582 40.5778C4.1582 60.3758 20.2071 76.4134 39.9938 76.4134C59.7805 76.4134 75.8351 60.3701 75.8351 40.5778Z" fill="white"></path><path d="M62.813 40.5779C62.813 27.9823 52.5954 17.7646 39.9941 17.7646C27.3928 17.7646 17.1865 27.9766 17.1865 40.5779C17.1865 53.1792 27.3984 63.3912 39.9941 63.3912C52.5897 63.3912 62.813 53.1792 62.813 40.5779Z" fill="#6FADDC"></path><path d="M39.9945 65.2C26.4203 65.2 15.3721 54.1518 15.3721 40.5776C15.3721 27.0035 26.4203 15.9609 39.9945 15.9609C53.5743 15.9609 64.6169 27.0035 64.6169 40.5776C64.6169 54.1518 53.5686 65.2 39.9945 65.2ZM39.9945 17.3377C27.1769 17.3377 16.7488 27.7601 16.7488 40.5776C16.7488 53.3952 27.1769 63.8233 39.9945 63.8233C52.812 63.8233 63.2458 53.3952 63.2458 40.5776C63.2458 27.7601 52.8177 17.3377 39.9945 17.3377Z" fill="#00295C"></path><path d="M39.9945 78.9389C18.8425 78.9389 1.63867 61.7294 1.63867 40.5717C1.63867 19.4139 18.8482 2.21582 39.9945 2.21582C61.1409 2.21582 78.3561 19.4253 78.3561 40.5774C78.3561 61.7294 61.1466 78.9446 39.9945 78.9446M39.9945 3.05212C19.3033 3.05212 2.46928 19.8861 2.46928 40.5774C2.46928 61.2686 19.3033 78.1083 39.9945 78.1083C60.6914 78.1083 77.5255 61.2743 77.5255 40.5774C77.5255 19.8861 60.6914 3.05212 39.9945 3.05212Z" fill="#6FADDC"></path><path d="M7.98134 39.7017L7.33278 39.8609L7.16211 39.1953L8.23166 38.8767H8.78919V42.6202H7.98134V39.7073V39.7017ZM9.72789 41.5961V41.5847C9.72789 41.1353 9.9327 40.8679 10.3309 40.6916C10.0465 40.5152 9.85874 40.2763 9.85874 39.878V39.8666C9.85874 39.2977 10.3764 38.8483 11.1615 38.8483C11.9466 38.8483 12.47 39.292 12.47 39.8666V39.878C12.47 40.2763 12.2823 40.5152 11.9978 40.6916C12.3733 40.885 12.5952 41.1239 12.5952 41.5677V41.5791C12.5952 42.2674 11.9865 42.6714 11.1615 42.6714C10.3366 42.6714 9.72789 42.2447 9.72789 41.6018V41.5961ZM11.8044 41.5335V41.5222C11.8044 41.2377 11.5313 41.067 11.1615 41.067C10.7918 41.067 10.5187 41.2377 10.5187 41.5222V41.5335C10.5187 41.7896 10.7576 41.9944 11.1615 41.9944C11.5655 41.9944 11.8044 41.7896 11.8044 41.5335ZM11.6906 39.969V39.9577C11.6906 39.7301 11.4915 39.5196 11.1559 39.5196C10.8202 39.5196 10.6268 39.7244 10.6268 39.9463V39.9577C10.6268 40.2194 10.8316 40.4128 11.1559 40.4128C11.4801 40.4128 11.6906 40.2194 11.6906 39.9634V39.969ZM68.6953 41.0955C68.5019 41.2548 68.2573 41.3515 67.9444 41.3515C67.1365 41.3515 66.6188 40.9077 66.6188 40.1511V40.1397C66.6188 39.3888 67.1991 38.8369 68.0354 38.8369C68.536 38.8369 68.8262 38.9564 69.1106 39.2408C69.3723 39.5082 69.5487 39.9122 69.5487 40.6404V40.6517C69.5487 41.8578 68.9798 42.6827 67.9273 42.6827C67.3868 42.6827 67.017 42.5007 66.7041 42.239L67.1365 41.6189C67.4096 41.8351 67.6372 41.9375 67.9501 41.9375C68.5133 41.9375 68.6726 41.4084 68.701 41.0955H68.6953ZM68.7124 40.117V40.1056C68.7124 39.7756 68.4678 39.5367 68.0582 39.5367C67.6485 39.5367 67.4267 39.7699 67.4267 40.0999V40.1113C67.4267 40.4412 67.6713 40.6688 68.0752 40.6688C68.4791 40.6688 68.7124 40.4355 68.7124 40.117ZM72.16 41.818H70.3452L70.2143 41.2377L72.251 38.871H72.9394V41.1467H73.44V41.8123H72.9394V42.6145H72.16V41.8123V41.818ZM72.16 41.1524V39.9975L71.1701 41.1524H72.16Z" fill="#6FADDC"></path><path d="M40.0005 63.83C27.183 63.83 16.7549 53.3962 16.7549 40.5786C16.7549 27.7611 27.1887 17.333 40.0005 17.333C52.8123 17.333 63.2518 27.7611 63.2518 40.5786C63.2518 53.4018 52.8237 63.83 40.0005 63.83ZM40.0005 18.1921C27.6609 18.1921 17.6139 28.2333 17.6139 40.5786C17.6139 52.924 27.6609 62.9709 40.0005 62.9709C52.3402 62.9709 62.3928 52.924 62.3928 40.5786C62.3928 28.2333 52.3458 18.1921 40.0005 18.1921Z" fill="white"></path><path fill-rule="evenodd" clip-rule="evenodd" d="M39.573 20.5693C28.0981 20.5693 21.476 22.0713 21.476 22.0713C21.476 22.0713 18.8306 32.1239 20.3325 45.0097C20.964 50.4143 25.3617 62.0485 39.9314 66.0195C54.5012 62.0485 58.8932 50.4143 59.5247 45.0097C61.0323 32.1239 58.3811 22.0713 58.3811 22.0713C58.3811 22.0713 51.759 20.5693 40.2841 20.5693H39.5616H39.573Z" fill="#00295C"></path><path fill-rule="evenodd" clip-rule="evenodd" d="M57.0266 41.3582C57.4818 31.6811 55.8376 23.8244 55.8376 23.8244C55.8376 23.8244 49.5455 22.624 39.9537 22.624C30.3448 22.624 23.956 23.9553 23.956 23.9553C23.956 23.9553 22.2094 31.846 22.6873 41.3582H57.0266Z" fill="white"></path><path fill-rule="evenodd" clip-rule="evenodd" d="M57.5287 42.0059C57.523 42.2164 57.5116 42.4553 57.5002 42.717C57.5002 42.7454 57.5002 42.7682 57.5002 42.7966C57.5002 42.8251 57.5002 42.8478 57.5002 42.8763C57.4831 43.2176 57.4547 43.5874 57.4206 43.9914C57.3011 45.2486 57.0565 46.7961 56.5274 48.4914C56.0893 49.8853 55.4578 51.3815 54.5419 52.9005C53.7795 54.1748 52.8124 55.4662 51.5892 56.7349C50.7131 57.6509 49.7005 58.5497 48.5342 59.4202C47.3509 60.3077 46.0139 61.161 44.5006 61.9689C43.3002 62.6117 41.9861 63.2205 40.5524 63.7894C40.3533 63.869 40.1428 63.9487 39.938 64.0283C23.2121 57.7817 22.3359 45.6981 22.3359 42.0115H57.5343L57.5287 42.0059Z" fill="#98C2E5"></path><path d="M40.5465 63.7835C40.3474 63.8632 40.1369 63.9428 39.9321 64.0225C23.2062 57.7759 22.3301 45.6922 22.3301 42.0057H22.5292L40.5465 63.7835ZM34.0951 42.0057H27.9509L44.4891 61.963C46.0024 61.1552 47.3393 60.3018 48.5227 59.4143L34.0894 42L34.0951 42.0057ZM45.5131 42.0057H39.3689L51.5777 56.7347C52.7952 55.4661 53.7623 54.1747 54.5303 52.9003L45.5131 42.0057ZM51.1283 42H51.134L56.5101 48.4913C57.0449 46.7959 57.2839 45.2485 57.4033 43.9912C57.4375 43.5816 57.4659 43.2004 57.483 42.8761C57.483 42.8477 57.483 42.8192 57.483 42.7965C57.483 42.768 57.483 42.7453 57.483 42.7168C57.5 42.4039 57.5114 42.1593 57.5114 42.0057H51.1112L51.1283 42Z" fill="#6FAEDD"></path><path d="M47.1226 50.1021C47.0771 49.9599 46.969 49.8518 46.8268 49.8006L45.8141 49.4479C45.7231 49.4194 45.6321 49.4194 45.541 49.4479C45.4614 49.0952 45.2623 48.7766 44.9664 48.5661C44.9323 48.5376 44.8925 48.5149 44.8526 48.4921C44.7844 48.4466 44.7104 48.4068 44.6308 48.3726C44.4999 48.3158 44.3691 48.2759 44.2382 48.2361C43.9367 48.1394 43.6523 48.0484 43.2768 47.781C42.9297 47.5307 42.7704 47.2974 42.6168 47.0812C42.577 47.0243 42.5429 46.9731 42.5087 46.9276C42.4063 46.7683 42.2812 46.6375 42.1276 46.5237C41.8716 46.3359 41.57 46.2449 41.2515 46.2449C41.1832 46.2449 41.1149 46.2563 41.0466 46.2734C41.0466 46.2734 41.0466 46.2677 41.0466 46.262C41.0637 46.1368 41.0353 46.006 40.9613 45.9036L40.3298 45.0616C40.2388 44.9421 40.0966 44.8682 39.9487 44.8682C39.8007 44.8682 39.6585 44.9364 39.5675 45.0502L38.9132 45.8979C38.8336 46.006 38.7995 46.1425 38.8222 46.2734C38.7653 46.2734 38.7198 46.2563 38.6629 46.2563C38.3443 46.2563 38.0428 46.353 37.7868 46.5351C37.7527 46.5635 37.7185 46.592 37.6844 46.6204C37.6161 46.6716 37.5592 46.7228 37.5023 46.7911C37.4056 46.8992 37.326 47.0073 37.252 47.1154C37.0643 47.3714 36.8936 47.6103 36.5124 47.8777C36.1654 48.128 35.898 48.2077 35.6363 48.2873C35.5737 48.3044 35.5112 48.3214 35.4543 48.3442C35.2722 48.3897 35.1015 48.4637 34.9479 48.5775C34.6464 48.7936 34.4416 49.1236 34.3677 49.4877C34.2652 49.4479 34.1515 49.4422 34.0434 49.4763L33.0364 49.812C32.8942 49.8575 32.7804 49.9713 32.7349 50.1135C32.6894 50.2557 32.7121 50.4093 32.7975 50.5288L33.4062 51.4049C33.4745 51.5016 33.5769 51.5642 33.6963 51.5927C33.5314 51.934 33.5029 52.3266 33.6224 52.685C33.6338 52.7248 33.6508 52.7703 33.6679 52.8101C33.6963 52.8898 33.7305 52.9581 33.776 53.0377C33.8499 53.1572 33.9296 53.271 34.0092 53.3734C34.197 53.6294 34.3733 53.8683 34.5156 54.3064C34.6464 54.7103 34.6407 54.9891 34.635 55.2564C34.635 55.319 34.635 55.3873 34.635 55.4442C34.6237 55.6319 34.6464 55.814 34.7033 55.9903C34.8228 56.3487 35.0674 56.6332 35.3746 56.8096C35.3348 56.8778 35.3064 56.9575 35.312 57.0371V58.0896C35.3234 58.2375 35.3917 58.3798 35.5169 58.4651C35.6363 58.5504 35.7899 58.5789 35.9322 58.5334L36.9619 58.2318C37.0529 58.2034 37.1269 58.1408 37.1838 58.0725C37.491 58.3627 37.9233 58.5106 38.3386 58.4765C38.4183 58.4765 38.4979 58.4651 38.589 58.4423C38.7312 58.4082 38.862 58.3684 38.9872 58.3229C39.2887 58.2262 39.5732 58.1351 40.0397 58.1351C40.472 58.1351 40.7337 58.2261 40.9898 58.3172C41.0523 58.3399 41.1092 58.3627 41.1661 58.3798C41.3425 58.448 41.5302 58.4822 41.718 58.4822C42.0934 58.4822 42.4632 58.3342 42.7363 58.0725C42.7932 58.1408 42.8615 58.1977 42.9525 58.2262L43.9652 58.5391C44.1074 58.5846 44.2667 58.5618 44.3861 58.4765C44.5113 58.3911 44.5796 58.2546 44.5853 58.101L44.6137 57.0371C44.6137 56.9518 44.591 56.8722 44.5511 56.8039C44.864 56.6275 45.1087 56.3431 45.2224 55.979C45.2395 55.9335 45.2509 55.8936 45.2623 55.8481C45.285 55.7685 45.2964 55.6888 45.3021 55.6035C45.3135 55.4613 45.3135 55.3247 45.3135 55.1939C45.3135 54.8753 45.3135 54.5794 45.4557 54.1414C45.5865 53.7375 45.7572 53.5156 45.9222 53.3051C45.962 53.2539 46.0018 53.2027 46.036 53.1572C46.1555 53.0149 46.2465 52.85 46.3034 52.6736C46.4285 52.3038 46.3887 51.8942 46.2123 51.5472C46.3034 51.513 46.383 51.4675 46.4399 51.3879L47.0543 50.5288C47.1454 50.4093 47.1681 50.2557 47.1226 50.1135V50.1021Z" fill="#00295C"></path><path d="M39.9649 47.3365C39.8625 46.9724 39.6406 46.6595 39.3505 46.4832L39.9649 45.6924L40.5622 46.4832C40.2664 46.688 40.0673 46.9781 39.9649 47.3365ZM35.1861 50.8296C34.8732 50.6248 34.6513 50.3461 34.5489 50.0047L33.6045 50.3176L34.1791 51.1425C34.4408 50.9263 34.8106 50.8126 35.1861 50.8296ZM37.035 56.3594C36.7392 56.5927 36.4035 56.7122 36.0451 56.7065V57.6964L37.0236 57.4119C36.8928 57.099 36.9042 56.7178 37.035 56.3594ZM42.9005 56.3708C43.0313 56.7235 43.0427 57.0763 42.9289 57.4119L43.879 57.7077L43.9017 56.7065C43.5604 56.7292 43.1963 56.6097 42.9005 56.3708ZM44.7096 50.841C45.0908 50.8239 45.4321 50.9263 45.7166 51.1368L46.2969 50.3347L45.3411 49.999C45.2614 50.329 45.0282 50.6305 44.7096 50.8467M38.7588 56.3993C38.3151 56.3993 37.9566 56.0408 37.9566 55.6028C37.9566 55.5402 37.8998 55.5174 37.8656 55.5573C37.5812 55.91 37.3479 56.2172 37.3422 56.6041C37.3308 57.1616 37.7974 57.611 38.3549 57.611C38.389 57.611 38.4232 57.611 38.4573 57.6053C38.5085 57.6053 38.5597 57.6053 38.628 57.5826C39.0262 57.4859 39.3675 57.2924 40.0445 57.2924C40.6078 57.2924 40.9093 57.4404 41.2051 57.5371C41.3246 57.5883 41.4554 57.611 41.592 57.611C42.1495 57.611 42.616 57.1616 42.6046 56.6041C42.5989 56.2229 42.3657 55.9157 42.0812 55.5573C42.0528 55.5231 42.0073 55.5459 42.0073 55.6028C42.0073 56.0408 41.6432 56.3993 41.1994 56.3993C40.8638 56.3993 40.4314 56.1148 40.0104 56.1148C39.6179 56.1148 39.0945 56.3993 38.7588 56.3993ZM38.2297 55.3013C38.2297 55.6711 38.5312 55.9726 38.901 55.9726C38.9409 55.9726 38.9807 55.9726 39.0376 55.9612C39.0546 55.9612 39.0717 55.9498 39.0888 55.9441C39.1002 55.9441 39.1058 55.9441 39.1115 55.9384C39.3391 55.8645 39.561 55.7564 39.9592 55.7564C40.3574 55.7564 40.5736 55.8702 40.7955 55.9271C40.8695 55.9555 40.9491 55.9726 41.0344 55.9726C41.4042 55.9726 41.7058 55.6711 41.7058 55.3013C41.7058 54.9315 41.683 55.1135 41.6489 55.0282C41.6318 54.994 41.6147 54.9599 41.592 54.9315C41.592 54.9315 40.4542 53.3897 40.42 53.3442C40.3631 53.2703 40.2949 53.3044 40.2437 53.3158C40.1925 53.3328 40.0502 53.367 39.9592 53.367C39.8682 53.367 39.7487 53.3499 39.6804 53.3158C39.6065 53.2873 39.5496 53.2646 39.4984 53.3442C39.4586 53.4068 38.6393 54.5048 38.3833 54.8632C38.2809 54.9827 38.2183 55.1306 38.2183 55.2956L38.2297 55.3013ZM43.4523 54.7892C43.3158 55.2102 42.8606 55.4378 42.4396 55.3013C42.3828 55.2842 42.3372 55.324 42.3714 55.3752C42.6217 55.7507 42.8436 56.0636 43.2134 56.1888C43.7425 56.3708 44.317 56.0693 44.4934 55.5459C44.5048 55.5118 44.5105 55.4776 44.5162 55.4435C44.5332 55.398 44.5446 55.3411 44.5503 55.2785C44.5787 54.8689 44.4991 54.4934 44.7096 53.8505C44.8803 53.3271 45.1192 53.0882 45.3013 52.8322C45.3866 52.7355 45.4492 52.6217 45.4947 52.4965C45.6654 51.9675 45.3809 51.3929 44.8461 51.2336C44.4763 51.1198 44.1066 51.2449 43.6799 51.4042C43.64 51.4213 43.6457 51.4668 43.6969 51.4839C44.1236 51.6204 44.3569 52.0755 44.2146 52.4908C44.1066 52.8094 43.7026 53.1223 43.5718 53.5206C43.4523 53.8904 43.5604 54.4707 43.458 54.7892H43.4523ZM42.2348 54.9485C42.5876 55.0623 42.9687 54.8689 43.0825 54.5219C43.0996 54.4877 43.1053 54.4422 43.111 54.391C43.111 54.3739 43.111 54.3569 43.111 54.3341C43.111 54.3284 43.111 54.317 43.111 54.3114C43.111 54.0667 43.0768 53.8278 43.1963 53.4523C43.3271 53.0598 43.4978 52.9062 43.623 52.7127C43.6742 52.6501 43.7083 52.5819 43.7368 52.5022C43.8505 52.1495 43.6571 51.774 43.3044 51.6602C43.2134 51.6318 43.1167 51.6261 43.0256 51.6318C42.9858 51.6318 42.9517 51.6432 42.9175 51.6489C42.9175 51.6489 41.0913 52.2405 41.0344 52.2633C40.9491 52.2974 40.9548 52.3714 40.9548 52.4283C40.9548 52.4795 40.9434 52.6217 40.915 52.7127C40.8865 52.7981 40.8296 52.9005 40.7784 52.9574C40.7272 53.0199 40.6874 53.0654 40.75 53.1337C40.8012 53.1906 41.5977 54.3 41.865 54.6527C41.9447 54.7836 42.0699 54.886 42.2348 54.9428V54.9485ZM43.3385 49.8397C43.7026 50.1014 43.7823 50.5964 43.5149 50.9548C43.4808 51.0003 43.5149 51.0572 43.5661 51.0401C44.0098 50.9207 44.3739 50.8069 44.6072 50.4997C44.9428 50.0559 44.8348 49.4244 44.3853 49.0945C44.3569 49.0774 44.3284 49.0546 44.2943 49.0376C44.2545 49.0091 44.209 48.9807 44.1464 48.9579C43.7652 48.8043 43.3727 48.7645 42.8265 48.3663C42.3714 48.042 42.2178 47.7461 42.03 47.4958C41.9675 47.3877 41.8764 47.291 41.7626 47.2114C41.3132 46.8871 40.6703 46.9781 40.3461 47.4332C40.1242 47.7461 40.1299 48.133 40.1526 48.5824C40.1526 48.628 40.2095 48.6336 40.2323 48.5938C40.494 48.2354 41.0003 48.1614 41.3587 48.4175C41.6318 48.6109 41.8082 49.0945 42.1495 49.3391C42.4624 49.5667 43.0541 49.6406 43.3271 49.834L43.3385 49.8397ZM43.1167 51.0344C43.3385 50.7386 43.2703 50.3176 42.9687 50.1071C42.9403 50.0787 42.9062 50.0559 42.855 50.0388C42.8379 50.0332 42.8208 50.0275 42.8038 50.0218C42.7981 50.0218 42.7867 50.0161 42.781 50.0161C42.5534 49.9364 42.3031 49.8966 41.9845 49.6691C41.6489 49.4244 41.5578 49.2196 41.4099 49.0376C41.3644 48.975 41.3132 48.9124 41.2449 48.8669C40.9434 48.6507 40.5224 48.719 40.3062 49.0148C40.2493 49.0945 40.2095 49.1798 40.1925 49.2708C40.1868 49.305 40.1754 49.3448 40.1754 49.3789C40.1754 49.3789 40.1811 51.2848 40.1868 51.3417C40.1868 51.4327 40.2664 51.4497 40.3176 51.4668C40.3688 51.4839 40.5054 51.5408 40.5793 51.592C40.6533 51.6432 40.7386 51.7285 40.7784 51.7968C40.8183 51.865 40.8581 51.9163 40.9377 51.8821C41.0117 51.8537 42.3202 51.4384 42.7355 51.3018C42.8891 51.2677 43.0256 51.1767 43.1223 51.0458L43.1167 51.0344ZM38.5654 48.4288C38.9238 48.1671 39.4301 48.2468 39.6918 48.6052C39.726 48.6507 39.7828 48.6393 39.7885 48.5824C39.8113 48.133 39.8113 47.7461 39.5951 47.4332C39.2765 46.9781 38.6336 46.8871 38.1785 47.2114C38.1501 47.2341 38.1216 47.2569 38.0932 47.2796C38.0534 47.3081 38.0135 47.3422 37.968 47.3934C37.7006 47.7006 37.547 48.059 36.9952 48.4516C36.5401 48.7759 36.2101 48.8328 35.9143 48.9295C35.7891 48.9636 35.6696 49.0148 35.5559 49.0945C35.1064 49.4187 34.9926 50.0559 35.334 50.4997C35.5672 50.8069 35.937 50.9207 36.3751 51.0401C36.4206 51.0515 36.4377 51.006 36.4092 50.9662C36.1475 50.6078 36.2272 50.1071 36.5856 49.8511C36.8587 49.652 37.3764 49.6349 37.712 49.3903C38.0306 49.1627 38.2809 48.628 38.554 48.4345L38.5654 48.4288ZM39.6463 49.0091C39.4301 48.7133 39.0034 48.645 38.7076 48.8612C38.6735 48.884 38.6393 48.9067 38.6052 48.9465C38.5938 48.9636 38.5824 48.975 38.5711 48.9864C38.5654 48.9977 38.5597 48.9977 38.554 49.0091C38.4061 49.2026 38.298 49.4187 37.9737 49.652C37.6381 49.8909 37.4105 49.9137 37.1943 49.999C37.1203 50.0218 37.0464 50.0502 36.9781 50.1014C36.6766 50.3176 36.6083 50.7386 36.8302 51.0344C36.8871 51.1084 36.9611 51.171 37.0407 51.2222C37.0748 51.2392 37.1033 51.2563 37.1374 51.2677C37.1374 51.2677 38.9693 51.8537 39.0262 51.8707C39.1172 51.8935 39.157 51.8309 39.1855 51.7854C39.2196 51.7456 39.3106 51.6318 39.3846 51.5749C39.4586 51.5237 39.5667 51.4725 39.6406 51.4554C39.7146 51.4384 39.7772 51.4213 39.7715 51.3303C39.7658 51.2563 39.7715 49.8909 39.7715 49.4529C39.7828 49.2993 39.743 49.14 39.6463 49.0034V49.0091ZM35.7493 52.5022C35.6127 52.0812 35.8403 51.6318 36.267 51.4953C36.3239 51.4782 36.3296 51.4156 36.2784 51.3985C35.8517 51.2392 35.4819 51.1141 35.1178 51.2279C34.583 51.3872 34.2929 51.9618 34.4692 52.4908C34.4806 52.5193 34.492 52.5534 34.5091 52.5876C34.5261 52.6331 34.5489 52.6843 34.5773 52.7355C34.7935 53.0882 35.0893 53.3442 35.2942 53.9814C35.4705 54.5105 35.4136 54.8404 35.4193 55.1477C35.4079 55.2728 35.4193 55.4037 35.4648 55.5345C35.6412 56.0636 36.2158 56.3594 36.7449 56.1774C37.109 56.0522 37.3365 55.7393 37.5812 55.3581C37.6096 55.3183 37.5698 55.2899 37.5186 55.3013C37.0976 55.4378 36.6425 55.2102 36.5059 54.7892C36.4035 54.4707 36.5401 53.9814 36.4149 53.5832C36.2954 53.2134 35.8574 52.8094 35.755 52.4965L35.7493 52.5022ZM36.6368 51.6602C36.2841 51.7797 36.0906 52.1495 36.2044 52.5022C36.2101 52.542 36.2272 52.5762 36.2556 52.6217C36.267 52.6388 36.2784 52.6501 36.2897 52.6672C36.2897 52.6729 36.2954 52.6786 36.3011 52.69C36.4433 52.8834 36.6197 53.0598 36.7392 53.4352C36.8643 53.8278 36.8188 54.0497 36.8302 54.2772C36.8302 54.3512 36.8359 54.4308 36.8643 54.5105C36.9781 54.8575 37.3593 55.0509 37.712 54.9372C37.803 54.9087 37.8884 54.8575 37.9566 54.7949C37.9851 54.7722 38.0135 54.7437 38.0363 54.7153C38.0363 54.7153 39.1627 53.1735 39.1969 53.1223C39.2481 53.0484 39.1969 52.9858 39.1684 52.946C39.14 52.9005 39.0603 52.781 39.0319 52.6957C39.0034 52.6103 38.9864 52.4908 38.9921 52.4169C39.0034 52.3372 39.0034 52.2747 38.9124 52.2576C38.8385 52.2405 37.53 51.8082 37.109 51.6773C36.9611 51.6147 36.8018 51.609 36.6425 51.6546L36.6368 51.6602Z" fill="#EA332E"></path><path d="M39.3846 52.3715C39.3846 52.0473 39.652 51.7799 39.9819 51.7799C40.3119 51.7799 40.5793 52.0473 40.5793 52.3715C40.5793 52.6958 40.3119 52.9632 39.9819 52.9632C39.652 52.9632 39.3846 52.6958 39.3846 52.3715ZM45.506 38.1261L50.5807 36.3681C50.5807 36.3681 49.5908 35.054 49.4656 33.3415C49.3689 32.0103 49.716 30.2979 49.716 30.2979L45.6027 31.7145L45.506 38.1261ZM28.1714 37.1532C29.2523 37.2613 30.1853 37.4604 30.1853 37.4604C30.1853 37.4604 29.952 35.9813 30.1625 34.8093C30.4982 32.9092 31.3004 31.7657 31.3004 31.7657C31.3004 31.7657 30.3901 32.1866 29.0077 33.5862C27.1758 35.4465 26.5557 37.1418 26.5557 37.1418C26.5557 37.1418 27.2611 37.0565 28.1714 37.1532ZM39.1684 25.7694C39.1684 25.7694 39.1854 25.7694 39.1911 25.7694C39.2822 25.758 39.322 25.7068 39.339 25.6442C39.339 25.6385 39.339 25.6499 39.339 25.6385C39.3504 25.5873 39.3846 25.5418 39.4301 25.519L39.3049 25.1436C39.1968 25.1777 39.1456 25.2573 39.1456 25.2858C39.1456 25.337 39.1115 25.3654 39.0546 25.3882L39.1684 25.775V25.7694ZM32.9559 29.6493C32.9559 29.6493 32.973 29.6493 32.9786 29.6493C33.0697 29.6379 33.1152 29.5867 33.1209 29.5242C33.1209 29.5185 33.1209 29.5242 33.1209 29.5128C33.1323 29.4616 33.1664 29.4217 33.2119 29.399L33.0867 29.0178C32.9786 29.052 32.9331 29.1316 32.9274 29.1601C32.9274 29.2113 32.8933 29.2397 32.8364 29.2625L32.9502 29.6493H32.9559ZM44.482 28.6765C44.482 28.6765 44.4991 28.6765 44.5047 28.6765C44.5958 28.6651 44.6413 28.6139 44.6527 28.5513C44.6527 28.5399 44.6527 28.5513 44.6527 28.5399C44.664 28.4887 44.6982 28.4432 44.7437 28.4205L44.6185 28.0393C44.5047 28.0734 44.4592 28.1531 44.4592 28.1815C44.4592 28.2327 44.4251 28.2612 44.3682 28.2839L44.482 28.6708V28.6765ZM32.9559 33.9446C34.7138 33.3415 36.6652 33.3131 36.6652 33.3131C36.6652 33.3131 35.9825 32.7157 35.7435 31.6519C35.5444 30.7701 35.8289 30.1955 35.8289 30.1955L31.9432 31.5267C31.9319 31.5608 31.3459 32.0672 31.2719 33.2391C31.2093 34.3826 31.7896 34.7297 31.7896 34.7297C31.7896 34.7297 32.0968 34.2404 32.9559 33.9446ZM40.8125 37.6823C42.9971 37.4092 45.5231 38.1374 45.5231 38.1374C45.5231 38.1374 44.1918 36.334 43.8448 34.889C43.5376 33.6089 43.8733 32.2606 43.8733 32.2606L37.7973 34.3542C37.7973 34.3542 37.0008 35.2132 37.2056 36.3966C37.4673 37.8871 38.5369 38.7007 38.5369 38.7007C38.5369 38.7007 38.7303 37.9497 40.8125 37.688V37.6823ZM37.894 30.3491C37.894 30.3491 38.0021 29.82 39.1172 29.4274C41.1254 28.7277 42.8378 28.8187 42.8378 28.8187C42.8378 28.8187 42.2064 28.2327 42.0698 27.112C42.0015 26.526 42.286 25.8376 42.286 25.8376L37.9225 27.3509C37.8883 27.3907 37.2455 28.1246 37.2853 29.0463C37.3422 30.1898 37.8883 30.3434 37.8883 30.3434L37.894 30.3491Z" fill="#FCC661"></path><path d="M32.3088 38.3941C32.3088 38.3941 31.5408 37.8195 31.3417 36.7613C31.1368 35.6747 31.6716 35.0318 31.6716 35.0318L36.6666 33.3194C36.6666 33.3194 36.3594 34.3093 36.6496 35.4414C37.0194 36.8751 37.7874 37.8309 37.7874 37.8309C37.7874 37.8309 35.9555 37.4895 34.1805 37.7114C32.4908 37.9219 32.3088 38.3998 32.3088 38.3998V38.3941ZM37.9126 34.0874C37.9126 34.0874 37.2811 33.3592 37.1616 32.2385C37.0364 31.0665 37.7362 30.5943 37.7874 30.5659L42.8336 28.8193C42.8336 28.8193 42.6971 29.1834 42.8222 30.2018C42.9303 31.0551 43.7723 32.2214 43.7723 32.2214C43.7723 32.2214 41.0871 32.2897 39.4145 32.9382C38.362 33.3479 37.9126 34.0817 37.9126 34.0817V34.0874Z" fill="#FDC661"></path><path d="M45.8033 38.0355V38.7865H45.3425L45.4449 28.3413C45.2174 28.3641 44.8646 28.4039 44.8077 28.4096C44.7338 28.4096 44.6655 28.4665 44.6484 28.5461C44.6484 28.5632 44.6484 28.5461 44.6484 28.5575C44.6371 28.6201 44.5916 28.6713 44.5005 28.6826C44.4323 28.6826 43.7609 28.7395 43.3001 28.7566C43.2489 28.7566 43.2205 28.6883 43.2944 28.6656C43.6927 28.529 44.2559 28.3299 44.3355 28.3072C44.4095 28.2844 44.4493 28.256 44.455 28.1934C44.455 28.1593 44.5062 28.0796 44.6257 28.0512C44.7281 28.0227 45.7009 27.6757 45.7009 27.6757L45.7863 37.387C45.9285 36.892 46.2528 36.1752 47.0037 35.3446C48.8584 33.3022 49.5183 31.0891 49.7004 30.304C49.5069 31.4817 49.3931 32.4602 49.5069 33.5866C49.6605 35.0886 50.5651 36.38 50.5651 36.38L45.7919 38.0412L45.8033 38.0355ZM29.4244 37.3016C29.9535 37.4211 30.1981 37.4723 30.1981 37.4723C30.1981 37.4723 29.9649 35.9931 30.1754 34.8212C30.511 32.921 31.2961 31.7718 31.2961 31.7718C31.2961 31.7718 27.1829 36.7896 29.4244 37.3016ZM34.226 33.1486L34.1862 28.6542H34.1748C34.0667 28.6883 33.202 28.9956 33.1053 29.0183C32.9858 29.0524 32.9346 29.1321 32.9346 29.1662C32.9346 29.2231 32.8891 29.2572 32.8151 29.28C32.7355 29.3028 32.1723 29.5019 31.774 29.6384C31.7001 29.6669 31.7285 29.7351 31.7854 29.7351C32.2462 29.7124 32.9118 29.6612 32.9801 29.6555C33.0711 29.6441 33.1167 29.5929 33.128 29.5303C33.128 29.5246 33.128 29.5303 33.128 29.5189C33.1451 29.445 33.2077 29.3881 33.2873 29.3824C33.3385 29.3824 33.6799 29.3426 33.9074 29.3141L33.8733 33.1486H34.226ZM40.0517 29.0866H40.3987V24.7686H40.393C40.393 24.7686 39.4145 25.1099 39.3178 25.1383C39.1983 25.1725 39.1471 25.2521 39.1471 25.2863C39.1471 25.3488 39.1016 25.3773 39.0276 25.4C38.948 25.4228 38.3848 25.6219 37.9865 25.7585C37.9126 25.7812 37.941 25.8552 37.9922 25.8552C38.453 25.8324 39.1186 25.7812 39.1869 25.7755C39.2779 25.7641 39.3235 25.7129 39.3348 25.6504C39.3348 25.6447 39.3348 25.6561 39.3348 25.6447C39.3519 25.5707 39.4145 25.5138 39.4941 25.5081C39.5453 25.5081 39.8753 25.4683 40.0972 25.4399L40.0573 29.0923L40.0517 29.0866ZM37.776 37.825C37.776 37.825 36.9682 36.6588 36.661 35.4128C36.3936 34.349 36.661 33.3193 36.661 33.3193C36.661 33.3193 36.1262 35.1511 34.8575 36.1467C33.97 36.8465 31.8195 37.4894 32.3088 38.3939C32.3771 38.2688 32.5989 38.0355 33.4921 37.8307C33.6002 37.808 33.7083 37.7852 33.8221 37.7681V39.253H34.2829V37.7055C35.9214 37.5349 37.776 37.825 37.776 37.825ZM31.7911 34.7358C31.8878 34.5822 32.2462 34.1328 33.3727 33.8199C35.0851 33.3477 36.661 33.3193 36.661 33.3193C36.661 33.3193 36.001 32.7276 35.7848 31.5955C35.6597 30.9412 35.819 30.1903 35.819 30.1903C35.819 30.1903 35.2102 31.3565 34.0895 32.2782C32.946 33.2225 31.4156 33.8825 31.7854 34.7358H31.7911ZM37.8841 30.3496C37.9524 30.1163 38.436 29.6896 39.1983 29.4222C40.9847 28.8021 42.8336 28.8192 42.8336 28.8192C42.8336 28.8192 42.2021 28.2332 42.0656 27.1125C41.9973 26.5265 42.2818 25.8381 42.2818 25.8381C42.2818 25.8381 41.5194 27.1921 40.74 27.8748C39.6591 28.8249 37.6167 29.4791 37.8898 30.3439L37.8841 30.3496ZM37.9126 34.0873C38.015 33.8939 38.7033 33.2339 39.8127 32.8641C41.5194 32.2952 43.8633 32.2611 43.8633 32.2611C43.8633 32.2611 43.0953 31.3451 42.8393 30.2415C42.6971 29.6214 42.8336 28.8249 42.8336 28.8249C42.8336 28.8249 42.3444 30.2301 41.2521 31.1688C40.1597 32.1075 37.685 33.1543 37.9182 34.0873H37.9126ZM45.6156 38.2233C45.6156 38.2233 44.2388 36.4539 43.8463 34.8838C43.5846 33.8483 43.778 32.6707 43.8633 32.2668C43.7154 32.8186 43.1522 34.5993 41.8153 35.8338C40.5352 37.0172 37.9922 37.5975 38.5327 38.7125C38.6294 38.5305 38.9195 38.1095 39.9493 37.8535L39.9265 39.2871H40.4101V37.7624C42.6573 37.404 45.6099 38.2289 45.6099 38.2289L45.6156 38.2233Z" fill="#D3A030"></path><path fill-rule="evenodd" clip-rule="evenodd" d="M47.9588 41.5626C48.2774 41.5 48.5959 41.4318 49.0624 41.3123C49.034 41.2952 49.0112 41.2782 48.9885 41.2554C48.4708 40.6865 48.5675 40.0778 48.8804 39.7876C50.0125 38.7238 50.0012 37.95 50.0012 37.95C50.0012 37.95 47.2419 38.519 43.6123 38.7067C43.379 38.7181 42.5314 39.0879 42.2867 39.0992C41.7861 39.1163 41.2741 39.1334 40.745 39.1391C33.8896 39.1903 31.9781 38.7181 29.7252 38.2971C27.4496 37.8704 26.4483 37.4096 26.4483 37.4096L26.363 37.6542C26.363 37.6542 28.1607 38.3483 29.4578 38.9798C29.7309 39.1106 30.8005 40.7206 31.1589 41.2611H23.0121C22.557 31.931 24.3661 24.2905 24.3661 24.2905C24.3661 24.2905 30.6013 22.9593 39.9713 22.9593V21.958C30.0267 21.958 23.4046 23.3689 23.4046 23.3689C23.4046 23.3689 20.5089 33.5694 22.045 45.71C22.6878 50.7733 26.875 60.2456 39.9371 64.6319L40.5117 63.8297L39.9371 63.0389C27.6373 58.9087 24.0475 50.5855 23.416 45.8181C23.2795 44.7656 23.1714 43.7188 23.0974 42.6891H39.9827V41.2611H31.3125C31.5002 40.6353 32.1146 40.4817 32.8656 40.6637C33.6507 40.8515 34.4187 41.0506 35.164 41.0108C37.0186 40.9198 36.7456 40.4191 36.9162 40.4305C38.8221 40.5443 39.5446 41.0165 41.2115 40.9823C42.7305 40.9596 43.2539 40.5613 43.4018 40.5556C45.2564 40.5386 45.9562 41.3863 47.8165 41.5456C47.862 41.5456 47.9133 41.5512 47.9588 41.5569V41.5626Z" fill="#FCC661"></path><path fill-rule="evenodd" clip-rule="evenodd" d="M56.4762 23.3689C56.4762 23.3689 49.8826 21.958 39.9267 21.958V22.9593C49.308 22.9593 55.5148 24.2905 55.5148 24.2905C55.5148 24.2905 57.3239 31.931 56.8688 41.2611H48.6992C48.045 40.641 48.4205 39.8047 48.6367 39.6169C49.6038 38.7579 49.6038 38.1719 49.6038 38.1719C49.6038 38.1719 47.3964 38.7238 43.7668 38.8831C43.5335 38.8944 42.5152 39.3496 42.2706 39.3553C41.7699 39.3666 41.0588 39.3894 40.5354 39.3894C35.8078 39.3894 33.4866 39.2984 29.3848 38.4222C29.4587 38.5246 29.4929 38.5645 29.5725 38.6669C29.5953 38.6953 31.3703 39.1561 31.393 39.1903C31.6604 39.5544 32.0188 39.8161 32.4512 40.0436C33.1111 40.3964 34.084 40.6979 34.9032 40.7434C36.7521 40.8515 36.4051 40.1631 36.5758 40.1574C38.4759 40.1233 39.6934 40.806 41.3603 40.7775C42.8793 40.7491 42.9305 40.2769 43.0727 40.2712C44.569 40.1859 46.0993 40.8458 47.4078 41.2611H39.9437V42.6891H56.7891C56.7152 43.7188 56.6071 44.7656 56.4705 45.8181C55.8447 50.5798 52.2435 58.903 39.9437 63.0389V64.6319C53.0059 60.2456 57.2044 50.7733 57.8473 45.71C59.3833 33.5694 56.4876 23.3689 56.4876 23.3689H56.4762Z" fill="#D3A030"></path><path d="M9.41568 27.7664L10.1041 26.4636L13.1819 26.2417L11.6174 23.5735L12.3 22.2707L17.79 25.1608L17.1585 26.3612L13.5744 24.4781L15.1048 27.2544L15.0877 27.2828L11.9587 27.59L15.5201 29.4617L14.8943 30.6451L9.4043 27.755L9.41568 27.7664ZM18.4158 24.2335L19.3716 23.2208L18.7458 21.8554L20.5435 19.9439L21.9431 20.4844L22.9216 19.4489L16.5498 17.0994L15.6851 18.0153L18.4101 24.2335H18.4158ZM18.2053 20.6721L17.3064 18.6923L19.3375 19.4717L18.2053 20.6721ZM23.8318 18.8004L24.981 18.1006L22.9386 14.727L27.5525 16.5418L28.5481 15.9388L25.3338 10.6365L24.1789 11.3363L26.1587 14.6018L21.6927 12.8439L20.6175 13.4925L23.8375 18.8004H23.8318ZM32.8832 14.6018C34.0324 14.2662 34.5956 13.6631 35.0223 12.8325L33.9414 12.2295C33.5943 12.7927 33.2587 13.1853 32.576 13.3844C31.5519 13.6802 30.6019 13.0317 30.306 12.0076V11.9905C30.0045 10.9665 30.4881 9.92541 31.495 9.63526C32.0924 9.46459 32.6329 9.58406 33.2131 9.86852L33.7707 8.66243C33.0595 8.27557 32.2801 8.09921 31.1537 8.42349C29.3218 8.95257 28.4457 10.7105 28.935 12.4059V12.4229C29.4356 14.1353 31.1309 15.1139 32.8832 14.6075V14.6018ZM36.5413 13.6404L37.9066 13.6062L37.8441 11.1144L40.3586 11.0518L40.4212 13.538L41.7866 13.5038L41.6273 7.30273L40.2619 7.33687L40.3245 9.78887L37.8099 9.85145L37.7474 7.39376L36.382 7.4279L36.5413 13.629V13.6404ZM51.6344 16.3598C52.8462 16.923 53.9954 16.684 54.5074 15.569V15.5519C54.9682 14.5677 54.5131 13.8623 53.5118 13.0373C52.6528 12.3376 52.4707 12.1043 52.6357 11.7345V11.7175C52.7722 11.4444 53.1193 11.342 53.5915 11.5582C54.0694 11.7801 54.4619 12.2124 54.7976 12.7927L55.8728 12.1555C55.5144 11.433 54.9341 10.8527 54.1092 10.4716C52.96 9.93679 51.8222 10.2383 51.35 11.2567V11.2737C50.8266 12.3888 51.4126 13.043 52.4138 13.8566C53.2444 14.5336 53.3639 14.7839 53.216 15.0968V15.1139C53.0567 15.4438 52.6585 15.5007 52.1521 15.2675C51.5093 14.9716 51.0997 14.4596 50.7868 13.8054L49.6489 14.3401C50.0472 15.2561 50.7754 15.9502 51.6231 16.3484L51.6344 16.3598ZM55.7078 18.6411L56.7944 19.4717L59.7926 15.5349L61.2945 16.6784L62.0568 15.6771L57.9721 12.5595L57.2097 13.5607L58.7117 14.7042L55.7135 18.6411H55.7078ZM62.9728 26.3043L63.5872 27.5275L65.3622 26.6343L65.8458 27.59L64.6681 29.6722L65.385 31.1002L66.6878 28.7506C67.3022 29.3252 68.11 29.5243 69.0032 29.0749H69.0203C69.5437 28.8018 69.8964 28.4206 70.05 27.9541C70.2321 27.408 70.1524 26.7594 69.7997 26.054L68.5253 23.5223L62.9785 26.31L62.9728 26.3043ZM66.4374 26.0938L68.0304 25.2916L68.6391 26.5034C68.9406 27.0951 68.8553 27.5957 68.3319 27.8574H68.3148C67.8483 28.1021 67.3591 27.92 67.0576 27.3283L66.4374 26.0938ZM45.513 11.5923L47.8 12.0873L48.4315 10.9836L45.769 10.409L46.0364 9.18014L49.2848 9.88558L49.5408 8.69656L44.9668 7.70097L43.6526 13.7655L48.2722 14.7668L48.5282 13.5778L45.2342 12.8667L45.5073 11.5923H45.513ZM63.9286 17.5203L59.1725 21.5084L62.2104 25.1323L63.1378 24.3529L60.9759 21.7701L61.9772 20.9338L63.4962 22.7486L64.7307 22.3333L62.9045 20.1544L63.8717 19.3465L66.0051 21.8953L66.9324 21.1159L63.9286 17.526V17.5203ZM32.7125 73.666C33.93 73.666 34.6525 73.2336 35.301 72.5396L34.4192 71.6464C33.9243 72.0958 33.4805 72.386 32.758 72.386C31.6771 72.386 30.9261 71.4814 30.9261 70.4005V70.3834C30.9261 69.3025 31.6942 68.415 32.758 68.415C33.3895 68.415 33.8845 68.688 34.3737 69.1261L35.2555 68.1078C34.6696 67.5275 33.9584 67.1349 32.7637 67.1349C30.8237 67.1349 29.4697 68.6027 29.4697 70.4005V70.4175C29.4697 72.2323 30.8465 73.666 32.7068 73.666H32.7125ZM36.655 73.5579H38.0432V67.243H36.655V73.5579ZM41.2746 73.5579H42.6627V68.5231H44.5856V67.243H39.3517V68.5231H41.2746V73.5579ZM47.6066 73.5579H48.9947V71.0376L51.4239 67.2373H49.8424L48.312 69.7747L46.8044 67.2373H45.183L47.6066 71.0604V73.5522V73.5579Z" fill="#00295C"></path></svg>