<svg xmlns="http://www.w3.org/2000/svg" width="40" height="81" viewBox="0 0 40 81" fill="none"><path d="M11.9502 50.8623C11.8108 50.8373 11.5361 50.8393 11.2601 51.1342C10.8242 51.5995 10.6192 52.2292 10.6518 53.0058C10.6595 53.2032 10.6881 53.3144 10.7453 53.4743C10.8468 53.7568 11.0909 53.9425 11.2694 53.9747C11.4813 54.013 11.721 53.8905 11.9441 53.6303C12.4336 53.0606 12.6443 52.0152 12.4046 51.3477C12.3047 51.0697 12.1436 50.8977 11.9502 50.8623Z" fill="#001C58"></path><path d="M22.2727 58.5434C22.518 59.0631 22.9438 59.3636 23.2617 59.4716C23.6746 59.6122 24.7667 59.8378 25.6727 59.9361C26.6674 60.044 27.4449 59.4994 27.8884 58.3992C27.5553 58.3802 27.1991 58.3424 26.8309 58.2916C26.7617 58.5132 26.673 58.7344 26.5594 58.9297C26.474 59.078 26.2831 59.1296 26.1324 59.0449C25.9821 58.9607 25.9298 58.7726 26.0152 58.6248C26.0905 58.4943 26.1529 58.3468 26.2041 58.1954C26.0099 58.1619 25.8146 58.1265 25.6204 58.0886C25.5535 58.3448 25.4781 58.5873 25.3976 58.769C25.3287 58.9249 25.1434 58.9962 24.9851 58.9281C24.8263 58.8605 24.7538 58.6787 24.8231 58.5229C24.8876 58.377 24.9496 58.1788 25.0064 57.9641C24.9053 57.9424 24.8046 57.9206 24.7047 57.8981C24.5991 57.8747 24.492 57.8497 24.3844 57.8247C24.3284 58.0028 24.2615 58.1889 24.1802 58.377C24.1133 58.5337 23.9288 58.6075 23.7701 58.541C23.6105 58.4749 23.5356 58.2936 23.6033 58.1369C23.6702 57.9818 23.7262 57.8271 23.7741 57.6781C23.246 57.5467 22.7033 57.4001 22.153 57.2422C22.0209 57.8098 22.1361 58.2541 22.2727 58.5434Z" fill="#001C58"></path><path d="M28.0794 57.7894C28.2083 57.1633 28.0689 56.7278 27.915 56.4615C27.7205 56.1252 27.4002 55.8843 27.036 55.8009L26.6388 55.7187C26.2775 55.647 25.7316 55.5378 24.9142 55.3368C23.8193 55.0677 22.8802 55.5608 22.3613 56.6606C22.8947 56.8128 23.42 56.9547 23.9316 57.0819C24.0146 56.69 24.0315 56.4184 24.0324 56.4136C24.0424 56.244 24.1911 56.1143 24.3635 56.124C24.5359 56.1344 24.6681 56.2794 24.658 56.4494C24.6568 56.472 24.6366 56.7838 24.5415 57.2278C24.6427 57.2511 24.7442 57.2749 24.8437 57.2971C24.9468 57.32 25.0475 57.3418 25.1466 57.3631C25.2361 56.9292 25.2937 56.5607 25.2949 56.5538C25.3207 56.3858 25.4806 56.2698 25.6518 56.2952C25.8226 56.3205 25.9403 56.4777 25.9145 56.6461C25.91 56.6759 25.8524 57.0449 25.7602 57.4868C25.9709 57.5271 26.1695 57.5625 26.3584 57.594C26.4281 57.2205 26.4446 56.9232 26.445 56.9172C26.4535 56.7476 26.6005 56.6162 26.7734 56.6247C26.9462 56.6324 27.0791 56.777 27.0707 56.947C27.0698 56.9724 27.0525 57.2846 26.9788 57.6866C27.4127 57.7442 27.7773 57.7761 28.0794 57.7894Z" fill="#001C58"></path><path d="M29.9108 53.8879C29.864 52.7631 29.6328 51.6888 29.2468 50.6913C28.7731 49.4686 27.1867 48.6013 25.0975 48.136C21.2357 47.2771 16.1618 48.696 12.9334 51.3677C13.0575 51.8547 13.0212 52.436 12.854 52.967C15.1797 54.1969 18.5632 55.5283 21.755 56.4839C22.5063 54.7871 23.9445 54.464 25.066 54.7396C25.8693 54.9365 26.3858 55.0401 26.7637 55.115L27.1786 55.2012C27.712 55.3237 28.1793 55.6717 28.4597 56.1576C28.6579 56.5008 28.8408 57.0438 28.7163 57.7903C29.1086 57.7682 29.2984 57.7033 29.3427 57.6517C29.7609 56.4774 29.9647 55.2069 29.9108 53.8879Z" fill="#001C58"></path><path d="M25.6051 60.5501C24.7329 60.4555 23.5662 60.229 23.0574 60.0554C22.489 59.8616 21.9838 59.3939 21.7051 58.8046C21.5898 58.5608 21.4859 58.2362 21.4698 57.8426C21.4597 57.6077 21.4827 57.3478 21.5524 57.0675C18.3557 56.1079 14.9694 54.7756 12.6123 53.5381C12.5293 53.6871 12.4343 53.8257 12.3279 53.9498C12.1506 54.156 11.9512 54.3059 11.7466 54.3913C11.9677 56.321 12.6493 58.2116 13.7338 59.8588C15.1724 62.0439 17.1315 63.5417 19.2481 64.0126C19.999 64.1798 20.9795 64.3869 21.8569 64.1959C25.1104 63.4865 27.7631 61.2732 29.0595 58.361C28.9077 58.3876 28.7364 58.4025 28.5536 58.4094C27.8115 60.5457 26.25 60.6206 25.6051 60.5501Z" fill="#001C58"></path><path d="M10.4943 51.5312C10.6003 51.2935 10.7336 51.0743 10.8928 50.889C11.0196 50.7412 11.1558 50.6235 11.2996 50.5365C11.6831 48.7789 12.4836 47.2142 13.6539 46.0322C11.9071 47.2533 10.5685 48.9952 9.86426 51.0171C9.95773 51.1428 10.2063 51.3326 10.4943 51.5312Z" fill="#001C58"></path><path d="M10.2954 52.1307C10.0415 51.953 9.82481 51.7862 9.67011 51.6416C9.40061 52.6173 9.27653 53.6498 9.32005 54.7138C9.32933 54.9281 9.34505 55.1412 9.36678 55.3515C9.52227 54.7234 9.82926 54.0668 10.2688 53.3972C10.1842 53.0049 10.1975 52.5589 10.2954 52.1307Z" fill="#001C58"></path><path d="M11.1204 54.4479C10.8932 54.392 10.6966 54.2538 10.5455 54.0459C9.77771 55.2109 9.45462 56.2527 9.73621 57.1877C10.9174 61.1095 14.4355 64.0072 18.6489 64.3923C14.622 63.1894 11.6417 59.0622 11.1204 54.4479Z" fill="#001C58"></path><path d="M21.6932 35.3841C21.6932 27.7062 9.91748 27.889 9.91748 18.1606C9.91748 12.3164 15.1912 11.0446 15.1912 6.43801C15.1912 2.03807 10.9323 1.9019 10.9323 1.9019C10.9323 1.9019 12.0425 0.578125 15.151 0.578125C18.259 0.578125 19.942 2.17466 19.942 6.43801C19.942 12.7668 17.6857 15.9187 22.5276 20.6812C22.8885 21.0357 23.8981 22.0207 25.1836 22.0207C27.1583 22.0207 25.5292 15.4176 33.6354 12.905C33.6354 12.905 34.0991 13.6519 34.5631 15.2444C34.0874 15.4772 32.7028 16.185 32.7745 16.5113C32.8559 16.8799 34.6377 16.4666 34.8625 16.413C35.2105 17.9584 35.4966 20.0363 35.4966 22.7011C26.0384 22.7011 22.4643 34.1872 24.5881 36.2768C24.5881 36.2768 23.5303 37.692 22.6802 39.355C22.6802 39.355 23.0194 39.5564 23.9186 39.5564C24.8186 39.5564 26.5174 39.0887 27.2091 38.4083C27.3432 38.2762 27.5048 38.4232 27.3924 38.5908C25.1054 41.9913 21.6332 39.5641 21.6332 42.6862C21.6332 44.3588 22.5642 44.5703 23.0887 44.7556C25.2963 45.534 27.1648 47.0345 28.3862 48.9791C27.5741 48.2757 26.5009 47.8165 25.2359 47.5353C21.2569 46.6498 16.0505 48.0747 12.6694 50.7859C12.5058 50.5643 12.2907 50.4233 12.0409 50.3786C12.0144 50.3738 11.9886 50.3702 11.962 50.3677C12.3882 48.4989 13.2575 46.8626 14.4653 45.7865C14.4891 43.1587 16.6854 45.0654 19.3474 42.4469C20.2067 41.6021 21.6932 38.8136 21.6932 35.3841ZM16.0795 6.43801C16.0795 9.20882 15.0047 9.62134 15.0047 11.3173C15.0047 13.9298 18.5345 14.3388 18.5345 14.3388C18.4978 13.1975 18.6243 12.0292 18.7605 10.7723C18.8983 9.50047 19.0542 8.05867 19.0542 6.43801C19.0542 2.05618 17.1781 1.45192 15.151 1.45192C15.0402 1.45192 14.9326 1.45395 14.8279 1.45716C14.8279 1.45716 14.8798 2.34705 15.5876 2.34705C15.8785 2.34705 15.9115 2.20729 16.0457 2.20729C16.2117 2.20729 16.8316 2.83089 16.8316 3.74537C16.8316 4.85562 15.9059 4.90315 15.9059 4.90315C16.0175 5.36282 16.0795 5.87323 16.0795 6.43801Z" fill="#001C58"></path><path d="M3.84605 63.1682C4.63644 63.681 5.47398 64.1419 5.47398 64.1419L5.18067 64.8888C5.07111 64.4368 4.61507 64.1911 4.02611 63.8329L2.09808 66.5747C1.86319 66.9054 1.40398 67.6294 1.36689 67.9114C1.36689 67.9114 1.05106 67.714 0.761803 67.5021C0.459261 67.2809 0.172852 67.0763 0.172852 67.0763C0.460087 67.0066 0.95639 66.2871 1.25572 65.8875L3.13178 63.2552C2.4288 62.7215 2.15488 62.6163 1.65817 62.5913L2.32608 62.0986C2.32608 62.0986 2.96742 62.5982 3.84605 63.1682Z" fill="#001C58"></path><path d="M7.30286 65.4195C6.4468 65.0175 5.77282 65.969 5.26522 67.0148C4.75765 68.0606 4.4257 69.1813 5.28176 69.583C6.13819 69.9851 6.81501 69.0271 7.32299 67.9812C7.83018 66.9355 8.15892 65.8216 7.30286 65.4195ZM5.09402 69.9701C3.75453 69.3413 3.57727 67.8898 4.23635 66.5314C4.89902 65.1665 6.16117 64.3995 7.49381 65.0259C8.82642 65.6516 9.01415 67.099 8.35148 68.4647C7.69199 69.8227 6.43352 70.5994 5.09402 69.9701Z" fill="#001C58"></path><path d="M11.0862 66.4288C11.9915 66.681 12.7283 66.849 12.7283 66.849L12.6501 67.6458C12.4076 67.3018 12.296 67.2172 11.5229 67.0234L10.5867 70.1238C10.5105 70.4074 10.1367 71.4802 10.2568 71.6824C10.2568 71.6824 9.99613 71.628 9.57594 71.5136C9.10381 71.3847 8.88184 71.2977 8.88184 71.2977C9.12436 71.1409 9.42892 70.2229 9.52879 69.8498L10.4707 66.7297C9.66942 66.4675 9.48329 66.4485 9.10097 66.6238L9.56468 65.9434C9.56468 65.9434 10.088 66.1509 11.0862 66.4288Z" fill="#001C58"></path><path d="M14.8219 67.253C15.7146 67.3855 16.5553 67.4608 16.5553 67.4608L16.5884 68.2605C16.2556 67.9688 16.1303 67.8746 15.2485 67.7654L14.7389 70.9483C14.7022 71.24 14.5125 72.3466 14.6599 72.5307C14.6599 72.5307 14.3509 72.4977 13.9239 72.4381C13.4969 72.3788 13.2346 72.3204 13.2346 72.3204C13.4429 72.1597 13.6161 71.1111 13.652 70.8194L14.1753 67.5962C13.4115 67.4463 13.2544 67.504 12.8882 67.7126L13.2201 66.9561C13.2201 66.9561 13.9336 67.1209 14.8219 67.253Z" fill="#001C58"></path><path d="M18.1319 70.2782L18.0646 72.4174C19.2043 72.4318 19.9855 72.3618 20.3331 71.8751L20.1583 72.8464C20.1583 72.8464 19.5274 72.8597 18.6025 72.8464C17.5852 72.8323 16.7876 72.767 16.7876 72.767C16.9568 72.6023 16.9991 71.5601 17.0015 71.2668L17.0942 69.1668C17.0974 68.6084 17.1498 67.7044 16.9588 67.5146C17.7851 67.5706 17.6799 67.5694 18.4385 67.5993C19.4319 67.6375 19.9947 67.6085 19.9947 67.6085L20.1192 68.4106C19.7317 68.0928 19.1503 68.0561 18.2016 68.05L18.1492 69.8451L19.6064 69.8536C19.7377 69.8548 19.7462 69.9273 19.7454 70.0707C19.7441 70.2125 19.7422 70.2887 19.6035 70.2866L18.1319 70.2782Z" fill="#001C58"></path><path d="M24.4997 70.9231C24.5835 71.7014 24.6673 72.261 24.8474 72.3629C24.8022 72.4435 24.6596 72.5494 24.4691 72.5688C24.2411 72.5929 24.0678 72.4821 23.9091 72.3017L21.3248 69.3854L21.4219 71.2406C21.4533 71.5326 21.4872 72.6381 21.6721 72.7851L20.8108 72.8242C20.9607 72.6421 20.9199 71.5882 20.8886 71.2961L20.7665 69.2017C20.7351 68.9097 20.6794 67.7523 20.4941 67.6052L21.2842 67.5774L23.9341 70.6725L23.7133 68.8911C23.6815 68.599 23.52 67.5371 23.3427 67.3897C23.3427 67.3897 23.4374 67.3812 23.7585 67.3385C24.0795 67.2954 24.1972 67.2725 24.1972 67.2725C24.0477 67.4545 24.2209 68.5435 24.2524 68.8355L24.4997 70.9231Z" fill="#001C58"></path><path d="M29.3566 69.8194C29.4477 70.1812 29.6298 71.1114 29.9005 71.2939C29.9005 71.2939 29.4912 71.4099 29.2422 71.4852C29.0191 71.5533 28.5288 71.6778 28.5288 71.6778C28.6452 71.4768 28.387 70.3609 28.3161 70.0817L28.0699 69.1104L26.4275 69.5068L26.614 70.4946C26.668 70.8145 26.8392 71.8889 27.0604 72.0194C27.0604 72.0194 26.8316 72.067 26.3522 72.1628C25.951 72.2438 25.6722 72.2873 25.6722 72.2873C25.7946 72.0867 25.6303 71.09 25.5787 70.7726L25.1807 68.6842C25.1082 68.2946 24.9261 67.3101 24.7065 67.1944C24.7065 67.1944 24.9188 67.155 25.3886 67.0652C25.8579 66.9757 26.0871 66.9141 26.0871 66.9141C25.9719 67.1477 26.1753 68.0928 26.2313 68.424L26.3574 69.0863L27.9737 68.6991L27.7992 68.0219C27.7045 67.6638 27.5035 66.8025 27.2787 66.6426C27.2787 66.6426 27.5011 66.5793 27.9507 66.454C28.4003 66.3287 28.5945 66.2578 28.5945 66.2578C28.5054 66.4963 28.7556 67.3351 28.8587 67.7673L29.3566 69.8194Z" fill="#001C58"></path><path d="M32.066 68.2418L30.6416 66.3005L30.7427 68.7389L32.066 68.2418ZM32.3573 68.581L30.7544 69.1986L30.81 70.0643C30.8454 70.3604 30.847 70.6316 30.9123 70.7842C30.9445 70.8604 30.9997 70.9111 31.0529 70.9377C31.0529 70.9377 30.8857 70.9973 30.6105 71.0856C30.3354 71.173 30.1839 71.2165 30.1839 71.2165C30.2802 71.0533 30.3031 70.8289 30.2947 70.549L30.1541 66.4443C30.14 66.2948 30.1219 66.1555 30.0715 66.0378C30.0268 65.9335 29.9523 65.8751 29.8999 65.8312C30.0824 65.7147 30.3104 65.5874 30.5429 65.4911C30.9107 65.3389 31.0661 65.3449 31.3344 65.6527L33.6863 68.5218C34.1137 69.0693 34.4916 69.4375 34.7369 69.5108C34.7369 69.5108 34.4976 69.6208 34.0452 69.8182C33.5936 70.0164 33.2947 70.128 33.2947 70.128C33.3209 70.0349 33.3237 69.9366 33.2657 69.7884C33.2025 69.6284 32.9708 69.3585 32.8218 69.1539L32.3573 68.581Z" fill="#001C58"></path><path d="M39.0724 67.0928C38.7501 67.3067 38.5088 67.4703 38.5088 67.4703C38.485 67.1581 37.8727 66.3866 37.6922 66.1526L36.3108 64.3796L37.4219 67.8747C37.3796 67.944 37.2999 68.0407 37.2273 68.0955C37.0082 68.2591 36.7943 68.2272 36.5993 68.0762L33.9691 65.931L34.89 67.5992C35.1148 68.0218 35.549 68.9004 35.8407 68.987C35.8407 68.987 35.6599 69.0825 35.4302 69.1921C35.2018 69.3009 35.0624 69.3645 35.0624 69.3645C35.1124 69.1196 34.6861 68.3896 34.4368 67.9231L33.4123 66.0273C33.1013 65.4573 32.7589 64.8768 32.4648 64.7607C32.6921 64.6519 32.7613 64.6185 33.0868 64.4606C33.3584 64.3293 33.5977 64.1999 33.5977 64.1999L36.5594 66.6783L35.3944 63.169C35.3944 63.169 35.5507 63.0651 35.846 62.8709C36.142 62.6767 36.4083 62.4834 36.4083 62.4834C36.4305 62.7972 37.0469 63.5969 37.2716 63.8833L38.5471 65.4975C38.8178 65.8295 39.323 66.5687 39.6835 66.6533C39.6835 66.6533 39.3951 66.8781 39.0724 67.0928Z" fill="#001C58"></path><path d="M8.76585 73.4736C9.04018 73.5719 9.39428 73.6936 9.39428 73.6936C9.09616 73.9059 8.82183 74.7519 8.64416 75.2111L7.95649 77.0884C7.77242 77.598 7.45858 78.336 7.56373 78.5995C7.56373 78.5995 7.18545 78.471 6.87927 78.3638C6.61741 78.272 6.46877 78.2228 6.19082 78.1064C6.52801 78.0186 6.84623 76.9156 6.94936 76.638L7.26399 75.7626L5.61593 75.0862L5.13935 76.0885C4.98428 76.4358 4.61322 77.2241 4.70068 77.4711C4.70068 77.4711 4.41022 77.3539 3.98359 77.1613C3.48122 76.9341 3.37207 76.8737 3.37207 76.8737C3.72576 76.7025 3.93524 76.1413 4.20433 75.5736L5.06645 73.6956C5.35769 73.053 5.62117 72.4959 5.60145 72.1289C5.60145 72.1289 5.75532 72.2195 6.17911 72.4073C6.51671 72.5559 6.68955 72.6309 6.87886 72.7058C6.61018 72.8109 6.23752 73.7584 6.03976 74.1834L5.78754 74.7144L7.39773 75.367L7.64512 74.7647C7.75992 74.4578 8.15916 73.5401 8.07372 73.2251C8.07372 73.2251 8.40407 73.3435 8.76585 73.4736Z" fill="#001C58"></path><path d="M11.9039 74.7924C10.9866 74.5551 10.5121 75.5896 10.2184 76.6866C9.9251 77.7836 9.81875 78.9212 10.736 79.1593C11.6537 79.3965 12.1299 78.354 12.4232 77.2574C12.7165 76.1609 12.8212 75.0301 11.9039 74.7924ZM10.6277 79.5654C9.19193 79.1935 8.73506 77.8263 9.11619 76.4014C9.49888 74.9692 10.5862 74.0096 12.0147 74.3794C13.4424 74.7489 13.9089 76.1109 13.5258 77.5431C13.1447 78.9679 12.063 79.9364 10.6277 79.5654Z" fill="#001C58"></path><path d="M14.5164 80.0693C14.5164 80.0693 14.6075 79.9718 14.6691 79.774C14.7569 79.4956 14.8141 78.9614 14.8814 78.5445L15.2835 75.4873C14.4266 75.3817 14.2095 75.4425 13.834 75.6613L14.1857 74.8789C14.4532 74.9365 15.0434 74.9998 15.7628 75.0888C16.2431 75.148 17.6752 75.2753 17.6752 75.2753L17.7243 76.0581C17.4085 75.6979 17.0806 75.6661 16.3675 75.6105L15.9671 78.6782C15.9308 78.963 15.7717 79.9545 15.9292 80.2477C15.7576 80.2284 15.472 80.1974 15.2327 80.1736C14.985 80.1486 14.659 80.093 14.5164 80.0693Z" fill="#001C58"></path><path d="M21.3395 79.0069C21.3488 79.9279 20.5882 80.5946 19.4179 80.5777C18.5075 80.564 18.0309 80.1957 17.8496 80.0459L18.039 79.1721C18.321 79.7289 18.7899 80.1337 19.3172 80.1414C19.8679 80.1494 20.3022 79.8304 20.3102 79.2934C20.3159 78.903 20.0979 78.6674 19.1786 78.1968C18.298 77.7493 17.9701 77.3029 17.9701 76.6374C17.9701 75.7318 18.7721 75.2713 19.7124 75.2705C20.4057 75.2701 20.8883 75.4792 21.1916 75.6383L20.9959 76.4388C20.5753 75.8873 20.1962 75.6826 19.7374 75.6762C19.2858 75.6689 18.9655 75.9114 18.9687 76.3687C18.972 76.8658 19.5283 77.1349 20.2788 77.5474C21.1417 78.0228 21.3343 78.4986 21.3395 79.0069Z" fill="#001C58"></path><path d="M25.6019 76.1888C25.6349 76.2972 25.6551 76.4281 25.6652 76.5312C25.6744 76.6263 25.6789 76.752 25.6676 76.8712C25.6426 77.1693 25.4988 77.5158 25.2611 77.7599C24.8977 78.1337 24.4236 78.3187 23.7963 78.3473C23.5534 78.3622 23.4954 78.2888 23.4789 78.1176L23.4777 78.0798C23.4777 78.0798 23.4724 78.0137 23.5256 78.0101L23.586 78.0044C23.7722 77.9819 24.0473 77.9242 24.2677 77.66C24.4796 77.3885 24.5529 77.0263 24.515 76.6383C24.4763 76.2343 24.3531 75.9435 24.0767 75.7343C23.8374 75.5527 23.5554 75.4943 23.2662 75.5168C23.2662 75.5168 23.1493 75.5261 23.0204 75.5458C23.0204 75.5458 22.9447 75.5527 22.9516 75.626L23.2622 78.7969C23.2896 79.0756 23.3669 80.0586 23.6001 80.2612C23.6001 80.2612 23.3347 80.289 22.8359 80.3289C22.4548 80.3595 22.1583 80.3676 22.1583 80.3676C22.2587 80.1239 22.2417 79.7645 22.2172 79.3455L21.9763 76.845C21.9484 76.559 21.8989 75.5777 21.6616 75.3355C21.6616 75.3355 22.2993 75.2425 23.4805 75.1329C24.0973 75.0753 24.6028 75.1534 25.0395 75.4431C25.3248 75.632 25.5205 75.908 25.6019 76.1888Z" fill="#001C58"></path><path d="M30.4314 77.2101C30.6839 78.3095 30.159 79.2445 28.9976 79.5305C28.1802 79.7315 27.0039 79.4371 26.6756 78.0271L26.2763 76.3629C26.1708 75.8972 25.9984 75.0717 25.7236 74.857C25.7236 74.857 26.0306 74.8143 26.5116 74.7257C26.9926 74.6375 27.2158 74.5855 27.2158 74.5855C27.0889 74.7813 27.2222 75.552 27.3475 76.118L27.8575 78.2345C27.949 78.6217 28.0771 78.8876 28.2987 79.0439C28.4626 79.1595 28.6814 79.1917 28.9094 79.151C29.1164 79.1136 29.3324 78.9979 29.4456 78.7909C29.5648 78.5737 29.5644 78.2607 29.4726 77.8736L28.8989 75.7574C28.7422 75.1753 28.5617 74.4465 28.3679 74.3245C28.3679 74.3245 28.6016 74.2616 29.0443 74.1376C29.3791 74.0437 29.5777 73.9865 29.7231 73.9365C29.5902 74.2552 29.906 75.2313 29.9721 75.5109L30.4314 77.2101Z" fill="#001C58"></path><path d="M35.6506 76.7774C35.7635 76.8193 35.8843 76.8487 35.9866 76.8068C35.9745 76.8753 35.9085 77.0131 35.7985 77.1239C35.3292 77.598 34.8876 77.5166 34.7386 77.4586C33.9272 77.1545 32.5717 75.9729 32.5165 75.844C32.5165 75.844 32.502 75.8097 32.5374 75.7953L32.587 75.7747C32.7985 75.6877 33.0386 75.4524 33.1336 75.2288C33.2851 74.9025 33.2593 74.6097 33.1054 74.2503C32.9459 73.8765 32.6675 73.6416 32.4492 73.5784C32.1257 73.4845 31.8848 73.5595 31.7382 73.6166C31.7382 73.6166 31.544 73.6916 31.4864 73.7488C31.4864 73.7488 31.4477 73.7802 31.4924 73.9107L32.5165 76.7871C32.672 77.2105 32.9423 78.0355 33.1868 78.1753C33.1868 78.1753 32.9105 78.2825 32.4907 78.4311C32.0713 78.5806 31.8163 78.6495 31.8163 78.6495C31.9013 78.3284 31.5786 77.455 31.4973 77.2097L30.8345 75.2667C30.669 74.799 30.3672 73.9591 30.1211 73.8253C30.1211 73.8253 30.6045 73.6924 31.691 73.2428C32.2691 73.0039 32.8291 72.9024 33.3343 73.0478C33.6404 73.136 33.8475 73.2879 34.0175 73.5292C34.0819 73.6223 34.1299 73.7145 34.1706 73.8096C34.2084 73.8979 34.2346 73.9997 34.2515 74.094C34.3051 74.3877 34.26 74.6991 34.0876 74.994C34.0876 74.994 33.9321 75.2901 33.5997 75.5233C33.5997 75.5233 34.6673 76.4128 35.6506 76.7774Z" fill="#001C58"></path></svg>