<svg xmlns="http://www.w3.org/2000/svg" width="53" height="81" viewBox="0 0 53 81" fill="none"><path d="M1.69043 48.0259C1.69043 30.0504 12.6828 15.4746 26.2417 15.4746C39.8007 15.4746 50.7899 30.0473 50.7899 48.0259C50.7899 66.0044 39.8007 80.5772 26.2417 80.5772C12.6828 80.5741 1.69043 66.0014 1.69043 48.0259Z" fill="white"></path><path d="M1.69043 48.0259C1.69043 30.0504 12.6828 15.4746 26.2417 15.4746C39.8007 15.4746 50.7899 30.0473 50.7899 48.0259C50.7899 66.0044 39.8007 80.5772 26.2417 80.5772C12.6828 80.5741 1.69043 66.0014 1.69043 48.0259Z" stroke="#231F20" stroke-width="0.214308" stroke-miterlimit="3.8637"></path><path fill-rule="evenodd" clip-rule="evenodd" d="M43.0168 50.63C43.3109 51.8857 43.461 53.1935 43.461 54.5381C43.461 63.996 35.7948 71.6621 26.3369 71.6621C16.879 71.6621 9.21289 63.996 9.21289 54.5381C9.21289 45.0802 16.879 37.4141 26.3369 37.4141C31.0597 37.4141 35.3354 39.3252 38.4472 42.4156L35.6631 45.2425C33.2741 42.8138 30.0123 41.3589 26.3369 41.3589C19.0597 41.3589 13.1578 47.2579 13.1578 54.535C13.1578 61.8122 19.0567 67.7142 26.3369 67.7142C33.6141 67.7142 39.5222 61.8153 39.5222 54.535H34.5911V50.63H43.0168Z" fill="#A80533"></path><path fill-rule="evenodd" clip-rule="evenodd" d="M23.5434 36.8691C22.2846 35.987 21.4515 34.523 21.4515 32.8691C21.4515 30.1738 23.6384 27.987 26.3336 27.987C29.0289 27.987 31.2187 30.1738 31.2341 32.8691H35.1146C35.0993 28.0299 31.1728 24.1064 26.3336 24.1064C21.4944 24.1064 17.571 28.0299 17.571 32.8691C17.571 35.8185 19.0289 38.428 21.2647 40.0176L31.8558 47.1263C34.5296 49.1784 35.4975 52.5505 35.4975 54.5413C35.4975 59.6041 31.3933 63.7052 26.3336 63.7052C21.2739 63.7052 17.1698 59.6041 17.1698 54.5413C17.1698 53.2274 17.5128 51.7665 18.009 50.6363H14.2417C13.8436 51.8645 13.6904 53.1815 13.6904 54.5413C13.6904 61.5245 19.3535 67.1876 26.3367 67.1876C33.3198 67.1876 38.9829 61.5275 38.9829 54.5413C38.9829 50.3759 36.9737 46.6822 33.8681 44.379L23.5434 36.8691Z" fill="#FCB813"></path><path fill-rule="evenodd" clip-rule="evenodd" d="M39.5319 54.5409H34.5947V50.6359L43.0205 50.6328C43.3145 51.8886 43.4645 53.1964 43.4645 54.5409H39.5319Z" fill="#A80533"></path><path fill-rule="evenodd" clip-rule="evenodd" d="M21.7603 54.5726H20.9732V51.8191H20.0176V51.2954C20.183 51.2954 20.3453 51.277 20.5076 51.2433C20.67 51.2066 20.7955 51.1545 20.8905 51.0871C20.9885 51.0167 21.065 50.9401 21.1263 50.8574C21.1906 50.7747 21.2274 50.6828 21.2396 50.5879H21.7634V54.5726H21.7603Z" fill="#231F20"></path><path fill-rule="evenodd" clip-rule="evenodd" d="M23.3446 53.6411C23.3293 53.7299 23.3661 53.828 23.4518 53.9321C23.5406 54.0332 23.6478 54.0852 23.7734 54.0852H23.8408C23.9725 54.0852 24.0858 54.0485 24.1777 53.978C24.2726 53.9045 24.3339 53.8188 24.3706 53.7269C24.4074 53.6319 24.438 53.5339 24.4595 53.4298C24.484 53.3226 24.4993 53.2246 24.4993 53.1358C24.4993 53.0653 24.4901 52.9979 24.4656 52.9336C24.3553 53.0745 24.2512 53.1633 24.1501 53.197C24.0521 53.2307 23.9786 53.2522 23.9265 53.2644C23.8775 53.2767 23.8316 53.2828 23.7918 53.2828C23.7305 53.2828 23.6754 53.2828 23.6172 53.2828C23.556 53.2705 23.4763 53.2583 23.3752 53.243C23.2772 53.2246 23.1547 53.1603 23.0108 53.0531C22.8638 52.9428 22.7474 52.7927 22.6555 52.6028C22.5697 52.4099 22.5269 52.1771 22.5269 51.9107C22.5269 51.6166 22.585 51.3655 22.6953 51.1572C22.8117 50.952 22.9679 50.7897 23.1608 50.6702C23.3569 50.5447 23.5743 50.4834 23.8194 50.4834C23.8867 50.4834 23.9541 50.4895 24.0215 50.5018C24.1777 50.5018 24.3768 50.5722 24.6126 50.7192C24.8515 50.8632 25.0016 51.0439 25.0567 51.2705C25.1272 51.4329 25.1792 51.6166 25.216 51.8218C25.2527 52.027 25.2711 52.2414 25.2711 52.462C25.2711 52.7621 25.2405 53.0561 25.1823 53.3502C25.1272 53.6381 25.0383 53.8923 24.9189 54.1159C24.8025 54.3333 24.6371 54.4865 24.4197 54.5753C24.2022 54.661 23.9878 54.7039 23.7795 54.7039C23.363 54.7039 23.0537 54.5753 22.8454 54.318C22.6402 54.0607 22.5514 53.8341 22.582 53.6442H23.3446V53.6411ZM23.8408 51.145C23.6693 51.145 23.5376 51.197 23.4488 51.3042C23.3599 51.4084 23.2987 51.5064 23.268 51.6013C23.2435 51.6963 23.2282 51.7943 23.2282 51.8984C23.2282 51.9995 23.2405 52.0944 23.268 52.1863C23.2987 52.2721 23.3599 52.367 23.4549 52.4681C23.5529 52.5661 23.6876 52.6151 23.8653 52.6151C24.0337 52.6151 24.1654 52.5661 24.2604 52.4681C24.3584 52.367 24.4197 52.2721 24.4472 52.1863C24.4717 52.1005 24.487 52.0056 24.487 51.9045C24.487 51.782 24.4687 51.6656 24.4288 51.5554C24.3952 51.442 24.3492 51.3624 24.2941 51.3073C24.242 51.2552 24.1746 51.2154 24.0981 51.1909C24.0154 51.1603 23.9296 51.145 23.8408 51.145Z" fill="#231F20"></path><path fill-rule="evenodd" clip-rule="evenodd" d="M26.061 54.3152C25.9109 54.1315 25.8068 53.8926 25.7456 53.6016C25.6843 53.3045 25.6567 52.9707 25.6567 52.6001C25.6567 52.2356 25.6874 51.9079 25.7456 51.6108C25.8068 51.3107 25.8987 51.084 26.0273 50.9309C26.156 50.7747 26.303 50.6644 26.4714 50.6001C26.6399 50.5327 26.8267 50.499 27.0289 50.499C27.2279 50.499 27.4117 50.5327 27.5802 50.6001C27.7517 50.6644 27.9018 50.7747 28.0304 50.9309C28.159 51.084 28.2509 51.3107 28.3122 51.6077C28.3704 51.8987 28.401 52.2295 28.401 52.6001C28.401 52.9646 28.3704 53.2953 28.3122 53.5955C28.2509 53.8926 28.159 54.1192 28.0304 54.2754C27.9048 54.4286 27.7547 54.5388 27.5863 54.6001C27.4178 54.6675 27.231 54.7012 27.0289 54.7012C26.8298 54.7012 26.646 54.6675 26.4714 54.6001C26.2999 54.5388 26.1652 54.4439 26.061 54.3152ZM27.4975 53.7211C27.574 53.5189 27.6108 53.1453 27.6108 52.6032C27.6108 52.061 27.5863 51.718 27.5312 51.5741C27.4791 51.4301 27.4087 51.3382 27.3168 51.2923C27.2279 51.2433 27.1299 51.2188 27.0258 51.2188C26.9186 51.2188 26.8206 51.2433 26.7348 51.2862C26.6491 51.326 26.5786 51.4209 26.5235 51.5679C26.4714 51.7149 26.4439 52.058 26.4439 52.6032C26.4439 53.1453 26.4714 53.4883 26.5235 53.6323C26.5756 53.7731 26.646 53.8711 26.7348 53.9202C26.8237 53.9661 26.9217 53.9875 27.0258 53.9875C27.1361 53.9875 27.231 53.9692 27.3168 53.9263C27.4056 53.8773 27.4638 53.8099 27.4975 53.7211Z" fill="#231F20"></path><path fill-rule="evenodd" clip-rule="evenodd" d="M29.5433 53.5392C29.5433 53.6862 29.5831 53.8056 29.6628 53.8975C29.7455 53.9925 29.9017 54.0384 30.1344 54.0384C30.3396 54.0384 30.4897 53.968 30.5847 53.824C30.6765 53.6801 30.7255 53.4994 30.7255 53.285C30.7255 53.0522 30.6888 52.8868 30.6122 52.7857C30.5418 52.6847 30.4621 52.6142 30.3764 52.5775C30.2937 52.5376 30.2049 52.5162 30.113 52.5162H30.0517C29.9507 52.5254 29.8588 52.553 29.7761 52.6081C29.6964 52.6571 29.6382 52.7245 29.6015 52.8102H28.8879L29.2493 50.5928H31.3718V51.3003H29.7301L29.5954 52.1211C29.6597 52.0813 29.724 52.0445 29.7914 52.0139C29.8588 51.9802 29.9231 51.9557 29.9813 51.9373C30.0456 51.919 30.0946 51.9067 30.1283 51.9036C30.165 51.8975 30.2171 51.8914 30.2845 51.8914C30.3488 51.8914 30.4101 51.8945 30.4713 51.9036C30.5356 51.9128 30.6582 51.9465 30.8419 52.0108C31.0257 52.0752 31.185 52.2252 31.3197 52.4611C31.4545 52.6938 31.5219 52.9542 31.5219 53.2482C31.5219 53.5637 31.4545 53.8301 31.3197 54.0507C31.185 54.2712 31.0288 54.4366 30.8481 54.5438C30.6704 54.654 30.4376 54.7061 30.1467 54.7061C29.8986 54.7061 29.7056 54.6816 29.5678 54.6265C29.433 54.5744 29.3013 54.4948 29.1696 54.3906C29.0441 54.2865 28.943 54.167 28.8726 54.0323C28.8052 53.8975 28.7715 53.7352 28.7715 53.5422H29.5433V53.5392Z" fill="#231F20"></path><path fill-rule="evenodd" clip-rule="evenodd" d="M13.5563 16.4342L8.86721 14.3209L9.44914 9.4082L6.06782 13.1632L0.799837 10.8967L3.58391 15.9227L0.214844 19.6655L5.02648 18.5874L7.62985 23.0162L8.50274 17.8309L13.5563 16.4342Z" fill="#FCB813"></path><path fill-rule="evenodd" clip-rule="evenodd" d="M38.9199 16.4342L43.609 14.3209L43.0271 9.4082L46.4084 13.1632L51.6764 10.8967L48.8923 15.9227L52.2614 19.6655L47.4498 18.5874L44.8464 23.0162L43.9735 17.8309L38.9199 16.4342Z" fill="#FCB813"></path><path fill-rule="evenodd" clip-rule="evenodd" d="M24.8333 11.8339L21.8716 7.62865L24.8731 3.69604L20.0523 5.20905L16.671 0.578125L16.5086 6.32085L11.7031 7.82774L16.3953 9.34688L16.3831 14.4832L19.7705 10.4648L24.8333 11.8339Z" fill="#FCB813"></path><path fill-rule="evenodd" clip-rule="evenodd" d="M27.6511 11.8369L30.6098 7.63172L27.6113 3.6991L32.4322 5.20906L35.8135 0.578125L35.9758 6.32085L40.7813 7.82774L36.0891 9.34994L36.1014 14.4862L32.7109 10.4648L27.6511 11.8369Z" fill="#FCB813"></path></svg>