<svg xmlns="http://www.w3.org/2000/svg" width="86" height="86" viewBox="0 0 86 86" fill="none"><path d="M42.5955 2.63379C20.5056 2.63379 2.65137 20.498 2.65137 42.5779C2.65137 64.6678 20.5156 82.522 42.5955 82.522C64.6854 82.522 82.5396 64.6578 82.5396 42.5779C82.5396 20.498 64.6854 2.63379 42.5955 2.63379ZM42.5955 76.8243C23.7099 76.8243 8.3591 61.4735 8.3591 42.5879C8.3591 23.7023 23.7099 8.35154 42.5955 8.35154C61.4811 8.35154 76.8319 23.7023 76.8319 42.5879C76.8319 61.4735 61.4811 76.8243 42.5955 76.8243Z" fill="#010101"></path><path d="M42.5958 8.33105C23.7102 8.33105 8.35938 23.6818 8.35938 42.5674C8.35938 61.453 23.7102 76.8038 42.5958 76.8038C61.4813 76.8038 76.8321 61.453 76.8321 42.5674C76.8321 23.6818 61.4813 8.33105 42.5958 8.33105ZM22.6788 53.7626L21.9378 62.2641C17.0311 57.1272 14.0671 50.2178 14.0671 42.5775C14.0671 35.3276 16.7507 28.7087 21.1968 23.6919L23.8804 29.5097C21.3169 33.1647 19.7748 37.7309 19.7748 42.5775C19.7748 46.6329 20.8563 50.4481 22.6888 53.7626H22.6788ZM29.9787 68.2022C28.036 67.2309 26.2736 66.0893 24.5613 64.7174L27.5854 30.7014L23.3096 21.5089C24.7916 20.1971 26.3337 19.0556 27.986 18.0242L36.9982 37.3103V50.8386L32.3719 40.9052L29.9787 68.1821V68.2022ZM42.5958 71.1161C39.111 71.1161 35.8066 70.4853 32.7825 69.4038L33.2932 63.4157C35.2859 64.3269 37.3987 64.9578 39.6818 65.2382V19.9168C37.2886 20.1971 35.0055 20.8881 32.9527 21.8594L30.5595 16.7224C34.2144 15.0101 38.2599 14.0388 42.6058 14.0388C46.9517 14.0388 50.9971 15.0101 54.6521 16.7224L52.2588 21.8594C50.2061 20.8881 47.923 20.2071 45.5297 19.9168V65.2281C47.7527 64.9478 49.9257 64.3169 51.9184 63.4057L52.4291 69.3938C49.405 70.4752 46.0905 71.1061 42.6158 71.1061L42.5958 71.1161ZM55.2129 68.2022L52.8196 40.9252L48.1933 50.8587V37.3303L57.2055 18.0442C58.8578 19.0756 60.3999 20.2172 61.8819 21.5289L57.6061 30.7214L60.6302 64.7375C58.9179 66.1093 57.1455 67.2509 55.2129 68.2222V68.2022ZM63.2638 62.2641L62.5227 53.7626C64.3452 50.4481 65.4367 46.6329 65.4367 42.5775C65.4367 37.7309 63.8946 33.1647 61.3311 29.5097L64.0148 23.6919C68.4708 28.7187 71.1444 35.3376 71.1444 42.5775C71.1444 50.2278 68.1804 57.1272 63.2738 62.2641H63.2638Z" fill="#283791"></path></svg>