<svg xmlns="http://www.w3.org/2000/svg" width="84" height="81" viewBox="0 0 84 81" fill="none"><path fill-rule="evenodd" clip-rule="evenodd" d="M25.6296 67.5422C25.6232 73.0268 24.3533 75.5601 22.0561 77.2384C24.9404 80.2439 32.4606 81.5584 38.6185 79.7621C34.6398 77.299 33.3253 73.3714 33.3061 68.4706C30.7281 68.4611 28.1278 68.1739 25.6296 67.5454M53.3877 68.5887V63.6305C51.2628 60.4176 48.739 56.691 45.7303 54.2757V67.74C45.7303 72.6152 44.4445 75.6431 42.1249 77.2384C45.0092 80.2439 52.5294 81.5584 58.6873 79.7621C54.6352 77.2958 53.3877 72.7333 53.3877 68.5855V68.5887ZM77.1448 29.973C85.7179 25.6721 84.1098 14.9358 83.0346 12.2142C81.6276 14.7411 79.0336 16.3428 74.235 16.3428H68.6419C69.8352 18.1934 70.9327 20.229 71.9601 22.4432C76.4429 22.4624 77.7446 27.2036 77.1448 29.9698V29.973ZM62.9403 49.5281C67.64 49.5281 69.5002 52.7123 69.1109 57.0451C77.3905 52.6772 75.9866 42.9874 74.9114 40.2658C73.5682 41.96 71.6921 43.4309 67.1359 43.4309H53.3909V22.4432H57.5546C56.9803 20.146 55.9753 18.1104 54.7596 16.3428H52.9602C49.4665 16.3428 46.1546 15.8419 42.712 14.5369L45.7335 22.4464V43.3926C49.3963 44.5923 51.8977 46.7651 54.5969 49.5281H62.9403ZM55.0181 41.7686H61.2716C68.2335 34.7046 67.0147 25.838 71.708 25.838C65.1514 9.59791 56.0423 1.74588 35.7342 2.26276C29.6051 2.3489 26.6857 2.39357 21.6414 0.578125L25.3137 10.169C28.7978 8.88003 33.2136 7.94838 37.6836 7.94838C50.9182 7.94838 59.938 15.1878 59.938 28.4607C59.938 33.4093 58.3905 38.2877 55.0181 41.7686ZM12.4748 38.5684C12.4748 50.096 19.8578 59.403 31.446 60.8611C35.6129 61.3843 40.252 60.7941 44.0488 59.0393V65.0088C39.8947 66.3808 35.8331 66.9647 31.7396 66.7445C15.0624 65.8352 3.85383 52.8336 0.26123 37.2635C3.38801 37.2635 4.58448 32.7999 7.31243 27.8002C11.3198 20.4555 18.0775 14.3678 26.0156 11.6399C29.3785 10.4849 33.5071 9.6713 37.6836 9.6713C38.7174 9.6713 39.7256 9.71597 40.7051 9.80211C42.1153 13.3181 41.9271 21.3839 40.2074 25.1265C38.3536 20.1492 34.2825 18.0817 29.9879 18.0817C19.2867 18.0817 12.4748 28.0044 12.4748 38.5684ZM33.3061 20.2449V42.9491C38.8003 42.9491 45.4336 43.8074 50.3503 47.8786C57.5004 53.7971 61.4024 61.4641 65.429 65.8607C69.8447 70.6785 75.3676 70.2542 80.1184 66.8115C79.5122 73.8882 71.7623 79.3761 68.259 80.0716C62.2671 75.8856 55.9785 63.7007 51.1128 57.4759C46.496 51.5701 42.3834 49.1995 33.3061 49.1995V59.3647C30.6835 59.2722 28.0608 58.6245 25.6296 57.629V20.3821C28.2108 19.6642 30.7154 19.5079 33.3061 20.2449Z" fill="#C3281E"></path></svg>