<svg xmlns="http://www.w3.org/2000/svg" width="56" height="81" viewBox="0 0 56 81" fill="none"><path d="M28.109 0.578125L0.904297 16.9954V23.0388V23.0519V39.7973V41.2802V58.0256V58.0387V64.187L28.109 80.5781L55.2022 64.187V58.0387V58.0256V41.2802V39.7973V23.0519V23.0388V16.9954L28.109 0.578125Z" fill="white"></path><path d="M28.103 1.5166L1.71191 17.4484V23.5573V23.5704V39.8237V41.2541V57.5074V57.5271V63.7344L28.103 79.64L54.3956 63.7344V57.5271V57.5074V41.2541V39.8237V23.5704V23.5573V17.4484L54.2972 17.3959L28.103 1.5166Z" fill="#002554"></path><path d="M28.103 1.5166L1.71191 17.4484V23.5573V23.5704V39.8237V41.2541V57.5074V57.5271V63.7344L28.103 79.64L54.3956 63.7344V57.5271V57.5074V41.2541V39.8237V23.5704V23.5573V17.4484L54.2972 17.3959L28.103 1.5166Z" stroke="#002554" stroke-width="0.21" stroke-miterlimit="10"></path><path d="M24.9132 22.7429C25.2872 22.756 26.6061 22.9988 26.6717 23.7796C26.7373 24.5539 26.337 25.3676 25.7924 25.42C25.2478 25.4725 24.5916 25.4594 24.2045 25.2626C23.8174 25.0657 23.6205 25.1313 23.4696 24.5998C23.3121 24.0683 23.0759 24.3308 23.3449 23.5237C23.6139 22.7232 23.2859 22.3754 23.9748 22.3623" fill="white"></path><path d="M16.5011 20.453C16.3961 20.3939 14.8082 20.453 14.8082 20.453L13.8765 21.7457L15.1822 26.4832H20.9631L22.5904 25.2627L22.7741 25.1708L22.8922 25.1512L22.7675 24.3834C22.7675 24.3834 22.7675 23.4517 22.3148 22.8808C21.8555 22.3034 20.9237 21.7063 20.215 21.831C19.4998 21.9556 18.6862 22.1525 18.4106 22.5199C18.135 22.8874 18.1219 22.8152 18.0563 22.7824C17.9906 22.7496 18.0038 22.6249 18.0563 22.4937C18.1022 22.3625 17.1639 20.8533 16.5011 20.4596" fill="white"></path><path d="M41.2718 21.8702H32.7351L30.3926 19.8623L30.7535 26.483L34.2312 24.7048L35.6157 26.483H41.2718V21.8702Z" fill="white"></path><path fill-rule="evenodd" clip-rule="evenodd" d="M36.4164 26.536C35.6553 26.536 35.0713 26.3391 34.6841 25.952C34.1592 25.4271 34.1658 24.725 34.1658 24.4953V22.0216H35.7668V24.4625C35.7668 24.515 35.8259 25.0727 36.377 25.0727C36.5411 25.0727 36.6658 25.0268 36.7576 24.935C36.9348 24.7578 36.9348 24.4625 36.9348 24.4625V22.0347H38.549V24.5347C38.5555 24.6266 38.5949 25.3615 38.0831 25.9192C37.7091 26.326 37.1513 26.536 36.4098 26.536M20.4715 26.4573C18.0896 26.4573 18.024 24.4297 18.024 24.2C18.024 23.0977 18.6408 21.8182 20.3731 21.8182C21.0621 21.8182 21.6133 22.0216 22.0004 22.4284C22.6369 23.0911 22.6041 24.0426 22.6041 24.0885V24.5741H19.6907C19.7629 24.9087 20.0778 25.158 20.465 25.158C20.9112 25.158 21.1474 24.7184 21.1539 24.7184L21.2261 24.5872L21.3574 24.6528L22.5516 25.2433L22.4532 25.3877C21.9742 26.1095 21.3114 26.4704 20.4715 26.4704M20.9505 23.4979C20.8915 23.3142 20.7406 23.0517 20.3534 23.0517C19.9663 23.0517 19.8022 23.3142 19.7366 23.4979H20.9505ZM24.8154 26.4048C23.7917 26.4048 22.755 25.683 22.755 24.0688C22.755 22.4546 23.9952 21.8313 24.8285 21.8313C25.314 21.8313 25.7471 22.0281 26.0096 22.179V19.2197H27.6106V26.3392H26.0293V26.0111C25.7799 26.1882 25.3731 26.4048 24.8154 26.4048ZM25.1959 23.2158C25.0975 23.2158 24.4348 23.2945 24.4348 24.1213C24.4348 24.8956 24.9532 24.9809 25.1763 24.9809C25.2156 24.9809 26.0621 24.9678 26.0621 24.1016C26.0621 23.288 25.2747 23.2224 25.1959 23.2224M41.1539 19.2197H42.7222V26.3392H41.1539V19.2197ZM38.9886 19.2197H40.5765V26.3392H38.9886V19.2197ZM29.0148 26.3392V19.4888H31.423C32.8994 19.4888 33.5555 20.4008 33.5555 21.2998C33.5555 21.9297 33.2734 22.3562 33.0831 22.5793C33.6933 22.8746 34.0936 23.3273 34.0936 24.3641C34.0936 26.2932 31.9742 26.3392 31.9479 26.3392H29.0148ZM31.7182 24.889C31.8035 24.8759 32.4335 24.7578 32.4335 24.1804C32.4335 23.5176 31.8429 23.4783 31.7248 23.4783H30.7865V22.0216H31.3574C31.3574 22.0216 31.3705 22.0216 31.3836 22.0216C31.5739 22.0216 31.8823 21.9494 31.8823 21.4769C31.8823 21.0045 31.4623 20.9323 31.213 20.9323C31.1868 20.9323 31.1736 20.9323 31.1736 20.9323H31.1605H30.6684V24.8825H31.7117L31.7182 24.889ZM16.5608 26.3392L15.1434 24.1016V22.3628H15.6224C15.7471 22.3628 16.3442 22.33 16.3442 21.6344C16.3442 20.9848 15.7209 20.9323 15.5306 20.9323H15.0253V26.3392H13.3652V19.351H15.1566C17.0988 19.351 18.0437 20.099 18.0437 21.641C18.0437 23.0189 17.0726 23.4389 16.6001 23.5636L18.5162 26.3457H16.5542L16.5608 26.3392Z" fill="#D20F3E"></path><path d="M42.5769 26.1752H41.3171V19.3642H42.5769V26.1752ZM40.4247 26.1752H39.1517V19.3642H40.4247V26.1752ZM27.4588 19.3642V26.1752H26.1858V25.6634C26.1858 25.6634 25.6937 26.2409 24.8144 26.2409C23.9352 26.2409 22.9115 25.6372 22.9115 24.0558C22.9115 22.4745 24.1123 21.9758 24.8276 21.9758C25.5428 21.9758 26.1661 22.4548 26.1661 22.4548V19.3642H27.4588ZM25.1819 25.1254C25.2475 25.1254 26.2186 25.0926 26.2186 24.0886C26.2186 23.0847 25.195 23.0519 25.195 23.0519C25.195 23.0519 24.2829 23.0847 24.2829 24.1083C24.2829 25.1319 25.0835 25.1188 25.1819 25.1188M15.1622 19.4889C16.7239 19.4889 17.8919 19.9416 17.8919 21.6214C17.8919 23.3012 16.3433 23.439 16.3433 23.439L18.2265 26.1687H16.6451L15.3 24.0427V22.5073H15.6215C15.6937 22.5073 16.4942 22.4876 16.4942 21.628C16.4942 20.7684 15.674 20.7684 15.5231 20.7684C15.51 20.7684 15.5034 20.7684 15.5034 20.7684H14.8669V26.1752H13.5218V19.4955H15.1622M31.4286 19.6332C32.7737 19.6332 33.4102 20.4206 33.4102 21.2868C33.4102 22.1529 32.8197 22.6188 32.8197 22.6188C33.5415 22.9075 33.9417 23.3078 33.9417 24.3511C33.9417 26.149 31.9535 26.1687 31.9535 26.1687H29.1779V19.6267H31.4352M30.5297 25.0269H31.737C31.737 25.0269 32.5966 24.922 32.5966 24.1674C32.5966 23.4128 31.9404 23.3144 31.737 23.3144H30.9496V22.1661H31.3499C31.3499 22.1661 31.363 22.1661 31.3892 22.1661C31.5401 22.1661 32.0454 22.1201 32.0454 21.464C32.0454 20.8078 31.4089 20.7619 31.2186 20.7619C31.1858 20.7619 31.1661 20.7619 31.1661 20.7619H30.5231V25.0204M20.3787 21.9561C22.5375 21.9561 22.4522 24.0624 22.4522 24.0624V24.397H19.5192C19.5192 24.876 19.9194 25.2894 20.464 25.2894C21.0087 25.2894 21.2908 24.7645 21.2908 24.7645L22.3276 25.2763C21.8485 25.9981 21.1989 26.2868 20.4772 26.2868C18.2265 26.2868 18.1806 24.4167 18.1806 24.1805C18.1806 23.9443 18.2134 21.9561 20.3722 21.9561M19.5388 23.6293H21.1465C21.1465 23.6293 21.0808 22.8747 20.3525 22.8747C19.6241 22.8747 19.5388 23.6293 19.5388 23.6293ZM35.615 22.1726V24.4561C35.615 24.4561 35.6609 25.2238 36.3827 25.2238C37.1045 25.2238 37.0979 24.4561 37.0979 24.4561V22.1726H38.4037V24.5348C38.4037 24.5348 38.5677 26.3721 36.422 26.3721C34.2764 26.3721 34.3289 24.7579 34.3289 24.4692V22.1726H35.6215M42.8919 19.0427H41.0087V26.4771H42.8919V19.0427ZM40.7396 19.0427H38.8433V26.4771H40.7396V19.0427ZM27.7737 19.0427H25.8577V21.9036C25.5821 21.7724 25.2213 21.6542 24.8276 21.6542C24.0533 21.6542 22.964 22.1267 22.6753 23.38C22.5966 23.0453 22.4325 22.6451 22.111 22.3104C21.6911 21.8773 21.1071 21.6542 20.3722 21.6542C18.5218 21.6542 17.8656 23.0191 17.8656 24.1936C17.8656 25.3682 18.548 26.6083 20.4706 26.6083C21.363 26.6083 22.0716 26.2212 22.5769 25.4535L22.7737 25.1582L22.4588 25.0007L21.8682 24.712H22.6622C22.9115 25.9653 23.8695 26.5361 24.8144 26.5361C25.2541 26.5361 25.6084 26.4115 25.8774 26.2671V26.4705H27.7672V19.0361L27.7737 19.0427ZM20.0113 23.3209C20.0835 23.2422 20.195 23.1831 20.359 23.1831C20.5231 23.1831 20.6215 23.2422 20.6937 23.3209H20.0113ZM25.1819 24.8038C24.9129 24.8038 24.5979 24.6792 24.5979 24.1018C24.5979 23.4456 25.0769 23.3668 25.2016 23.3537C25.3459 23.3603 25.9102 23.439 25.9102 24.0755C25.9102 24.7579 25.3066 24.7973 25.1819 24.8038ZM19.926 24.712H20.9562C20.8709 24.817 20.7068 24.981 20.464 24.981C20.2213 24.981 20.0375 24.876 19.926 24.712ZM15.1622 19.1739H13.2134V26.4771H15.1819V24.4364L16.3827 26.3327L16.4745 26.4771H18.8171L18.4824 25.9915L16.8551 23.6359C17.4785 23.4128 18.2003 22.8288 18.2003 21.6214C18.2003 20.729 17.8919 20.0729 17.2816 19.6661C16.7895 19.338 16.094 19.1805 15.1622 19.1805M15.1819 21.0768H15.5231H15.5297C15.7724 21.0768 16.1858 21.149 16.1858 21.6214C16.1858 22.1332 15.7921 22.1923 15.6215 22.1923H15.1884V21.0768H15.1819ZM31.4286 19.3183H28.863V26.4771H31.947C31.947 26.4771 32.5178 26.4705 33.0756 26.2146C33.4496 26.044 33.8695 25.7356 34.0926 25.1975C34.1845 25.5388 34.342 25.8275 34.5716 26.0571C34.985 26.4771 35.6084 26.6871 36.4089 26.6871C37.2094 26.6871 37.7934 26.464 38.1937 26.0243C38.7383 25.4338 38.7121 24.6595 38.6989 24.5283V21.8642H36.7764V24.4561C36.7764 24.5939 36.737 24.9154 36.3761 24.9154C35.9955 24.9154 35.9299 24.5676 35.9168 24.443V21.8577H34.0008V23.1831C33.8302 22.8616 33.5874 22.6516 33.3184 22.5007C33.5087 22.2382 33.7121 21.8248 33.7121 21.2737C33.7121 20.296 33.0034 19.3052 31.422 19.3052M30.8249 21.0637H31.1858C31.1858 21.0637 31.1989 21.0637 31.2121 21.0637C31.5533 21.0637 31.7304 21.1949 31.7304 21.4574C31.7304 21.5755 31.7304 21.8445 31.3827 21.8445C31.3761 21.8445 31.3695 21.8445 31.3695 21.8445H31.3564H31.3433H30.8315V21.0703L30.8249 21.0637ZM30.8249 23.6096H31.7239C31.8551 23.6096 32.2751 23.649 32.2751 24.1542C32.2751 24.5873 31.7961 24.6923 31.7042 24.7054H30.8315V23.6096H30.8249Z" fill="white"></path><path d="M41.1733 19.0557H40.5171V22.4481H41.1733V19.0557Z" fill="white"></path><path d="M15.8386 30.2959H5.62207V43.4521V61.4704L25.4646 73.4718V43.4521V30.2959H15.8386ZM20.2087 43.4521V64.1148L10.8714 58.4652V43.4521V35.5518H20.2087V43.4521Z" fill="white"></path><path d="M40.2681 30.2959H35.898H30.6421V35.5518V43.4455V43.4521V73.4652L50.4846 61.4639V47.0019H45.2418H45.2287H40.5634V52.2578H45.2287V58.4586L35.898 64.1082V43.4521V43.4455V35.5518H45.2287V41.7526H50.4846V35.5518V30.2959H40.2681Z" fill="white"></path><path fill-rule="evenodd" clip-rule="evenodd" d="M32.7682 13.2559C32.7682 15.8609 30.6554 17.9738 28.0504 17.9738C25.4454 17.9738 23.3325 15.8609 23.3325 13.2559C23.3325 10.6509 25.4454 8.53809 28.0504 8.53809C30.6554 8.53809 32.7682 10.6509 32.7682 13.2559Z" fill="#FFCC07"></path><path d="M27.8857 15.5063C27.8135 15.48 27.6101 15.375 27.5117 15.2373C27.4789 15.1454 27.3608 14.8829 27.1049 14.6664C27.0918 14.5352 27.0524 14.2989 26.9343 14.1218C26.9146 14.0299 26.8621 13.8002 26.8424 13.7346C26.8096 13.6165 26.7702 13.4525 26.7702 13.4131C26.7702 13.3409 26.7702 12.9341 26.5143 12.5995C26.4684 12.5207 26.3044 12.2386 26.0616 12.0155C26.0156 11.963 25.8516 11.7596 25.7138 11.6218C25.6744 11.5824 25.471 11.3527 25.0642 11.064C25.0642 11.064 24.887 10.9328 24.7624 10.8016C24.7558 10.795 24.7427 10.7819 24.7296 10.7753C24.7099 10.7622 24.2899 10.4604 23.8109 10.4604C23.5747 10.4604 23.3713 10.5325 23.1941 10.6703C23.0957 10.7359 22.8135 10.9065 22.5904 10.9656C22.4789 10.9787 21.849 11.0903 21.5471 11.5693C21.5275 11.5758 21.4946 11.589 21.429 11.6021C21.2912 11.5955 20.7269 11.6021 20.2939 12.1598C20.2545 12.1926 20.1101 12.2976 19.8608 12.3304C19.7296 12.3239 19.1128 12.3107 18.6797 12.8094C18.5222 12.9472 18.0629 13.2622 17.6823 13.2622C17.5379 13.2622 17.4198 13.2163 17.3214 13.1244C17.3017 13.1047 17.1443 12.921 17.387 12.547C17.4264 12.501 17.6364 12.2648 17.9645 12.022C18.1219 11.9105 18.3713 11.6021 18.2138 11.2084C18.181 11.11 18.0301 10.7425 17.4855 10.7228C17.328 10.69 16.9343 10.5719 16.7768 10.3816C16.7309 10.3226 16.6521 10.2897 16.5734 10.3094C16.4946 10.3226 16.4356 10.3816 16.4159 10.4538C16.4159 10.4735 16.2781 10.959 16.5471 11.3199C16.7177 11.543 16.9933 11.6611 17.3673 11.6611C17.3214 11.7071 17.2624 11.7596 17.2033 11.7793C17.2033 11.7793 17.1967 11.7793 17.1902 11.7793C17.1705 11.7858 16.7834 11.963 16.6128 12.5076C16.475 12.8619 16.4225 13.5968 17.2099 13.9118C17.4461 13.9905 17.7086 14.0102 18.0432 13.9774C18.0563 14.1677 18.0957 14.4367 18.2269 14.6926C18.2269 14.6992 18.2335 14.7123 18.2401 14.7189C18.2532 14.7451 18.2663 14.7779 18.2663 14.7976L17.9973 14.9551C17.9973 14.9551 17.9645 14.9551 17.9382 14.9551C17.912 14.9551 17.8529 14.942 17.7939 14.942C17.6233 14.942 17.5314 15.0142 17.4855 15.0732C17.4723 15.0929 17.4592 15.1126 17.4526 15.1323C17.4526 15.1323 17.4002 15.2832 17.3345 15.4079C17.3345 15.4079 17.3345 15.4144 17.3345 15.421C17.3083 15.48 17.2492 15.585 17.1705 15.6703C17.1705 15.6506 17.1639 15.631 17.1574 15.6047C17.1377 15.5522 17.0852 15.4604 16.9408 15.4341C16.8227 15.4079 16.6915 15.4341 16.5996 15.5194C16.534 15.5785 16.4487 15.6375 16.4225 15.6506C16.3372 15.6835 16.2453 15.7556 16.2191 15.8737C16.2191 15.8737 16.2191 15.8803 16.2191 15.8869C16.1469 15.8934 16.0878 15.9262 16.0353 15.9787C15.9303 16.0903 15.9172 16.2543 15.9107 16.3265C15.9107 16.3856 15.891 16.4118 15.891 16.4118C15.891 16.4118 15.891 16.4118 15.891 16.4184C15.8188 16.543 15.8254 16.648 15.8319 16.6743C15.8319 16.6808 15.8319 16.6939 15.8319 16.7005C15.8516 16.7727 15.9303 16.9433 16.2256 16.9433C16.2978 16.9433 16.3569 16.9302 16.3634 16.9302C16.3831 16.9302 16.4028 16.917 16.4225 16.9105C16.4618 16.9367 16.5143 16.9499 16.5603 16.9433C16.5603 16.9433 16.5931 16.9433 16.6324 16.9433C16.6784 16.9433 16.7046 16.9433 16.7243 16.9564C16.7374 16.9564 16.8096 16.9827 16.908 16.9827C17.0918 16.9827 17.2492 16.8908 17.3345 16.7399C17.387 16.6546 17.4592 16.5627 17.5051 16.5299C17.5445 16.543 17.6167 16.5562 17.7086 16.5562C17.912 16.5562 18.0957 16.484 18.2335 16.3396C18.2335 16.3396 18.4369 16.1296 18.7125 16.1296C18.7387 16.1296 18.7715 16.1296 18.7912 16.1296C18.7978 16.1296 19.0143 16.1756 19.2177 16.1756C19.3818 16.1756 19.4999 16.1493 19.5852 16.0903C19.7033 16.0312 19.9067 15.9262 19.9658 15.9065C20.0642 15.8803 20.2348 15.7753 20.2676 15.5588C20.307 15.4669 20.3529 15.3685 20.3726 15.3422C20.4185 15.2898 20.4317 15.2176 20.4185 15.1585C20.5038 15.1782 20.6285 15.1913 20.7532 15.1716H20.7663C20.7663 15.1716 20.9763 15.1191 21.1994 15.1191C21.265 15.1191 21.324 15.1191 21.3765 15.1323C21.429 15.1454 21.7374 15.211 22.0721 15.211C22.1639 15.211 22.2558 15.211 22.3345 15.1979C22.3739 15.1979 22.4067 15.1782 22.4395 15.152C22.5445 15.2766 22.6889 15.3882 22.8726 15.4538C22.8726 15.4538 23.0629 15.526 23.1088 15.7753C23.0366 15.8081 22.912 15.8606 22.6889 15.9394C22.6889 15.9394 22.6823 15.9394 22.6757 15.9394C22.5773 15.7359 22.3477 15.3291 22.0458 15.3291C22.0458 15.3291 22.0261 15.3291 22.0196 15.3291L21.6128 15.3619C21.6128 15.3619 21.5865 15.3619 21.5799 15.3619C21.4946 15.3816 21.3962 15.4472 21.3634 15.5588C21.3437 15.6113 21.3372 15.7228 21.4356 15.8409C21.4684 15.8869 21.5537 16.005 21.5996 16.0837C21.639 16.1887 21.7374 16.2871 21.9015 16.2871C21.9212 16.2871 21.9408 16.2871 21.9671 16.2871C21.9671 16.2871 21.9671 16.2871 21.9736 16.2871C21.9868 16.3003 21.9999 16.3331 22.0196 16.3921C22.0196 16.4052 22.0327 16.4184 22.0393 16.4315C22.0524 16.4577 22.1771 16.6743 22.4067 16.7464C22.4198 16.7464 22.492 16.7727 22.5839 16.7727C22.6757 16.7727 22.7676 16.753 22.8464 16.7136C23.0563 16.6349 23.5025 16.4643 23.6534 16.3724C23.6666 16.3659 23.7125 16.3462 23.7387 16.3462C23.7387 16.3462 23.7519 16.3462 23.7584 16.3462C23.7715 16.3462 23.8175 16.3593 23.8765 16.3593C24.0471 16.3593 24.1915 16.2806 24.2702 16.1428L24.4212 15.9065C24.4408 15.9919 24.4671 16.0837 24.5196 16.1428C24.5458 16.1756 24.6443 16.2871 24.8017 16.2871C24.8345 16.2871 24.8673 16.2871 24.8936 16.274C24.8936 16.274 24.9067 16.274 24.9133 16.274C24.9461 16.274 25.0117 16.2674 25.1495 16.2215C25.1889 16.2084 25.3464 16.169 25.412 16.1428C25.4907 16.1165 25.6351 16.0772 25.6941 16.0772C25.7007 16.0772 25.7138 16.0772 25.7269 16.0772C25.7335 16.0772 25.786 16.0771 25.845 16.0837C25.845 16.0837 25.8582 16.0837 25.8647 16.0837C25.8647 16.0837 25.891 16.0837 25.9303 16.0837C26.0353 16.0837 26.2847 16.064 26.4881 15.8803C26.6128 16.0115 26.9146 16.2806 27.3542 16.2806C27.433 16.2806 27.5183 16.274 27.597 16.2543C27.6823 16.2346 27.7479 16.1625 27.761 16.0706C27.761 16.0247 27.761 15.9853 27.7348 15.9459C27.8004 15.9459 27.866 15.9262 27.9317 15.9065C28.0104 15.8803 28.0694 15.8016 28.0694 15.7163C28.0694 15.631 28.017 15.5522 27.9382 15.5194M16.9212 11.0706C16.8883 11.0247 16.8687 10.9722 16.8555 10.9197C17.1311 11.064 17.4198 11.1231 17.4658 11.1362C17.4789 11.1362 17.492 11.1362 17.4986 11.1362C17.7873 11.1362 17.8529 11.3002 17.8595 11.3265C17.8595 11.3396 17.8595 11.3462 17.8726 11.3593C17.912 11.4512 17.8923 11.5299 17.8595 11.5824C17.8595 11.5365 17.8398 11.4971 17.8201 11.4577C17.7282 11.2871 17.5248 11.2543 17.4855 11.2478C17.4723 11.2478 17.4658 11.2478 17.4526 11.2478H17.4264C17.1771 11.2478 17.0065 11.1887 16.9212 11.0706ZM17.4067 16.0509C17.4067 16.0509 17.387 16.1034 17.3805 16.1296C17.1967 16.2084 17.0589 16.4184 16.9933 16.5299C16.9868 16.543 16.9736 16.5627 16.9277 16.5627C16.9015 16.5627 16.8818 16.5627 16.8818 16.5627C16.8555 16.5562 16.8227 16.543 16.7965 16.543C16.8096 16.5102 16.8227 16.4905 16.8293 16.4774C16.9671 16.4446 17.0655 16.3462 17.1114 16.2609C17.1114 16.2543 17.118 16.2412 17.1246 16.2346C17.1442 16.1821 17.223 16.1625 17.223 16.1625C17.2361 16.1625 17.2492 16.1559 17.2624 16.1493C17.328 16.1231 17.387 16.0837 17.433 16.0378C17.4198 16.0575 17.4133 16.0706 17.4067 16.0772M22.0065 15.8869C22.0065 15.8869 21.9802 15.8869 21.9671 15.8869C21.9474 15.8541 21.9212 15.8147 21.8949 15.7753L22.0524 15.7622C22.0918 15.7819 22.1508 15.8541 22.2099 15.9394C22.1377 15.8934 22.0655 15.8803 22.013 15.8803M22.5576 16.3659C22.5576 16.3659 22.4986 16.3331 22.4789 16.3134C22.5314 16.3462 22.5904 16.3593 22.6561 16.3659C22.6233 16.379 22.5642 16.3659 22.5576 16.3659ZM24.6902 14.8567C24.6311 14.9026 24.4802 15.0207 24.4015 15.1782C24.4015 15.1782 24.3949 15.1651 24.3883 15.1585C24.3883 15.152 24.3883 15.1388 24.3818 15.1323L24.2702 14.8764C24.3818 14.8829 24.4933 14.8698 24.5721 14.8304C24.6049 14.8304 24.6442 14.8173 24.6902 14.8107C24.6902 14.8239 24.6902 14.8436 24.6836 14.8567M26.5275 15.1979C26.6456 15.3422 26.6981 15.4604 26.7243 15.5391C26.6718 15.48 26.5996 15.4472 26.5143 15.4472C26.3897 15.4472 26.2847 15.526 26.2519 15.5457C26.2453 15.5522 26.2322 15.5588 26.2256 15.5719C26.1534 15.6506 26.0484 15.6834 25.9828 15.69C26.0222 15.6638 26.0616 15.631 26.0944 15.585C26.1403 15.5194 26.1862 15.4144 26.16 15.2373C26.1403 15.1323 26.0419 15.0142 25.8778 15.0142C25.7991 15.0142 25.7138 15.0404 25.6219 15.0929C25.6023 15.106 25.4251 15.2044 25.3726 15.4341C25.3726 15.4407 25.3726 15.4472 25.3726 15.4538C25.3595 15.5391 25.3792 15.6113 25.4317 15.6703C25.4448 15.6835 25.4579 15.6966 25.4776 15.7097C25.3857 15.7359 25.3004 15.7622 25.2742 15.7688C25.2348 15.7819 25.1036 15.8212 25.0314 15.8409C25.0314 15.8409 25.0248 15.8409 25.0183 15.8409C24.9658 15.8606 24.933 15.8672 24.9198 15.8672C24.8936 15.8672 24.8608 15.8672 24.8411 15.8672C24.8345 15.8409 24.828 15.8081 24.8214 15.7819C24.8345 15.7359 24.8739 15.6834 24.8936 15.6638C24.8936 15.6638 24.9067 15.6506 24.9133 15.6441C24.9461 15.6047 25.0248 15.5194 25.0051 15.4013C25.0051 15.3685 24.9855 15.3422 24.9658 15.316C24.9395 15.2832 24.9067 15.2569 24.8673 15.2373C24.887 15.2176 24.9067 15.2044 24.933 15.1848C25.0773 15.0798 25.097 14.9223 25.097 14.896C25.097 14.8632 25.1429 14.7779 25.1889 14.7189C25.2742 14.6073 25.2414 14.5023 25.2282 14.463C25.1889 14.3842 25.1101 14.3383 25.0117 14.3383C24.9723 14.3383 24.9395 14.3449 24.9264 14.3514C24.887 14.3646 24.6574 14.3974 24.4736 14.4236C24.4474 14.4236 24.4212 14.4367 24.4015 14.4499C24.6049 13.9709 24.4015 13.564 24.3883 13.5443C24.3424 13.459 24.2505 13.4131 24.1521 13.4394C24.0603 13.4656 23.9946 13.5443 23.9946 13.6428C23.9946 13.774 23.9225 14.0168 23.8765 14.1349C23.8765 14.1349 23.8765 14.1415 23.8765 14.148C23.824 14.3055 23.765 14.358 23.7584 14.3646C23.7519 14.3646 23.7387 14.3711 23.7322 14.3777C23.6928 14.3908 23.5616 14.4302 23.4369 14.4564C23.4303 14.4564 23.4172 14.4564 23.4107 14.463C23.2794 14.5155 23.2335 14.6073 23.2204 14.6598C23.1876 14.7648 23.2269 14.8632 23.2729 14.9289C23.2794 14.942 23.2925 14.9485 23.2991 14.9551C23.3122 14.9682 23.3319 15.0076 23.3516 15.0404C23.3975 15.1651 23.5484 15.4079 23.6141 15.5063C23.6272 15.526 23.6338 15.5325 23.6534 15.5457C23.6534 15.5457 23.6534 15.5588 23.6534 15.5653C23.6534 15.585 23.6534 15.5916 23.6534 15.6113C23.6534 15.6506 23.6141 15.7753 23.5681 15.8737C23.5681 15.8869 23.555 15.9 23.555 15.9131C23.555 15.9065 23.555 15.8934 23.555 15.8869C23.5616 15.2569 23.0629 15.0667 23.0366 15.0601C22.7086 14.942 22.5773 14.5155 22.5708 14.5155C22.5642 14.4892 22.5511 14.4695 22.538 14.4499C22.4658 14.3514 22.3739 14.3383 22.328 14.3383C22.2164 14.3383 22.1114 14.417 22.059 14.5483C22.0524 14.568 22.0458 14.5876 22.0458 14.6073C22.0393 14.673 22.0458 14.7386 22.0458 14.7976C21.7571 14.7911 21.4946 14.732 21.4881 14.732C21.4881 14.732 21.4815 14.732 21.475 14.732C21.3962 14.7189 21.3175 14.7123 21.2256 14.7123C20.9828 14.7123 20.7597 14.7583 20.7072 14.7714C20.681 14.7714 20.6613 14.7714 20.6351 14.7714C20.5366 14.7714 20.4841 14.7386 20.4841 14.7386C20.4841 14.7386 20.4776 14.7386 20.471 14.7254C20.412 14.6664 20.4054 14.3449 20.4513 14.0693C20.4513 14.0693 20.4513 14.0627 20.4513 14.0562C20.4645 13.9446 20.4382 13.8593 20.3857 13.7937C20.3398 13.7412 20.2742 13.7149 20.202 13.7149C20.1823 13.7149 20.1495 13.7149 20.1298 13.7281C20.1036 13.7346 20.0773 13.7543 20.0511 13.774C19.8345 13.9643 19.828 14.4761 19.8411 14.7386C19.5393 15.3226 18.9618 15.3619 18.8634 15.3619C18.8175 15.3619 18.7715 15.3554 18.7256 15.3554C18.5813 15.3554 18.4566 15.3816 18.4435 15.3816C18.076 15.4472 17.8135 15.631 17.6429 15.7884C17.702 15.7031 17.7348 15.631 17.7479 15.6047C17.7873 15.526 17.8267 15.4341 17.8529 15.3685C17.8726 15.3685 17.8923 15.3685 17.8988 15.375C17.912 15.375 17.9185 15.375 17.9317 15.375C17.9579 15.375 17.9776 15.375 18.0038 15.375C18.1219 15.375 18.2007 15.3488 18.2401 15.3226L18.555 15.1388C18.555 15.1388 18.5747 15.1257 18.5878 15.1126C18.7847 14.9354 18.7519 14.673 18.6338 14.4958C18.4631 14.1546 18.5025 13.7674 18.5025 13.7609C18.5091 13.6953 18.4828 13.6296 18.4369 13.5903C18.4107 13.564 18.3713 13.5443 18.3385 13.5378C18.7059 13.3737 18.9881 13.131 19.0078 13.1178C19.0143 13.1113 19.0209 13.1047 19.0275 13.0981C19.2965 12.7832 19.6771 12.7504 19.8345 12.7504C19.8673 12.7504 19.887 12.7504 19.887 12.7504C19.9002 12.7504 19.9198 12.7504 19.933 12.7504C20.3726 12.6979 20.6088 12.4814 20.6351 12.4551C20.6416 12.4485 20.6482 12.442 20.6548 12.4289C20.9303 12.0548 21.2781 12.0155 21.4159 12.0155C21.4356 12.0155 21.4487 12.0155 21.4487 12.0155C21.4684 12.0155 21.4815 12.0155 21.5012 12.0155C21.7834 11.9827 21.9015 11.8842 21.9408 11.7924C22.1639 11.4512 22.6954 11.379 22.6954 11.379C22.702 11.379 22.7151 11.379 22.7217 11.379C23.0629 11.2937 23.4566 11.0247 23.4763 11.0181C23.4763 11.0181 23.4828 11.0181 23.4894 11.0115C23.5944 10.9262 23.7125 10.8869 23.8568 10.8869C24.1587 10.8869 24.454 11.0706 24.5196 11.1165C24.6705 11.274 24.8608 11.4118 24.8673 11.4184C25.261 11.6939 25.4513 11.9105 25.4513 11.9105C25.4513 11.9105 25.4513 11.917 25.4645 11.9236C25.6023 12.068 25.7991 12.3042 25.7991 12.3042C25.8057 12.3107 25.8122 12.3239 25.8254 12.3304C26.055 12.5273 26.2059 12.816 26.2059 12.8226C26.2125 12.8357 26.2191 12.8488 26.2322 12.8619C26.4225 13.0981 26.4093 13.4065 26.4093 13.4131C26.4093 13.4131 26.4093 13.4197 26.4093 13.4262C26.4093 13.5115 26.4487 13.6821 26.4815 13.8068C26.3831 13.6887 26.2781 13.5509 26.2584 13.5115C26.2584 13.4984 26.2453 13.4853 26.2387 13.4787C26.1928 13.4197 26.1009 13.3541 25.9894 13.3541C25.9238 13.3541 25.7991 13.3803 25.6941 13.5378C25.681 13.5575 25.6744 13.5706 25.6679 13.5903C25.6679 13.5903 25.6547 13.6296 25.6482 13.6428C25.6482 13.6428 25.5235 13.8855 25.4907 13.9512C25.471 13.984 25.4382 14.0562 25.4382 14.1415C25.4382 14.2333 25.5038 14.3121 25.5957 14.3383C25.6416 14.3514 25.7991 14.3711 25.95 14.1939C25.9894 14.2333 26.0222 14.2661 26.0419 14.2858C26.055 14.3055 26.0681 14.3646 26.0616 14.5483C26.0616 14.6073 26.0878 14.673 26.1338 14.7123C26.1797 14.7517 26.2453 14.7714 26.3044 14.7583C26.3175 14.7583 26.5799 14.7123 26.6259 14.3646C26.6981 14.463 26.7309 14.6336 26.744 14.7386C26.6981 14.7386 26.6456 14.7386 26.6062 14.7648C26.5406 14.7976 26.4881 14.8501 26.4684 14.9223C26.429 15.047 26.5012 15.1651 26.534 15.211" fill="white"></path><path d="M24.0737 11.6924C24.0212 11.6924 23.9162 11.7121 23.8309 11.8367C23.8309 11.8367 23.8309 11.8433 23.8309 11.8499C23.7325 12.027 23.7784 12.1648 23.8178 12.2304C23.8178 12.2436 23.8309 12.2501 23.8375 12.2632C23.8375 12.2698 23.995 12.4667 24.0146 12.8735C24.0146 12.9719 24.0934 13.0507 24.1918 13.0703C24.2049 13.0703 24.2115 13.0703 24.2246 13.0703C24.3099 13.0703 24.3887 13.0178 24.4215 12.9325C24.428 12.9063 24.6446 12.2961 24.3296 11.8499C24.2837 11.7711 24.1918 11.6989 24.0803 11.6989" fill="white"></path><path d="M40.2484 16.3977C40.2484 16.3977 40.2287 16.3649 40.2222 16.3058C40.2222 16.2402 40.2091 16.0696 40.0975 15.958C40.045 15.9055 39.986 15.8793 39.9138 15.8662C39.9138 15.8662 39.9138 15.8596 39.9138 15.853C39.8875 15.7349 39.7891 15.6628 39.7169 15.6365C39.6907 15.6234 39.5988 15.5578 39.5332 15.4987C39.461 15.4397 39.3692 15.4003 39.2707 15.4003C39.2445 15.4003 39.2117 15.4003 39.192 15.4069C39.0476 15.4397 38.9951 15.5315 38.9755 15.5775C38.9689 15.5971 38.9623 15.6168 38.9623 15.6431C38.8836 15.5578 38.818 15.4397 38.7983 15.3937C38.7983 15.3937 38.7983 15.3872 38.7983 15.3806C38.7392 15.2625 38.6867 15.1116 38.6802 15.105C38.6736 15.0853 38.6605 15.0656 38.6474 15.046C38.6014 14.9869 38.5096 14.9147 38.339 14.9147C38.2799 14.9147 38.2209 14.9213 38.1946 14.9279C38.1618 14.9279 38.1421 14.9279 38.129 14.9279L37.8534 14.7704C37.8534 14.7704 37.8665 14.7179 37.8797 14.6982C37.8797 14.6916 37.8928 14.6785 37.8928 14.6719C38.024 14.416 38.0634 14.147 38.0765 13.9567C38.4112 13.9961 38.6736 13.9764 38.9164 13.8911C39.6907 13.5827 39.6382 12.8478 39.507 12.4935C39.3363 11.9488 38.9426 11.7717 38.9295 11.7651C38.9295 11.7651 38.9295 11.7651 38.9164 11.7651C38.8573 11.7389 38.7917 11.6929 38.7524 11.647C39.1264 11.647 39.402 11.5289 39.5726 11.3058C39.8416 10.9515 39.7104 10.4659 39.7038 10.4397C39.6841 10.3675 39.6185 10.3084 39.5463 10.2953C39.4676 10.2822 39.3888 10.3084 39.3429 10.3675C39.1854 10.5578 38.7917 10.6759 38.6342 10.7087C38.0896 10.7284 37.9387 11.0958 37.9059 11.1943C37.7484 11.588 37.9978 11.8964 38.1487 12.0079C38.4833 12.2507 38.6933 12.4935 38.7327 12.5394C38.9755 12.9134 38.818 13.0971 38.7983 13.1168C38.6999 13.2087 38.5818 13.2546 38.4374 13.2546C38.0043 13.2546 37.5188 12.8609 37.44 12.8019C37.007 12.3097 36.3967 12.3163 36.2589 12.3229C36.003 12.2901 35.8587 12.1851 35.8258 12.1523C35.3928 11.588 34.8219 11.588 34.6907 11.5945C34.6251 11.588 34.5857 11.5748 34.5726 11.5617C34.2707 11.0827 33.6408 10.9777 33.5293 10.958C33.2799 10.8924 32.9715 10.689 32.9256 10.6628C32.7484 10.525 32.545 10.4528 32.3088 10.4528C31.8298 10.4528 31.4098 10.7546 31.3902 10.7677C31.377 10.7743 31.3705 10.7874 31.3573 10.794C31.2327 10.9252 31.0555 11.0565 31.0555 11.0565C30.6487 11.3452 30.4387 11.5748 30.3993 11.6142C30.2681 11.752 30.0975 11.9554 30.0516 12.0079C29.8022 12.2244 29.6382 12.5132 29.5988 12.5919C29.3363 12.92 29.3363 13.3268 29.3429 13.4055C29.3429 13.4449 29.3035 13.5958 29.2707 13.7336C29.251 13.7992 29.1986 14.0289 29.1789 14.1208C29.0673 14.2979 29.0214 14.5342 29.0083 14.6654C28.7524 14.8885 28.6342 15.1444 28.6014 15.2362C28.4965 15.374 28.2996 15.479 28.2274 15.5053C28.1487 15.5381 28.0962 15.6168 28.0962 15.7021C28.0962 15.7874 28.1552 15.8662 28.234 15.8924C28.2996 15.9121 28.3652 15.9318 28.4308 15.9318C28.4112 15.9712 28.398 16.0105 28.4046 16.0565C28.4112 16.1483 28.4768 16.2205 28.5686 16.2402C28.6474 16.2599 28.7327 16.2664 28.8114 16.2664C29.251 16.2664 29.5594 16.004 29.6776 15.8662C29.881 16.0499 30.1303 16.0696 30.2353 16.0696C30.2812 16.0696 30.3009 16.0696 30.3009 16.0696C30.3009 16.0696 30.314 16.0696 30.3206 16.0696C30.3797 16.0565 30.4321 16.063 30.4321 16.063C30.4453 16.063 30.4584 16.063 30.465 16.063C30.5175 16.063 30.6487 16.0958 30.7471 16.1352C30.8127 16.1549 30.9702 16.2008 31.0096 16.2139C31.1408 16.2599 31.213 16.2664 31.2458 16.2664C31.2458 16.2664 31.2589 16.2664 31.2655 16.2664C31.2983 16.273 31.3245 16.2796 31.3573 16.2796C31.5214 16.2796 31.6133 16.168 31.6395 16.1352C31.6854 16.0696 31.7182 15.9777 31.7379 15.8924L31.8954 16.1286C31.9741 16.2664 32.1119 16.3452 32.2891 16.3452C32.3482 16.3452 32.3941 16.3386 32.4072 16.3321C32.4072 16.3321 32.4203 16.3321 32.4269 16.3321C32.4531 16.3321 32.4925 16.3452 32.5122 16.3583C32.6566 16.4567 33.1093 16.6273 33.3193 16.6995C33.398 16.7389 33.4833 16.7586 33.5818 16.7586C33.6736 16.7586 33.7458 16.7389 33.7589 16.7323C33.982 16.6536 34.1067 16.437 34.1198 16.4174C34.1264 16.4042 34.1329 16.3911 34.1395 16.378C34.1592 16.3189 34.1723 16.2927 34.1854 16.273C34.1854 16.273 34.1854 16.273 34.192 16.273C34.2182 16.273 34.2379 16.273 34.2576 16.273C34.4151 16.273 34.5266 16.1746 34.5594 16.0696C34.5988 15.9974 34.6841 15.8793 34.7235 15.8268C34.8219 15.7087 34.8154 15.6037 34.7957 15.5446C34.7629 15.4331 34.6579 15.3675 34.5791 15.3478C34.566 15.3478 34.5529 15.3478 34.5463 15.3478L34.1395 15.315C34.1395 15.315 34.1198 15.315 34.1133 15.315C33.818 15.315 33.5883 15.7153 33.4833 15.9252H33.4702C33.2537 15.8465 33.1224 15.794 33.0503 15.7612C33.0896 15.525 33.2668 15.4462 33.2865 15.4397C33.4702 15.374 33.608 15.2559 33.7196 15.1378C33.7524 15.1641 33.7852 15.1772 33.8245 15.1838C33.9033 15.1969 33.9951 15.1969 34.087 15.1969C34.4216 15.1969 34.7301 15.1313 34.7825 15.1181C34.835 15.1116 34.8941 15.105 34.9597 15.105C35.1762 15.105 35.3862 15.1509 35.3862 15.1575H35.3993C35.524 15.1772 35.6421 15.1706 35.734 15.1444C35.7143 15.21 35.734 15.2822 35.7734 15.3281C35.793 15.3544 35.839 15.4528 35.8783 15.5446C35.9112 15.7546 36.0818 15.8596 36.1736 15.8859C36.2458 15.9121 36.4492 16.0105 36.5673 16.0696C36.6526 16.1286 36.7707 16.1549 36.9348 16.1549C37.1382 16.1549 37.3547 16.109 37.3547 16.109C37.381 16.109 37.4138 16.1024 37.44 16.1024C37.7156 16.1024 37.919 16.3124 37.9256 16.3189C38.0634 16.4567 38.2405 16.5355 38.444 16.5355C38.5293 16.5355 38.6014 16.5223 38.6474 16.5092C38.6933 16.542 38.7655 16.6339 38.818 16.7126C38.9033 16.8701 39.0608 16.962 39.2445 16.962C39.3363 16.962 39.4151 16.9357 39.4282 16.9357C39.4282 16.9357 39.461 16.9292 39.5135 16.9292C39.5529 16.9292 39.5791 16.9292 39.5857 16.9292C39.6316 16.9292 39.6841 16.9292 39.7235 16.8964C39.7432 16.9029 39.7629 16.9095 39.7825 16.916C39.7891 16.916 39.8482 16.9292 39.9203 16.9292C40.2156 16.9292 40.2944 16.7586 40.314 16.6864C40.314 16.6798 40.314 16.6667 40.314 16.6601C40.314 16.6339 40.3272 16.5289 40.2484 16.3977ZM38.713 11.2336C38.713 11.2336 38.6933 11.2336 38.6802 11.2336C38.6408 11.2336 38.4374 11.2796 38.3455 11.4436C38.3259 11.483 38.3127 11.5223 38.3062 11.5683C38.2734 11.5092 38.2537 11.437 38.293 11.3452C38.293 11.3321 38.2996 11.3255 38.2996 11.3189C38.3062 11.2861 38.3718 11.1352 38.6605 11.1286C38.6736 11.1286 38.6867 11.1286 38.6933 11.1286C38.7392 11.1221 39.0345 11.0565 39.3035 10.9121C39.2904 10.9646 39.2707 11.0171 39.2379 11.063C39.1461 11.1811 38.9755 11.2402 38.7327 11.2402H38.7064L38.713 11.2336ZM34.1067 15.7284L34.2642 15.7415C34.2379 15.7809 34.2182 15.8137 34.192 15.853C34.1329 15.8465 34.0476 15.853 33.9492 15.9121C34.0083 15.8202 34.0673 15.7546 34.1067 15.7349M33.6867 16.2927C33.6867 16.2927 33.6408 16.3386 33.6146 16.3452C33.6146 16.3452 33.5489 16.3583 33.5161 16.3452C33.5818 16.3452 33.6408 16.3255 33.6933 16.2927M31.7904 15.1116C31.7904 15.1116 31.7839 15.1313 31.7839 15.1378C31.7839 15.1378 31.7773 15.1509 31.7707 15.1575C31.6986 15 31.5411 14.8819 31.482 14.836C31.482 14.8229 31.482 14.8032 31.4755 14.7901C31.5214 14.7966 31.5673 14.8032 31.6001 14.8097C31.6789 14.8491 31.7904 14.8622 31.902 14.8557L31.7904 15.1116ZM37.7353 15.3609C37.7353 15.3609 37.5975 15.3347 37.4466 15.3347C37.3941 15.3347 37.3482 15.3347 37.3088 15.3412C37.2104 15.3412 36.6329 15.3019 36.3311 14.7179C36.3442 14.4554 36.3311 13.9436 36.1211 13.7533C36.1014 13.7336 36.0752 13.7205 36.0424 13.7074C36.0227 13.7074 35.9899 13.6943 35.9702 13.6943C35.898 13.6943 35.8324 13.7271 35.7865 13.773C35.7274 13.8386 35.7077 13.9239 35.7209 14.0355C35.7209 14.0355 35.7209 14.042 35.7209 14.0486C35.7668 14.3242 35.7602 14.6457 35.7077 14.6982C35.7012 14.6982 35.7012 14.6982 35.6946 14.7113C35.6946 14.7113 35.6421 14.7507 35.5371 14.7507C35.5175 14.7507 35.4912 14.7507 35.465 14.7507C35.419 14.7376 35.1894 14.6916 34.9466 14.6916C34.8547 14.6916 34.7694 14.6916 34.6972 14.7113C34.6972 14.7113 34.6907 14.7113 34.6841 14.7113C34.6841 14.7113 34.4217 14.7704 34.1264 14.7769C34.1329 14.7179 34.1395 14.6588 34.1264 14.5866C34.1264 14.567 34.1198 14.5473 34.1133 14.5276C34.0608 14.3964 33.9558 14.3176 33.8442 14.3176C33.7983 14.3176 33.7064 14.3307 33.6343 14.4292C33.6211 14.4488 33.608 14.4685 33.6014 14.4948C33.6014 14.4948 33.4636 14.9213 33.1356 15.0394C33.1159 15.046 32.6106 15.2362 32.6172 15.8662C32.6172 15.8793 32.6172 15.8859 32.6172 15.899C32.6172 15.8793 32.6041 15.8662 32.5975 15.8465C32.5516 15.7546 32.5122 15.6299 32.5122 15.5906C32.5122 15.5775 32.5122 15.5578 32.5122 15.5446V15.5315C32.5319 15.5184 32.545 15.4987 32.5581 15.4856C32.6238 15.3806 32.7747 15.1378 32.8206 15.0132C32.8337 14.9803 32.86 14.9475 32.8665 14.9279C32.8797 14.9213 32.8862 14.9082 32.8928 14.895C32.9387 14.836 32.9781 14.731 32.9453 14.626C32.9321 14.5735 32.8862 14.4817 32.755 14.4292C32.7484 14.4292 32.7353 14.4292 32.7287 14.4226C32.6172 14.3964 32.4728 14.357 32.4335 14.3439C32.4269 14.3439 32.4138 14.3307 32.4072 14.3307C32.3941 14.3242 32.335 14.2717 32.2891 14.1142C32.2891 14.1142 32.2891 14.1076 32.2891 14.1011C32.2563 14.0223 32.171 13.7533 32.1776 13.6024C32.1776 13.504 32.1119 13.4252 32.0201 13.399C31.9282 13.3727 31.8298 13.4187 31.7839 13.504C31.7707 13.5237 31.5673 13.9305 31.7707 14.4095C31.751 14.3964 31.7248 14.3898 31.6986 14.3832C31.5148 14.357 31.2917 14.3176 31.2392 14.3045C31.2261 14.3045 31.1933 14.2914 31.1605 14.2914C31.0621 14.2914 30.9833 14.3373 30.944 14.416C30.9243 14.4554 30.8915 14.5538 30.9833 14.6719C31.0293 14.7376 31.0686 14.8229 31.0752 14.8491C31.0752 14.8819 31.1014 15.0394 31.2458 15.1444C31.2655 15.1575 31.2852 15.1772 31.3049 15.1969C31.2655 15.2166 31.2327 15.2428 31.2064 15.2756C31.2064 15.2756 31.1736 15.3281 31.1671 15.3609C31.1408 15.479 31.2195 15.5643 31.2524 15.6037C31.2524 15.6037 31.2655 15.6168 31.272 15.6234C31.2917 15.6431 31.3377 15.6956 31.3442 15.7415C31.3442 15.7743 31.3311 15.8071 31.3245 15.8268C31.2983 15.8268 31.272 15.8268 31.2458 15.8268C31.2261 15.8268 31.1933 15.8137 31.1474 15.8006C31.1474 15.8006 31.1408 15.8006 31.1342 15.8006C31.0621 15.7809 30.9374 15.7481 30.898 15.7284C30.8718 15.7218 30.793 15.689 30.6946 15.6693C30.7143 15.6562 30.7274 15.6431 30.7405 15.63C30.7865 15.5775 30.8062 15.5053 30.7996 15.4134C30.7996 15.4069 30.7996 15.4003 30.7996 15.3937C30.7471 15.1641 30.5699 15.0656 30.5634 15.0591C30.465 15 30.3797 14.9738 30.3009 14.9738C30.1369 14.9738 30.0384 15.0919 30.0122 15.2034C29.986 15.3675 30.0319 15.479 30.0778 15.5446C30.1106 15.5906 30.15 15.6234 30.1894 15.6496C30.1172 15.6431 30.0188 15.6103 29.9466 15.5315C29.94 15.525 29.9335 15.5118 29.9203 15.5053C29.8875 15.479 29.7825 15.4069 29.6579 15.4069C29.5726 15.4069 29.5004 15.4397 29.4479 15.4987C29.4741 15.42 29.5332 15.3019 29.6513 15.1509C29.6841 15.105 29.7497 14.9935 29.7169 14.8688C29.6972 14.7966 29.6447 14.7441 29.5791 14.7113C29.5398 14.6916 29.4873 14.6851 29.4413 14.6851C29.4545 14.5735 29.4873 14.4095 29.5594 14.3111C29.6054 14.6523 29.8678 14.6982 29.881 14.7048C29.94 14.7179 30.0056 14.6982 30.0516 14.6523C30.0975 14.6063 30.1238 14.5538 30.1238 14.4882C30.1172 14.3111 30.1369 14.252 30.1434 14.2257C30.1631 14.2061 30.2025 14.1733 30.2353 14.1339C30.3928 14.3176 30.5437 14.2914 30.5896 14.2848C30.6815 14.2651 30.7471 14.1798 30.7471 14.088C30.7471 14.0027 30.7143 13.9305 30.6946 13.8977C30.6618 13.8386 30.5634 13.6352 30.5437 13.5958C30.5306 13.5696 30.524 13.5368 30.524 13.5368C30.524 13.5171 30.5109 13.504 30.4978 13.4843C30.3928 13.3268 30.2681 13.3006 30.2025 13.3006C30.0909 13.3006 29.9991 13.3662 29.9531 13.4252C29.9466 13.4383 29.94 13.4449 29.9335 13.458C29.9138 13.4974 29.8088 13.6352 29.7038 13.7533C29.7366 13.6286 29.776 13.458 29.776 13.3793C29.776 13.3793 29.776 13.3727 29.776 13.3662C29.776 13.3662 29.7629 13.0512 29.9531 12.815C29.9597 12.8019 29.9728 12.7887 29.9794 12.7756C29.9794 12.7756 30.1369 12.4803 30.36 12.2835C30.3665 12.2769 30.3797 12.2638 30.3862 12.2572C30.3862 12.2572 30.5831 12.0145 30.7209 11.8767C30.7209 11.8767 30.7209 11.8701 30.7274 11.8635C30.7274 11.8635 30.9177 11.647 31.3114 11.3714C31.318 11.3714 31.5083 11.2271 31.6592 11.0696C31.7248 11.0237 32.0201 10.8399 32.3219 10.8399C32.4663 10.8399 32.5844 10.8793 32.6894 10.9646C32.6894 10.9646 32.6959 10.9646 32.7025 10.9712C32.7222 10.9843 33.1093 11.2467 33.4571 11.3321C33.4636 11.3321 33.4768 11.3321 33.4833 11.3321C33.4833 11.3321 34.0214 11.4042 34.2379 11.7454C34.2839 11.8373 34.3954 11.9357 34.6776 11.9685C34.6907 11.9685 34.7104 11.9685 34.7235 11.9685C34.7235 11.9685 34.7432 11.9685 34.7629 11.9685C34.9007 11.9685 35.2484 12.0079 35.524 12.3819C35.524 12.3885 35.5371 12.4016 35.5437 12.4082C35.5699 12.4344 35.7996 12.6509 36.2458 12.7034C36.2589 12.7034 36.2786 12.7034 36.2917 12.7034C36.2917 12.7034 36.318 12.7034 36.3508 12.7034C36.5017 12.7034 36.8888 12.7362 37.1579 13.0512C37.1644 13.0578 37.171 13.0643 37.1776 13.0709C37.1972 13.084 37.4794 13.3268 37.8468 13.4908C37.8075 13.4974 37.7747 13.5171 37.7484 13.5433C37.7025 13.5893 37.6762 13.6483 37.6828 13.7139C37.6828 13.7139 37.7222 14.1076 37.5516 14.4488C37.4335 14.626 37.4007 14.8885 37.5975 15.0656C37.6106 15.0722 37.6172 15.0853 37.6303 15.0919L37.9453 15.2756C37.9846 15.3019 38.0634 15.3281 38.1815 15.3281C38.2012 15.3281 38.2274 15.3281 38.2537 15.3281C38.2668 15.3281 38.2734 15.3281 38.2865 15.3281C38.293 15.3281 38.3127 15.3281 38.3324 15.3216C38.3587 15.3872 38.3915 15.4725 38.4374 15.5578C38.4505 15.584 38.4833 15.6562 38.5358 15.7415C38.3652 15.584 38.1093 15.4003 37.7419 15.3347M39.297 16.5158C39.297 16.5158 39.2707 16.5223 39.2445 16.5223C39.1986 16.5223 39.192 16.5092 39.1789 16.483C39.1198 16.378 38.9755 16.168 38.7983 16.0893C38.7983 16.063 38.7852 16.0368 38.772 16.0105C38.772 16.0105 38.7589 15.9908 38.7458 15.9712C38.7983 16.0171 38.8573 16.0565 38.923 16.0827C38.9361 16.0827 38.9492 16.0893 38.9558 16.0958C38.9755 16.0958 39.0411 16.1286 39.0542 16.168C39.0542 16.1811 39.0608 16.1877 39.0673 16.1943C39.1133 16.2796 39.2117 16.378 39.3495 16.4108C39.356 16.4239 39.3692 16.4436 39.3823 16.4764C39.3495 16.4764 39.3232 16.4895 39.297 16.4961" fill="white"></path><path d="M32.2756 11.8367C32.1968 11.7121 32.0919 11.6924 32.0328 11.6924C31.9147 11.6924 31.8294 11.7711 31.7835 11.8433C31.4751 12.2829 31.685 12.8997 31.6916 12.926C31.7244 13.0113 31.8031 13.0638 31.8884 13.0638C31.9016 13.0638 31.9081 13.0638 31.9213 13.0638C32.0197 13.0507 32.0919 12.9653 32.0984 12.8669C32.1181 12.4535 32.269 12.2632 32.2756 12.2567C32.2821 12.2436 32.2953 12.237 32.3018 12.2239C32.3412 12.1583 32.3871 12.0205 32.2887 11.8433C32.2887 11.8433 32.2887 11.8367 32.2887 11.8302" fill="white"></path><path fill-rule="evenodd" clip-rule="evenodd" d="M23.9889 12.1259C23.9561 12.0669 23.9692 12.0078 24.002 11.9488C24.0742 11.8372 24.1464 11.9619 24.1464 11.9619C24.4023 12.3228 24.212 12.8608 24.212 12.8608C24.1858 12.3621 23.9823 12.1259 23.9823 12.1259M26.2133 14.5144C26.2133 14.4094 26.2264 14.1732 26.1214 14.0879C26.0821 14.0551 25.9246 13.8845 25.9246 13.8845C25.8984 13.8451 25.8852 13.8385 25.8852 13.8385C25.8524 13.8385 25.813 13.9107 25.813 13.9107C25.7015 14.1272 25.59 14.101 25.59 14.101C25.59 14.0616 25.6162 14.0157 25.6162 14.0157C25.649 13.9566 25.7737 13.7007 25.7737 13.7007C25.7934 13.6614 25.8065 13.6154 25.8065 13.6154C25.9115 13.4448 26.0165 13.5761 26.0165 13.5761C26.0624 13.6679 26.3052 13.9566 26.3052 13.9566C26.3577 14.0223 26.3642 14.0879 26.3642 14.0879C26.4233 14.4816 26.2199 14.5144 26.2199 14.5144M25.5834 15.5249C25.5375 15.5249 25.5243 15.5052 25.5309 15.4593C25.5637 15.3215 25.6753 15.2558 25.6753 15.2558C25.8852 15.1312 25.9115 15.2558 25.9115 15.2558C25.9508 15.4789 25.7737 15.5118 25.7737 15.5118C25.7409 15.5249 25.5834 15.5249 25.5834 15.5249ZM16.3905 16.181C16.3905 16.181 16.4364 16.2139 16.4102 16.2795C16.4102 16.2795 16.2921 16.601 16.2986 16.7125C16.2986 16.7125 16.0361 16.7585 16.0033 16.6272C16.0033 16.6272 15.9968 16.5747 16.0361 16.5026C16.0361 16.5026 16.0821 16.4369 16.0886 16.3123C16.0886 16.3123 16.0886 16.0039 16.2855 16.0826C16.3249 16.1023 16.3577 16.1351 16.3839 16.1745M16.7054 15.6627C16.7514 15.6233 16.8104 15.6036 16.8695 15.6167C16.9942 15.643 16.922 15.7545 16.922 15.7545C16.8695 15.853 16.7054 16.0104 16.7054 16.0104C16.5545 16.122 16.4364 15.9908 16.4364 15.9908C16.3249 15.8792 16.4692 15.8267 16.4692 15.8267C16.5545 15.7939 16.7054 15.6561 16.7054 15.6561M18.2343 13.7204C18.2343 13.7204 18.1884 14.1797 18.3918 14.58C18.3918 14.58 18.5427 14.7965 18.3918 14.9343L18.0768 15.118C18.0768 15.118 18.0375 15.1509 17.8931 15.1377C17.8931 15.1377 17.6963 15.0918 17.6306 15.1771C17.6306 15.1771 17.5716 15.3411 17.506 15.4789C17.506 15.4789 17.3616 15.807 17.1254 15.912C17.1254 15.912 16.9351 15.9579 16.876 16.122C16.876 16.122 16.817 16.2401 16.6923 16.2401C16.6923 16.2401 16.6005 16.2663 16.5414 16.4698C16.5414 16.4698 16.5086 16.601 16.5086 16.6994C16.5086 16.6994 16.6661 16.6797 16.7645 16.7191C16.7645 16.7191 17.0138 16.8044 17.1254 16.5944C17.1254 16.5944 17.3419 16.227 17.4994 16.2795C17.4994 16.2795 17.8209 16.3845 18.0506 16.1548C18.0506 16.1548 18.359 15.8136 18.8052 15.8858C18.8052 15.8858 19.3039 15.9842 19.4548 15.8726C19.4548 15.8726 19.7697 15.7086 19.8879 15.6692C19.8879 15.6692 20.0322 15.6299 20.0453 15.4724C20.0453 15.4724 20.1306 15.2493 20.1963 15.1771H19.96C19.96 15.1771 19.7435 15.5314 19.3826 15.643C19.3826 15.643 19.1858 15.7217 18.7855 15.6561C18.7855 15.6561 18.2146 15.5249 17.7094 16.0695C17.7094 16.0695 17.6372 16.1679 17.5453 16.1285C17.5453 16.1285 17.8209 15.6561 18.4377 15.538C18.4377 15.538 18.6346 15.4986 18.8052 15.5249C18.8052 15.5249 19.6254 15.5511 20.0125 14.7375C20.0125 14.7375 19.9732 14.0485 20.1569 13.8845C20.1569 13.8845 20.2291 13.8648 20.2159 13.996C20.2159 13.996 20.0913 14.7178 20.3275 14.8621C20.3275 14.8621 20.4653 14.9671 20.7146 14.9278C20.7146 14.9278 21.0952 14.8359 21.4102 14.8884C21.4102 14.8884 21.8892 14.9999 22.3026 14.9474C22.3026 14.9474 22.1976 14.7834 22.2173 14.5866C22.2173 14.5866 22.2763 14.4488 22.3419 14.5341C22.3419 14.5341 22.4994 15.059 22.9325 15.2165C22.9325 15.2165 23.3196 15.3543 23.3131 15.8464C23.3131 15.8464 23.254 15.912 22.7422 16.0957C22.7422 16.0957 22.5519 16.1548 22.4863 16.0104C22.4863 16.0104 22.2369 15.4789 22.027 15.4986L21.6201 15.5314C21.6201 15.5314 21.4823 15.5642 21.5808 15.6758C21.5808 15.6758 21.7186 15.8595 21.7776 15.9711C21.7776 15.9711 21.7907 16.0629 21.922 16.0432C21.922 16.0432 22.0991 15.9514 22.2041 16.286C22.2041 16.286 22.296 16.4566 22.4535 16.5091C22.4535 16.5091 22.5978 16.5551 22.7356 16.4829C22.7356 16.4829 23.4049 16.2401 23.5165 16.1482C23.5165 16.1482 23.6608 16.0695 23.7724 16.1089C23.7724 16.1089 23.9758 16.1548 24.0545 15.9973L24.2645 15.6758C24.2645 15.6758 24.3104 15.5971 24.3039 15.4986C24.3039 15.4986 24.3236 15.4002 24.2382 15.3018C24.2382 15.3018 24.1595 15.2165 24.1464 15.1574L24.002 14.8097C24.002 14.8097 23.943 14.7178 23.8774 14.6784L23.6805 14.6915C23.6805 14.6915 23.8183 15.0393 23.9167 15.1771C23.9167 15.1771 24.048 15.3805 24.0414 15.5118C24.0414 15.5118 24.0348 15.6036 23.9955 15.643C23.9955 15.643 23.9495 15.7152 23.9299 15.748C23.9299 15.748 23.8708 15.8792 23.8249 15.9055C23.8249 15.9055 23.7396 15.9579 23.7199 15.9579C23.7199 15.9579 23.6805 15.9711 23.7133 15.9055C23.7133 15.9055 23.8249 15.6758 23.8183 15.5511C23.8183 15.5511 23.838 15.4199 23.7461 15.3477C23.7461 15.3477 23.5296 15.0065 23.5033 14.9081C23.5033 14.9081 23.4377 14.7703 23.3984 14.7506C23.3984 14.7506 23.3262 14.6522 23.4443 14.6062C23.4443 14.6062 23.7461 14.5406 23.7986 14.5013C23.7986 14.5013 23.943 14.4553 24.0348 14.1535C24.0348 14.1535 24.1661 13.7992 24.1595 13.5826C24.1595 13.5826 24.4154 14.0747 24.0086 14.5669C24.0086 14.5669 24.3301 14.6587 24.4613 14.5669C24.4613 14.5669 24.8616 14.5078 24.9403 14.4881C24.9403 14.4881 25.0388 14.4619 24.9863 14.5341C24.9863 14.5341 24.8682 14.7047 24.855 14.8162C24.855 14.8162 24.8485 14.9081 24.7763 14.9606C24.7763 14.9606 24.5466 15.1181 24.527 15.269C24.527 15.269 24.481 15.4133 24.5795 15.3805C24.5795 15.3805 24.7172 15.3149 24.7632 15.3805C24.7632 15.3805 24.7763 15.3805 24.7238 15.4461C24.7238 15.4461 24.586 15.5642 24.5795 15.7217C24.5795 15.7217 24.6057 15.9055 24.6516 15.9645C24.6516 15.9645 24.7107 16.0498 24.8091 16.0236C24.8091 16.0236 24.8354 16.0039 24.8813 16.017C24.8813 16.017 24.9272 16.017 25.0519 15.9711C25.0519 15.9711 25.2422 15.9186 25.3078 15.8989C25.3078 15.8989 25.5506 15.8136 25.6687 15.8201C25.6687 15.8201 25.7474 15.8136 25.8459 15.8333C25.8459 15.8333 26.1477 15.8661 26.3511 15.643C26.3511 15.643 26.502 15.5249 26.5545 15.643C26.5545 15.643 26.922 16.1351 27.5191 16.0039C27.5191 16.0039 27.0466 15.807 26.922 15.5446C26.922 15.5446 26.9088 15.3215 26.6595 15.0065C26.6595 15.0065 26.5808 14.9015 26.6595 14.8753C26.6595 14.8753 26.6989 14.8425 26.7973 14.9343C26.7973 14.9343 27.0335 15.1574 27.1188 15.3674C27.1188 15.3674 27.4141 15.807 27.834 15.6627C27.834 15.6627 27.506 15.538 27.3485 15.2952C27.3485 15.2952 27.2501 14.9737 26.9285 14.7309C26.9285 14.7309 26.9154 14.37 26.7645 14.1666C26.7645 14.1666 26.6858 13.8254 26.6661 13.7467C26.6661 13.7467 26.5873 13.4448 26.5873 13.3661C26.5873 13.3661 26.6136 12.9724 26.3642 12.6705C26.3642 12.6705 26.1936 12.3425 25.9312 12.1194C25.9312 12.1194 25.7343 11.87 25.5834 11.7191C25.5834 11.7191 25.3865 11.4894 24.96 11.1942C24.96 11.1942 24.7697 11.0564 24.6254 10.9055C24.6254 10.9055 23.8774 10.3674 23.3327 10.8005C23.3327 10.8005 22.9587 11.0564 22.6438 11.1351C22.6438 11.1351 22.0007 11.2073 21.7251 11.6535C21.7251 11.6535 21.6989 11.7388 21.443 11.765C21.443 11.765 20.8721 11.6994 20.4522 12.2572C20.4522 12.2572 20.2553 12.4474 19.8747 12.4934C19.8747 12.4934 19.2448 12.4278 18.838 12.9133C18.838 12.9133 17.8078 13.8123 17.191 13.2283C17.191 13.2283 16.8695 12.9264 17.2369 12.3818C17.2369 12.3818 17.4666 12.0997 17.8603 11.811C17.8603 11.811 18.1818 11.5879 18.0309 11.2335C18.0309 11.2335 17.9522 10.8923 17.4732 10.8858C17.4732 10.8858 16.8695 10.7677 16.6267 10.4658C16.6267 10.4658 16.3577 11.4238 17.4207 11.4107C17.4207 11.4107 17.6963 11.4501 17.6044 11.6732C17.6044 11.6732 17.4666 11.8635 17.2829 11.9291C17.2829 11.9291 16.9613 12.0669 16.817 12.5393C16.817 12.5393 16.4889 13.3595 17.2829 13.6745C17.5913 13.7795 17.939 13.7467 18.254 13.6942" fill="#D20F3E"></path><path fill-rule="evenodd" clip-rule="evenodd" d="M32.1178 12.1259C32.1506 12.0669 32.1375 12.0078 32.1047 11.9488C32.0325 11.8372 31.9603 11.9619 31.9603 11.9619C31.7044 12.3228 31.8947 12.8608 31.8947 12.8608C31.921 12.3621 32.1244 12.1259 32.1244 12.1259M29.8934 14.5144C29.8934 14.4094 29.8803 14.1732 29.9853 14.0879C30.0246 14.0551 30.1821 13.8845 30.1821 13.8845C30.2084 13.8451 30.2215 13.8385 30.2215 13.8385C30.2543 13.8385 30.2937 13.9107 30.2937 13.9107C30.4052 14.1272 30.5168 14.101 30.5168 14.101C30.5168 14.0616 30.4905 14.0157 30.4905 14.0157C30.4577 13.9566 30.333 13.7007 30.333 13.7007C30.3199 13.6614 30.3002 13.6154 30.3002 13.6154C30.1952 13.4448 30.0903 13.5761 30.0903 13.5761C30.0443 13.6679 29.8015 13.9566 29.8015 13.9566C29.7491 14.0223 29.7425 14.0879 29.7425 14.0879C29.6834 14.4816 29.8868 14.5144 29.8868 14.5144M30.5233 15.5249C30.5693 15.5249 30.5824 15.5052 30.5758 15.4593C30.543 15.3215 30.4315 15.2558 30.4315 15.2558C30.2215 15.1312 30.1952 15.2558 30.1952 15.2558C30.1559 15.4789 30.333 15.5118 30.333 15.5118C30.3659 15.5249 30.5233 15.5249 30.5233 15.5249ZM39.7162 16.181C39.7162 16.181 39.6703 16.2139 39.6966 16.2795C39.6966 16.2795 39.8147 16.601 39.8081 16.7125C39.8081 16.7125 40.0706 16.7585 40.1034 16.6272C40.1034 16.6272 40.1099 16.5747 40.0706 16.5026C40.0706 16.5026 40.0246 16.4369 40.0181 16.3123C40.0181 16.3123 40.0181 16.0039 39.8212 16.0826C39.7819 16.1023 39.7491 16.1351 39.7228 16.1745M39.4013 15.6627C39.3554 15.6233 39.2963 15.6036 39.2372 15.6167C39.1126 15.643 39.1847 15.7545 39.1847 15.7545C39.2372 15.853 39.4013 16.0104 39.4013 16.0104C39.5522 16.122 39.6703 15.9908 39.6703 15.9908C39.7819 15.8792 39.6375 15.8267 39.6375 15.8267C39.5522 15.7939 39.4013 15.6561 39.4013 15.6561M37.8724 13.7204C37.8724 13.7204 37.9183 14.1797 37.7149 14.58C37.7149 14.58 37.564 14.7965 37.7149 14.9343L38.0299 15.118C38.0299 15.118 38.0693 15.1509 38.2136 15.1377C38.2136 15.1377 38.4105 15.0918 38.4761 15.1771C38.4761 15.1771 38.5351 15.3411 38.6008 15.4789C38.6008 15.4789 38.7451 15.807 38.9813 15.912C38.9813 15.912 39.1716 15.9579 39.2307 16.122C39.2307 16.122 39.2897 16.2401 39.4144 16.2401C39.4144 16.2401 39.5063 16.2663 39.5653 16.4698C39.5653 16.4698 39.5981 16.601 39.5981 16.6994C39.5981 16.6994 39.4407 16.6797 39.3422 16.7191C39.3422 16.7191 39.0929 16.8044 38.9813 16.5944C38.9813 16.5944 38.7648 16.227 38.6073 16.2795C38.6073 16.2795 38.2858 16.3845 38.0561 16.1548C38.0561 16.1548 37.7412 15.8136 37.3015 15.8858C37.3015 15.8858 36.8029 15.9842 36.6519 15.8726C36.6519 15.8726 36.337 15.7086 36.2189 15.6692C36.2189 15.6692 36.0745 15.6299 36.0614 15.4724C36.0614 15.4724 35.9761 15.2493 35.9105 15.1771H36.1467C36.1467 15.1771 36.3632 15.5314 36.7241 15.643C36.7241 15.643 36.921 15.7217 37.3212 15.6561C37.3212 15.6561 37.8921 15.5249 38.3973 16.0695C38.3973 16.0695 38.463 16.1679 38.5614 16.1285C38.5614 16.1285 38.2858 15.6561 37.669 15.538C37.669 15.538 37.4721 15.4986 37.3015 15.5249C37.3015 15.5249 36.4813 15.5511 36.0942 14.7375C36.0942 14.7375 36.1336 14.0485 35.9564 13.8845C35.9564 13.8845 35.8842 13.8648 35.8973 13.996C35.8973 13.996 36.022 14.7178 35.7858 14.8621C35.7858 14.8621 35.648 14.9671 35.3987 14.9278C35.3987 14.9278 35.0181 14.8359 34.7031 14.8884C34.7031 14.8884 34.2241 14.9999 33.8107 14.9474C33.8107 14.9474 33.9157 14.7834 33.896 14.5866C33.896 14.5866 33.837 14.4488 33.7714 14.5341C33.7714 14.5341 33.6139 15.059 33.1808 15.2165C33.1808 15.2165 32.7937 15.3543 32.8002 15.8464C32.8002 15.8464 32.8593 15.912 33.3711 16.0957C33.3711 16.0957 33.5614 16.1548 33.627 16.0104C33.627 16.0104 33.8763 15.4789 34.0863 15.4986L34.4931 15.5314C34.4931 15.5314 34.6309 15.5642 34.526 15.6758C34.526 15.6758 34.3882 15.8595 34.3291 15.9711C34.3291 15.9711 34.316 16.0629 34.1847 16.0432C34.1847 16.0432 34.0076 15.9514 33.9026 16.286C33.9026 16.286 33.8107 16.4566 33.6533 16.5091C33.6533 16.5091 33.5023 16.5551 33.3645 16.4829C33.3645 16.4829 32.6952 16.2401 32.5837 16.1482C32.5837 16.1482 32.4393 16.0695 32.3278 16.1089C32.3278 16.1089 32.1309 16.1548 32.0456 15.9973L31.8357 15.6758C31.8357 15.6758 31.7897 15.5971 31.7963 15.4986C31.7963 15.4986 31.7766 15.4002 31.8619 15.3018C31.8619 15.3018 31.9407 15.2165 31.9538 15.1574L32.0981 14.8097C32.0981 14.8097 32.1572 14.7178 32.2228 14.6784L32.4197 14.6915C32.4197 14.6915 32.2819 15.0393 32.1834 15.1771C32.1834 15.1771 32.0522 15.3805 32.0588 15.5118C32.0588 15.5118 32.0653 15.6036 32.1047 15.643C32.1047 15.643 32.1506 15.7152 32.1703 15.748C32.1703 15.748 32.2294 15.8792 32.2753 15.9055C32.2753 15.9055 32.3606 15.9579 32.3803 15.9579C32.3803 15.9579 32.4197 15.9711 32.3868 15.9055C32.3868 15.9055 32.2753 15.6758 32.2819 15.5511C32.2819 15.5511 32.2622 15.4199 32.354 15.3477C32.354 15.3477 32.5706 15.0065 32.5968 14.9081C32.5968 14.9081 32.6624 14.7703 32.7018 14.7506C32.7018 14.7506 32.774 14.6522 32.6559 14.6062C32.6559 14.6062 32.354 14.5406 32.3015 14.5013C32.3015 14.5013 32.1572 14.4553 32.0653 14.1535C32.0653 14.1535 31.9341 13.7992 31.9407 13.5826C31.9407 13.5826 31.6847 14.0747 32.0916 14.5669C32.0916 14.5669 31.77 14.6587 31.6388 14.5669C31.6388 14.5669 31.2386 14.5078 31.1598 14.4881C31.1598 14.4881 31.0614 14.4619 31.1139 14.5341C31.1139 14.5341 31.232 14.7047 31.2451 14.8162C31.2451 14.8162 31.2517 14.9081 31.3239 14.9606C31.3239 14.9606 31.5535 15.1181 31.5732 15.269C31.5732 15.269 31.6191 15.4133 31.5207 15.3805C31.5207 15.3805 31.3829 15.3149 31.337 15.3805C31.337 15.3805 31.3239 15.3805 31.3763 15.4461C31.3763 15.4461 31.5141 15.5642 31.5207 15.7217C31.5207 15.7217 31.4945 15.9055 31.4485 15.9645C31.4485 15.9645 31.3895 16.0498 31.291 16.0236C31.291 16.0236 31.2648 16.0039 31.2189 16.017C31.2189 16.017 31.1729 16.017 31.0483 15.9711C31.0483 15.9711 30.858 15.9186 30.7924 15.8989C30.7924 15.8989 30.5496 15.8136 30.4315 15.8201C30.4315 15.8201 30.3527 15.8136 30.2543 15.8333C30.2543 15.8333 29.9525 15.8661 29.749 15.643C29.749 15.643 29.5981 15.5249 29.5456 15.643C29.5456 15.643 29.1782 16.1351 28.5811 16.0039C28.5811 16.0039 29.0535 15.807 29.1782 15.5446C29.1782 15.5446 29.1913 15.3215 29.4407 15.0065C29.4407 15.0065 29.5194 14.9015 29.4407 14.8753C29.4407 14.8753 29.4013 14.8425 29.3029 14.9343C29.3029 14.9343 29.0666 15.1574 28.9813 15.3674C28.9813 15.3674 28.6861 15.807 28.2661 15.6627C28.2661 15.6627 28.5942 15.538 28.7517 15.2952C28.7517 15.2952 28.8501 14.9737 29.1716 14.7309C29.1716 14.7309 29.1847 14.37 29.3357 14.1666C29.3357 14.1666 29.4144 13.8254 29.4341 13.7467C29.4341 13.7467 29.5128 13.4448 29.5128 13.3661C29.5128 13.3661 29.4866 12.9724 29.7359 12.6705C29.7359 12.6705 29.9065 12.3425 30.169 12.1194C30.169 12.1194 30.3659 11.87 30.5168 11.7191C30.5168 11.7191 30.7136 11.4894 31.1401 11.1942C31.1401 11.1942 31.3304 11.0564 31.4748 10.9055C31.4748 10.9055 32.2228 10.3674 32.7674 10.8005C32.7674 10.8005 33.1414 11.0564 33.4564 11.1351C33.4564 11.1351 34.0994 11.2073 34.375 11.6535C34.375 11.6535 34.4013 11.7388 34.6572 11.765C34.6572 11.765 35.2281 11.6994 35.648 12.2572C35.648 12.2572 35.8449 12.4474 36.2254 12.4934C36.2254 12.4934 36.8554 12.4278 37.2622 12.9133C37.2622 12.9133 38.2924 13.8123 38.9092 13.2283C38.9092 13.2283 39.2307 12.9264 38.8632 12.3818C38.8632 12.3818 38.6336 12.0997 38.2333 11.811C38.2333 11.811 37.9118 11.5879 38.0627 11.2335C38.0627 11.2335 38.1414 10.8923 38.6204 10.8858C38.6204 10.8858 39.2241 10.7677 39.4669 10.4658C39.4669 10.4658 39.7359 11.4238 38.6729 11.4107C38.6729 11.4107 38.3973 11.4501 38.4892 11.6732C38.4892 11.6732 38.627 11.8635 38.8107 11.9291C38.8107 11.9291 39.1323 12.0669 39.2766 12.5393C39.2766 12.5393 39.6047 13.3595 38.8107 13.6745C38.5023 13.7795 38.1546 13.7467 37.8396 13.6942" fill="#D20F3E"></path></svg>