<svg xmlns="http://www.w3.org/2000/svg" xmlns:xlink="http://www.w3.org/1999/xlink" id="Layer_1" x="0px" y="0px" viewBox="0 0 81 81" style="enable-background:new 0 0 81 81;" xml:space="preserve"><style type="text/css">	.st0{fill:#004071;}	.st1{fill:#EC1C24;}	.st2{fill:#C4A361;}	.st3{fill:#FFFFFF;}</style><g>	<path id="XMLID_185_" class="st0" d="M40.5,0.5c-22.1,0-40,18-40,40c0,22.1,18,40,40,40s40-18,40-40C80.5,18.4,62.6,0.5,40.5,0.5"></path>	<path id="XMLID_174_" class="st0" d="M40.5,47.1c-4.8,0-8.6,3.7-8.6,8.2c0,1.6,0.5,3.1,1.3,4.4c2.3,0.9,4.8,1.4,7.3,1.4  c2.6,0,5.1-0.5,7.3-1.4c0.8-1.3,1.3-2.8,1.3-4.4C49.1,50.8,45.3,47.1,40.5,47.1"></path>	<path id="XMLID_218_" class="st1" d="M48,41c2.5,4.2,5.7,7.8,9.5,10.8c-1.6,2.5-3.8,4.6-6.3,6.2c0.1-0.5,0.1-1.1,0.1-1.6  c0-5.6-4.9-10.2-10.9-10.2s-10.9,4.6-10.9,10.2c0,0.6,0,1.1,0.1,1.6c-2.5-1.6-4.7-3.7-6.3-6.2c3.8-3.1,7-6.6,9.5-10.8H48   M47.6,40.2c-3.2-5.6-5.1-12.2-5.2-20c-0.6,0-1.2-0.1-1.9-0.1c-0.6,0-1.2,0-1.9,0.1c-0.1,7.7-2,14.4-5.2,20H47.6"></path>	<path id="XMLID_217_" class="st2" d="M41.2,57.8L41.2,57.8c-0.1,0.4-0.4,0.7-0.7,1l-0.1,0l-0.1,0c-0.3-0.2-0.5-0.6-0.7-0.9l0-0.1  c0.2-0.1,0.4-0.4,0.5-0.7l0.2-0.2l0.2,0.2C40.8,57.4,41,57.7,41.2,57.8 M41.9,53.2c0-0.8-1.1-3.4-1.4-3.4l-0.1,0  C40,50.1,39,52.4,39,53.2c0,0.6,1.2,2.3,1.2,3.2l0.2,0.2l0.2-0.2l0,0C40.6,55.5,41.9,53.8,41.9,53.2 M39.8,56.3  c-0.6-1.6-1.6-2.4-2.7-2.4c-0.8,0-1.5,0.6-1.5,1.5c0,0.8,0.7,1.4,1.5,1.4c0.2,0,0.5-0.1,0.6-0.3c0.2-0.2,0.2-0.5,0.1-0.5l-0.1,0  h-0.1c-0.3,0-0.5-0.2-0.5-0.5c0-0.3,0.2-0.5,0.5-0.5c0.5,0,1.3,0.5,1.8,1.4l0,0l0,0l0.2,0.1L39.8,56.3L39.8,56.3 M43.8,53.9  c-1.1,0-2.1,0.8-2.7,2.4l0,0.1l0.2,0.2l0.2-0.1l0,0l0,0l0,0c0.4-1,1.3-1.4,1.8-1.4c0.3,0,0.5,0.2,0.5,0.5c0,0.3-0.2,0.5-0.5,0.5  h-0.1L43,56c0,0-0.1,0.3,0.1,0.5c0.1,0.1,0.4,0.3,0.6,0.3c0.8,0,1.5-0.6,1.5-1.4C45.3,54.5,44.6,53.9,43.8,53.9"></path>	<path id="XMLID_220_" class="st3" d="M40.5,3.3c-9.9,0-19.3,3.9-26.3,10.9c-7,7-10.9,16.4-10.9,26.3s3.9,19.3,10.9,26.3  s16.4,10.9,26.3,10.9s19.3-3.9,26.3-10.9s10.9-16.4,10.9-26.3s-3.9-19.3-10.9-26.3C59.7,7.2,50.4,3.3,40.5,3.3 M40.5,4.8  c19.7,0,35.7,16,35.7,35.7s-16,35.7-35.7,35.7c-19.7,0-35.7-16-35.7-35.7S20.7,4.8,40.5,4.8 M50.5,18.6c-0.6-0.3-1.2-0.5-1.8-0.7  l3.5-8.5c0.6,0.2,1.2,0.5,1.8,0.7L50.5,18.6 M40.3,8.9v3h3.4c0.8,0,1.5-0.7,1.5-1.5s-0.7-1.5-1.5-1.5H40.3 M40.3,16.4L40.3,16.4  c-0.6,0-1.2,0-1.9,0.1V7.3h5.3c1.7,0,3.4,1.4,3.4,3.1c0,1.4-1.1,2.7-2.5,3l2.4,3.8c-0.8-0.2-1.6-0.4-2.3-0.5l-2-3.2h-2.3L40.3,16.4   M18.2,17.9l2.2,2l2.5-2.8c0.6-0.6,0.5-1.6-0.1-2.1c-0.6-0.6-1.6-0.5-2.1,0.1L18.2,17.9 M23.7,23c-0.4,0.4-0.9,0.9-1.3,1.3  l-6.7-6.1l3.8-4.2c1.2-1.3,3.3-1.4,4.5-0.3s1.3,3.2,0.1,4.5l-2.6,2.9L23.7,23 M58.5,15.3c1.4-0.3,3.9,2.2,4.4,3.9  c0.4-0.3,1.3-1,1.3-1c-1.1-3-5.3-6.1-7.4-4.2c-1.2,1.1-0.5,2.9,0.5,4l1,1.1c1,1.1,1.9,2.2,1.1,2.9c-0.9,0.7-3.4-1.1-4.9-4.3l-1.3,1  c0.3,0.8,1,2,2,3.1c1.1,1.2,2.3,1.9,3.4,2.1c0.8,0.2,1.7,0,2.2-0.5c1.4-1.3,0.9-3.1-1.3-5.4L58.7,17C57.8,16,58.2,15.4,58.5,15.3   M29.7,14.8c0.9-0.4,1.8-0.7,2.7-1l-2.6-3L29.7,14.8 M30.3,8.8l7,7.7c-0.7,0.1-1.4,0.2-2.1,0.4l-1.6-1.8c-1.3,0.4-2.7,0.8-3.9,1.4  l-0.1,2.4c-0.7,0.3-1.3,0.7-1.9,1.1l0.7-10.4C29,9.3,29.6,9,30.3,8.8 M43.4,20.4c9.9,1.4,17.6,9.9,17.6,20.2c0,3.3-0.8,6.4-2.2,9.2  C49.7,43,44.3,33.5,43.4,20.4 M51.2,58c0.1-0.5,0.1-1.1,0.1-1.7c0-5.6-4.9-10.2-10.9-10.2s-10.9,4.6-10.9,10.2c0,0.6,0,1.1,0.1,1.7  c-2.5-1.6-4.7-3.7-6.3-6.2c3.8-3.1,7-6.6,9.5-10.8h15.1c2.5,4.2,5.7,7.8,9.5,10.8C55.9,54.3,53.8,56.4,51.2,58 M47.8,59.7  c-2.3,0.9-4.8,1.4-7.3,1.4c-2.6,0-5.1-0.5-7.3-1.4c-0.8-1.3-1.3-2.8-1.3-4.4c0-4.5,3.9-8.2,8.6-8.2s8.6,3.7,8.6,8.2  C49.1,57,48.7,58.5,47.8,59.7 M20,40.6c0-10.3,7.6-18.8,17.6-20.2c-0.9,13.1-6.4,22.7-15.4,29.4C20.8,47,20,43.9,20,40.6   M40.5,20.2c0.6,0,1.2,0,1.9,0.1c0.1,7.8,2,14.4,5.2,20H33.4c3.2-5.6,5.1-12.2,5.2-20C39.2,20.2,39.8,20.2,40.5,20.2 M40.5,18.7  c-12.1,0-21.9,9.8-21.9,21.9s9.8,21.9,21.9,21.9s21.9-9.8,21.9-21.9S52.6,18.7,40.5,18.7 M22.6,61.7l-1.2,0.6l0.8,0.7L22.6,61.7   M22.2,65l-0.4-0.3l0.4-1.2l-1.2-1L19.8,63l-0.4-0.4l3.4-1.6l0.4,0.4L22.2,65 M23.3,65.8l1.9-2.9l0.4,0.3L23.7,66L23.3,65.8   M27.1,64.1l0.6,3.3l0,0l1.2-2.3l0.4,0.2l-1.6,3l-0.4-0.2l-0.6-3.3l0,0l-1.2,2.3L25,66.9l1.6-3.1L27.1,64.1 M33,66.6l-0.2,0.5  l-1.1-0.4l-1,2.8l-0.5-0.2l1-2.8l-1.1-0.4l0.2-0.5L33,66.6 M40.6,69.2l1.6,0l0,0.9c0,0.6-0.7,1-1.6,1c-0.9,0-1.9-0.7-1.8-1.8  c0-1,0.8-1.8,1.9-1.7c0.8,0,1.2,0.4,1.4,0.6l-0.4,0.4c-0.2-0.2-0.4-0.5-1-0.5c-0.9,0-1.4,0.6-1.5,1.3c0,0.7,0.5,1.3,1.4,1.3  c0.6,0,1-0.3,1-0.5v-0.4l-1.1,0L40.6,69.2 M45.9,67.1l0.1,0.5l-2.3,0.3l0.1,0.9l1.2-0.2l0.1,0.5l-1.2,0.2l0.1,1l2.4-0.3l0.1,0.5  l-2.9,0.4l-0.5-3.4L45.9,67.1 M47.7,67.1l0.3,1l1.5-0.4c0.4-0.1,0.5-0.4,0.4-0.7c-0.1-0.4-0.4-0.4-0.7-0.3L47.7,67.1 M49,66.2  c0.5-0.2,1.1,0,1.3,0.6c0.2,0.7-0.2,1.1-0.5,1.2l1.1,1.2l-0.5,0.2l-1.1-1.2l-1.2,0.4l0.4,1.4l-0.5,0.1l-1-3.3L49,66.2 M56.6,63  l0.3,1.3l0.9-0.6L56.6,63 M59.7,64.2l-0.4,0.3l-1.1-0.6l-1.2,0.9l0.2,1.2l-0.4,0.3L56,62.7l0.4-0.3L59.7,64.2 M58.6,60.6l2.3,2.5  l-0.4,0.3L58.2,61L58.6,60.6 M59.9,59.3l3.3,0.2l0,0l-1.9-1.7l0.3-0.4l2.5,2.3l-0.3,0.4l-3.3-0.2l0,0l2,1.8L62.2,62l-2.6-2.3  L59.9,59.3 M54.1,63.9l1.6,3l-0.4,0.2L54.1,65l0,0l-0.1,2.4l-2-1.3l0,0l1,2.2l-0.4,0.2l-1.5-3.1l0.4-0.2l2,1.4l0.1-2.4L54.1,63.9   M20.9,59.5L20.9,59.5L20.9,59.5l-0.4,0.2l0,0v0c-0.2-0.8-1.1-1.7-1.6-1.7h-0.1l-0.3,0.2c-0.1,0.1-0.1,0.4,0.2,0.7l0.3,0.4  c0.5,0.6,0.7,1.2,0.6,1.6l-0.4,0.5l-0.5,0.1l-0.4-0.1c-0.4-0.1-0.8-0.5-1.2-1c-0.4-0.5-0.6-1-0.7-1.3l0,0h0l0.4-0.3v0  c0.4,1.3,1.2,2.1,1.7,2.1L19,61l0.2-0.3c0.1-0.3-0.2-0.7-0.5-1.1l-0.4-0.5c-0.3-0.3-0.4-0.7-0.3-1l0.3-0.5l0.5-0.2  C19.6,57.4,20.6,58.4,20.9,59.5 M34.8,69l0.1-0.5l1.2,0.3L36,69.3L34.8,69"></path></g></svg>