<svg xmlns="http://www.w3.org/2000/svg" id="Layer_2" data-name="Layer 2" viewBox="0 0 276.4 95.9"><defs><style>      .cls-1 {        fill: #212121;        stroke-width: 0px;      }    </style></defs><g id="Layer_1-2" data-name="Layer 1"><g><g><polygon class="cls-1" points="185.2 21.1 114.72 21.1 120.57 0 191.05 0 185.2 21.1"></polygon><polygon class="cls-1" points="137.44 56.74 175.32 56.74 181.17 35.64 110.68 35.64 93.97 95.9 126.58 95.9 137.44 56.74"></polygon></g><path class="cls-1" d="m217.38,74.09c-.86-.49-1.39-1.13-1.6-1.94-.06-.25-.08-.49-.07-.75.02-.22.05-.46.11-.7l12.77-46.04c.37-1.34,1.02-2.26,1.94-2.77.93-.52,2.52-.79,4.81-.79h35.2l5.85-21.1h-49.36c-9,0-15.26,1.07-18.92,3.1-3.66,2.02-6.19,5.62-7.65,10.9l-18.22,65.66c-.28.97-.43,1.95-.48,2.87-.06,1.01.06,1.97.28,2.92.84,3.2,2.92,5.73,6.3,7.65,3.32,1.85,7.48,2.81,12.42,2.81h51.67l5.85-21.1h-37.77c-1.26,0-2.31-.24-3.16-.71"></path><path class="cls-1" d="m22.58,0L.49,79.65c-.28.97-.43,1.95-.48,2.87-.05,1.01.06,1.97.28,2.92.84,3.2,2.92,5.74,6.29,7.65,3.32,1.86,7.48,2.81,12.43,2.81h36.75c9,0,15.26-1.08,18.92-3.1,3.65-2.02,6.18-5.62,7.65-10.9L105.05,0h-32.61l-19.76,71.24c-.37,1.35-1.02,2.26-1.95,2.77-.93.52-2.52.79-4.81.79h-5.61c-1.26,0-2.32-.25-3.16-.72-.86-.49-1.39-1.13-1.6-1.94-.06-.25-.09-.49-.07-.75.01-.22.05-.46.11-.7L55.19,0H22.58Z"></path></g></g></svg>